<svg width="107" height="107" viewBox="0 0 107 107" fill="none" xmlns="http://www.w3.org/2000/svg">
<ellipse cx="53.3984" cy="53.3996" rx="48.2773" ry="48.2773" fill="url(#paint0_linear_3456_14056)"/>
<g filter="url(#filter0_d_3456_14056)">
<ellipse cx="53.3985" cy="53.3997" rx="37.7305" ry="37.7306" fill="url(#paint1_linear_3456_14056)"/>
<path d="M86.0009 53.3997C86.0009 71.4055 71.4043 86.0021 53.3985 86.0021C35.3927 86.0021 20.7962 71.4055 20.7962 53.3997C20.7962 35.394 35.3927 20.7974 53.3985 20.7974C71.4043 20.7974 86.0009 35.394 86.0009 53.3997Z" stroke="#A7FEB1" stroke-width="10.2564"/>
</g>
<path d="M66.3195 51.5891L54.2213 65.3005C53.8497 65.7216 53.1907 65.7238 52.8172 65.3005L40.7189 51.5891C40.3463 51.1668 40.3217 50.5408 40.6594 50.0907L43.9434 45.7119C44.0306 45.5956 44.1437 45.5012 44.2737 45.4362C44.4037 45.3712 44.5471 45.3374 44.6924 45.3374H62.346C62.6407 45.3374 62.9182 45.4761 63.095 45.7119L66.3791 50.0907C66.717 50.5413 66.6917 51.1672 66.3195 51.5891Z" fill="url(#paint2_linear_3456_14056)"/>
<path d="M66.3215 51.5893L54.2233 65.3004C53.8506 65.724 53.19 65.7216 52.8195 65.3004L52.2539 64.6593L63.7865 51.5893C63.9673 51.3845 64.072 51.1235 64.0829 50.8505C64.0937 50.5775 64.0101 50.3091 63.8462 50.0905L60.5623 45.7118C60.3854 45.4763 60.1081 45.3374 59.8134 45.3374H62.3484C62.6431 45.3374 62.9204 45.4763 63.0973 45.7118L66.3812 50.0905C66.711 50.531 66.7033 51.1547 66.3215 51.5893Z" fill="#36AE4F"/>
<path d="M40.315 51.9458L40.315 51.9458L52.4133 65.6572L52.5007 65.58L52.4133 65.6572C52.9995 66.3215 54.0378 66.3234 54.6258 65.6572L54.5384 65.58L54.6258 65.6572L66.724 51.9458L66.6366 51.8687L66.724 51.9458C67.2854 51.3095 67.2834 50.3976 66.8106 49.7673L63.5266 45.3885C63.252 45.0224 62.8116 44.7984 62.3463 44.7984H44.6927C44.2299 44.7984 43.7878 45.0213 43.5124 45.3885C43.5124 45.3885 43.5124 45.3885 43.5124 45.3885L40.2285 49.7672C39.7513 50.4035 39.759 51.3155 40.315 51.9458ZM53.5545 65.0526L53.6657 65.0876L53.5545 65.0526C53.5511 65.0633 53.5461 65.0686 53.5414 65.0718C53.536 65.0755 53.5284 65.0781 53.5195 65.0781C53.5107 65.0781 53.5031 65.0755 53.4977 65.0718C53.493 65.0686 53.488 65.0633 53.4846 65.0527L49.184 51.369H57.855L53.5545 65.0526ZM50.5605 42.8883L50.5605 42.8883L48.8705 40.7758L48.8698 40.775C48.7801 40.6648 48.6504 40.5945 48.5091 40.5794C48.3677 40.5643 48.2262 40.6057 48.1152 40.6945C48.0042 40.7832 47.9327 40.9123 47.9164 41.0535C47.9001 41.1947 47.9402 41.3366 48.028 41.4484L48.0286 41.4492L49.7186 43.5617C49.7186 43.5617 49.7186 43.5617 49.7186 43.5617C49.9036 43.7929 50.2426 43.8328 50.4763 43.6459C50.5879 43.5566 50.6595 43.4266 50.6753 43.2845C50.6911 43.1424 50.6498 42.9999 50.5605 42.8883ZM59.0104 41.4492L59.0111 41.4484C59.0989 41.3366 59.139 41.1947 59.1226 41.0535C59.1063 40.9123 59.0349 40.7832 58.9239 40.6945C58.8129 40.6057 58.6713 40.5643 58.53 40.5794C58.3886 40.5945 58.259 40.6648 58.1692 40.775L58.1686 40.7758L56.4786 42.8883L56.5696 42.9611L56.4786 42.8883C56.3893 42.9999 56.348 43.1424 56.3638 43.2845C56.3796 43.4266 56.4512 43.5566 56.5628 43.6459C56.7968 43.8331 57.1357 43.7926 57.3204 43.5617C57.3204 43.5617 57.3204 43.5617 57.3204 43.5617L59.0104 41.4492ZM65.6387 50.001C65.7366 50.1316 65.8062 50.2245 65.8557 50.2909H59.6843L62.8093 46.2289C63.6905 47.4038 64.3259 48.2508 64.7846 48.8622C65.1937 49.4075 65.4621 49.7653 65.6387 50.001ZM54.9083 45.8765L57.6249 50.2909H49.4142L52.1308 45.8765H54.9083ZM58.6389 49.8817L56.1742 45.8765H61.7201L58.6389 49.8817ZM50.8649 45.8765L48.4002 49.8817L45.319 45.8765H50.8649ZM44.2298 46.2289L47.3547 50.2909H41.1834C41.233 50.2244 41.3027 50.1313 41.4008 50.0003C41.5801 49.7612 41.8537 49.3964 42.2729 48.8376C42.7301 48.2282 43.3603 47.3882 44.2298 46.2289ZM48.0539 51.369L51.8216 63.3571C48.9168 60.065 46.7984 57.6644 45.2533 55.9134C43.853 54.3266 42.9236 53.2733 42.3064 52.5736C41.7033 51.89 41.3987 51.5443 41.2446 51.369H48.0539ZM58.9851 51.369H65.7946C65.6448 51.5393 65.3585 51.8642 64.8137 52.4818C64.1985 53.1791 63.2542 54.2493 61.8051 55.8915C60.2568 57.646 58.1323 60.0536 55.2174 63.3571L58.9851 51.369ZM53.5195 42.919C53.6625 42.919 53.7996 42.8622 53.9007 42.7611C54.0018 42.6601 54.0586 42.5229 54.0586 42.38V39.4225C54.0586 39.2795 54.0018 39.1424 53.9007 39.0413C53.7996 38.9402 53.6625 38.8835 53.5195 38.8835C53.3766 38.8835 53.2394 38.9402 53.1384 39.0413C53.0373 39.1424 52.9805 39.2795 52.9805 39.4225V42.38C52.9805 42.5229 53.0373 42.6601 53.1384 42.7611C53.2394 42.8622 53.3766 42.919 53.5195 42.919Z" fill="white" stroke="white" stroke-width="0.2331"/>
<g opacity="0.34">
<mask id="path-7-inside-1_3456_14056" fill="white">
<path d="M67.4156 13.9156C75.4465 16.7388 82.4288 21.938 87.4354 28.8229C92.442 35.7078 95.2359 43.9527 95.4463 52.4629L94.2196 52.4932C94.0153 44.2319 91.3031 36.2282 86.4429 29.5446C81.5828 22.8611 74.8047 17.8139 67.0086 15.0733L67.4156 13.9156Z"/>
</mask>
<path d="M67.4156 13.9156C75.4465 16.7388 82.4288 21.938 87.4354 28.8229C92.442 35.7078 95.2359 43.9527 95.4463 52.4629L94.2196 52.4932C94.0153 44.2319 91.3031 36.2282 86.4429 29.5446C81.5828 22.8611 74.8047 17.8139 67.0086 15.0733L67.4156 13.9156Z" fill="#FFF9EB" stroke="#FFF9EB" stroke-width="0.932399" stroke-linejoin="round" mask="url(#path-7-inside-1_3456_14056)"/>
</g>
<g opacity="0.34">
<mask id="path-8-inside-2_3456_14056" fill="white">
<path d="M42.6415 94.0294C34.4188 91.8261 27.0608 87.1739 21.5443 80.6903C16.0278 74.2068 12.614 66.1987 11.7559 57.7293L12.9768 57.6056C13.8097 65.8273 17.1238 73.6012 22.4789 79.8951C27.834 86.1891 34.9769 90.7052 42.9591 92.8441L42.6415 94.0294Z"/>
</mask>
<path d="M42.6415 94.0294C34.4188 91.8261 27.0608 87.1739 21.5443 80.6903C16.0278 74.2068 12.614 66.1987 11.7559 57.7293L12.9768 57.6056C13.8097 65.8273 17.1238 73.6012 22.4789 79.8951C27.834 86.1891 34.9769 90.7052 42.9591 92.8441L42.6415 94.0294Z" fill="#FFF9EB" stroke="#FFF9EB" stroke-width="0.932399" stroke-linejoin="round" mask="url(#path-8-inside-2_3456_14056)"/>
</g>
<defs>
<filter id="filter0_d_3456_14056" x="8.20878" y="11.0072" width="90.3793" height="90.3796" filterUnits="userSpaceOnUse" color-interpolation-filters="sRGB">
<feFlood flood-opacity="0" result="BackgroundImageFix"/>
<feColorMatrix in="SourceAlpha" type="matrix" values="0 0 0 0 0 0 0 0 0 0 0 0 0 0 0 0 0 0 127 0" result="hardAlpha"/>
<feOffset dy="2.7972"/>
<feGaussianBlur stdDeviation="3.7296"/>
<feComposite in2="hardAlpha" operator="out"/>
<feColorMatrix type="matrix" values="0 0 0 0 0 0 0 0 0 0 0 0 0 0 0 0 0 0 0.27 0"/>
<feBlend mode="normal" in2="BackgroundImageFix" result="effect1_dropShadow_3456_14056"/>
<feBlend mode="normal" in="SourceGraphic" in2="effect1_dropShadow_3456_14056" result="shape"/>
</filter>
<linearGradient id="paint0_linear_3456_14056" x1="53.3984" y1="5.12231" x2="53.3984" y2="101.677" gradientUnits="userSpaceOnUse">
<stop stop-color="#59F371"/>
<stop offset="1" stop-color="#2FA048"/>
</linearGradient>
<linearGradient id="paint1_linear_3456_14056" x1="53.3985" y1="15.6692" x2="53.3985" y2="91.1303" gradientUnits="userSpaceOnUse">
<stop stop-color="#2F9F49"/>
<stop offset="1" stop-color="#57EE6D"/>
</linearGradient>
<linearGradient id="paint2_linear_3456_14056" x1="53.5192" y1="45.3374" x2="53.5192" y2="65.6171" gradientUnits="userSpaceOnUse">
<stop stop-color="#45CA5D"/>
<stop offset="1" stop-color="#309E48"/>
</linearGradient>
</defs>
</svg>
