 <svg xmlns="http://www.w3.org/2000/svg" fill="none" viewBox="0 0 14 14"><path stroke={theme.shoorah_7} stroklinecap="round" strokeLinejoin="round" d="M7 4.129C5.74 5.16 5.11 5.79 4.129 7 5.11 8.21 5.74 8.84 7 9.871"></path><path stroke={theme.shoorah_7} stroklinecap="round" d="M10.482 4.135a86.718 86.718 0 0 0-.063-1.54C10.374 1.678 9.6.923 8.587.85a39.976 39.976 0 0 0-5.67 0c-1.012.072-1.787.827-1.833 1.746A88.811 88.811 0 0 0 .977 7c0 1.511.037 2.985.107 4.404.046.92.82 1.674 1.833 1.746a39.962 39.962 0 0 0 5.67 0c1.012-.072 1.787-.827 1.832-1.746.026-.506.046-1.02.063-1.539"></path><path stroke={theme.shoorah_7} stroklinecap="round" strokeLinejoin="round" d="M13.023 7 4.161 7"></path></svg>