<svg width="101" height="107" viewBox="0 0 101 107" fill="none" xmlns="http://www.w3.org/2000/svg">
<path d="M96.509 59.6505C91.7795 75.5816 80.0768 96.6812 51.1736 106.763L50.4963 107L49.8189 106.763C20.9218 96.6812 9.22507 75.5816 4.48952 59.6505C-0.602848 42.4789 1.07243 27.8916 1.14501 27.2775L1.30225 25.9519L2.57232 25.5506C34.572 15.3778 48.9177 1.55663 49.0568 1.42285L50.5023 0L51.9478 1.42285C52.0869 1.55663 66.4326 15.3778 98.4262 25.5506L99.6903 25.9519L99.8475 27.2775C99.9261 27.8916 101.601 42.4789 96.509 59.6505Z" fill="url(#paint0_linear_3456_14083)"/>
<path d="M99.6884 25.9519L97.8014 27.5268H3.19946L1.3125 25.9519L2.58257 25.5506C34.5702 15.3778 48.9159 1.55663 49.055 1.42285L50.5005 0L51.9459 1.42285C52.085 1.55663 66.4307 15.3778 98.4244 25.5506L99.6884 25.9519Z" fill="#4852C0"/>
<path d="M50.5021 104.471C-1.55257 86.3018 2.72332 32.0205 3.17087 27.4965C3.18901 27.302 3.20111 27.1986 3.20111 27.1986C3.27973 27.1743 3.35836 27.1499 3.43093 27.1256C35.1887 16.9832 49.5889 3.44785 50.4598 2.60873C50.484 2.57832 50.5021 2.56616 50.5021 2.56616L50.5142 2.57832C50.9557 3.00396 65.2591 16.7704 97.4039 27.0709C97.5309 27.1135 97.67 27.156 97.8031 27.1925C97.8031 27.1925 97.8152 27.2959 97.8333 27.4904C98.2809 32.0022 102.575 86.2957 50.5021 104.464V104.471Z" fill="#6072EB"/>
<path d="M97.8283 27.4965L97.7981 27.5269L95.3244 29.5031H5.67572L3.20211 27.5269L3.17188 27.4965C3.19002 27.302 3.20211 27.1986 3.20211 27.1986C3.28074 27.1743 3.35936 27.1499 3.43194 27.1256C35.1897 16.9832 49.5899 3.44785 50.4608 2.60873C50.485 2.57832 50.5031 2.56616 50.5031 2.56616L50.5152 2.57832C50.9567 3.00396 65.2601 16.7704 97.4049 27.0709C97.5319 27.1135 97.671 27.156 97.8041 27.1925C97.8041 27.1925 97.8162 27.2959 97.8343 27.4904L97.8283 27.4965Z" fill="#5767CF"/>
<path d="M91.9548 58.477C85.5923 79.7226 71.6457 94.3646 50.4961 102.002C35.5576 96.6083 24.2056 87.7124 16.5852 75.4601C13.4282 70.3767 10.9062 64.7096 9.04345 58.477C5.14252 45.4585 5.40258 33.7291 5.66869 29.5031C31.5539 21.0267 45.7242 10.4587 50.4961 6.43335C54.8566 10.1121 67.0674 19.2512 88.8884 27.2654C90.9447 28.0255 93.0918 28.7673 95.3234 29.5031C95.5896 33.723 95.8557 45.4585 91.9548 58.477Z" fill="url(#paint1_linear_3456_14083)"/>
<g style="mix-blend-mode:overlay" opacity="0.34">
<path d="M87.3348 58.0026C81.68 76.8828 69.2938 89.8891 50.4968 96.675C37.2215 91.8775 27.1396 83.9788 20.3659 73.0946C17.5597 68.5767 15.3219 63.542 13.6648 58.0026C10.1993 46.4373 10.4291 36.0091 10.665 32.2574C33.6653 24.7236 46.2511 15.3351 50.4968 11.7598C54.3735 15.0311 65.2235 23.1487 84.6072 30.269C86.4397 30.944 88.3448 31.6068 90.3225 32.2574C90.5584 36.003 90.7943 46.4312 87.3288 58.0026H87.3348Z" fill="white"/>
</g>
<g filter="url(#filter0_d_3456_14083)">
<path d="M65.4333 31.1628L67.0179 34.3916L70.562 34.9085L67.9977 37.4198L68.6025 40.9708L65.4333 39.2926L62.2642 40.9708L62.869 37.4198L60.3047 34.9085L63.8488 34.3916L65.4333 31.1628Z" fill="url(#paint2_linear_3456_14083)"/>
</g>
<path d="M65.4364 32.1479L66.7005 34.7261L69.537 35.1396L67.4867 37.1523L67.9705 39.9858L65.4364 38.6481L62.9024 39.9858L63.3862 37.1523L61.3359 35.1396L64.1664 34.7261L65.4364 32.1479Z" fill="url(#paint3_linear_3456_14083)"/>
<g filter="url(#filter1_d_3456_14083)">
<path d="M34.8318 31.1628L36.4163 34.3916L39.9604 34.9085L37.3961 37.4198L38.0009 40.9708L34.8318 39.2926L31.6627 40.9708L32.2675 37.4198L29.7031 34.9085L33.2472 34.3916L34.8318 31.1628Z" fill="url(#paint4_linear_3456_14083)"/>
</g>
<path d="M34.8349 32.1479L36.1049 34.7261L38.9354 35.1396L36.8851 37.1523L37.369 39.9858L34.8349 38.6481L32.3008 39.9858L32.7846 37.1523L30.7344 35.1396L33.5648 34.7261L34.8349 32.1479Z" fill="url(#paint5_linear_3456_14083)"/>
<g filter="url(#filter2_d_3456_14083)">
<path d="M50.1367 24.1946L52.8462 29.7157L58.9062 30.6035L54.5215 34.9025L55.5557 40.9709L50.1367 38.1069L44.7178 40.9709L45.7519 34.9025L41.3672 30.6035L47.4272 29.7157L50.1367 24.1946Z" fill="url(#paint6_linear_3456_14083)"/>
</g>
<path d="M50.1367 25.8789L52.3019 30.2934L57.1463 30.9988L53.6445 34.4343L54.4731 39.2866L50.1367 37.0003L45.8003 39.2866L46.6289 34.4343L43.1211 30.9988L47.9655 30.2934L50.1367 25.8789Z" fill="url(#paint7_linear_3456_14083)"/>
<g filter="url(#filter3_d_3456_14083)">
<path d="M32.9966 50.7093C32.9966 51.5964 33.7446 52.3095 34.6664 52.3095H35.136C35.3795 52.3095 35.5882 52.5009 35.5882 52.7444V55.6491H34.5099V53.214H32.9966V55.5969C32.9792 56.3622 33.6402 56.9883 34.4229 56.9883H35.6752C36.4579 56.9883 37.1015 56.3622 37.1015 55.5969V52.3095C37.1015 51.5094 36.4231 50.8485 35.5882 50.8485H34.9795C34.7186 50.8659 34.5099 50.6572 34.5099 50.3963V47.2829H35.5882V49.7005H37.1015V47.335C37.1015 46.5697 36.4579 45.9436 35.6578 45.9436H34.4229C33.6402 45.9436 32.9966 46.5697 32.9966 47.335V50.7093ZM40.5558 45.9436V50.7963H39.4426V45.9436H37.8946V56.9709H39.4426V52.1356H40.5558V56.9709H42.1038V45.9436H40.5558ZM45.8295 45.9262H44.3337C43.5684 45.9262 42.9596 46.5523 42.9596 47.3176V55.5969C42.9596 56.3448 43.5684 56.9709 44.3337 56.9709H45.8295C46.5948 56.9709 47.2036 56.3448 47.2036 55.5969V47.3176C47.2036 46.5523 46.5948 45.9262 45.8295 45.9262ZM44.5076 47.2655H45.6382V55.6317H44.5076V47.2655ZM50.8953 45.9262H49.3995C48.6342 45.9262 48.0254 46.5523 48.0254 47.3176V55.5969C48.0254 56.3448 48.6342 56.9709 49.3995 56.9709H50.8953C51.6606 56.9709 52.2694 56.3448 52.2694 55.5969V47.3176C52.2694 46.5523 51.6606 45.9262 50.8953 45.9262ZM49.5734 47.2655H50.704V55.6317H49.5734V47.2655ZM57.0743 50.8659V47.0394C57.0743 46.4306 56.5873 45.9436 55.9611 45.9436H53.1434C53.126 45.9436 53.126 45.9436 53.126 45.961V51.8051C53.126 51.8051 53.126 51.8225 53.1434 51.8225H53.126V56.9709H54.5697V52.8139H55.5611L55.9264 56.9709H57.3874L56.9873 52.9183C56.9526 52.553 56.6395 52.2747 56.2742 52.2747V51.8225H56.6047C56.8656 51.8225 57.0743 51.6138 57.0743 51.3529V50.8659ZM54.5697 47.2133C54.5697 47.1959 54.5871 47.1785 54.5871 47.1785H55.5959C55.6133 47.1785 55.6133 47.1959 55.6133 47.2133V51.1442C55.6133 51.1442 55.6133 51.1616 55.5959 51.1616H54.5871L54.5697 51.1442V47.2133ZM61.3433 45.9436H58.7691L57.7603 56.9709H59.2909L59.517 54.5185H60.5954L60.8215 56.9709H62.3521L61.3433 45.9436ZM59.6387 53.1792L60.004 47.909H60.091L60.4736 53.1792H59.6387ZM65.6131 45.9436V50.7963H64.4999V45.9436H62.9519V56.9709H64.4999V52.1356H65.6131V56.9709H67.1611V45.9436H65.6131Z" fill="white"/>
</g>
<g filter="url(#filter4_d_3456_14083)">
<path d="M39.9709 79.9856V69.4054C39.9709 69.058 39.6866 68.7738 39.3392 68.7738H36.3704V71.2056H37.3179V77.5537V77.5853H35.423V77.5537V62.3941H37.3179V66.7841H39.9393H39.9709V62.4888C39.9709 61.0992 38.8339 59.9622 37.4442 59.9622H35.2966C33.907 59.9622 32.8016 61.0676 32.8016 62.4888V77.4906C32.8016 78.8802 33.907 79.9856 35.2966 79.9856H36.4968C36.6863 80.0172 36.8126 79.8593 36.8126 79.6698V79.0065H37.7917V79.6698C37.7917 79.8593 37.9496 80.0172 38.1391 79.9856H39.9709ZM46.3402 59.9622V77.5853H44.2873V59.9622H41.4765V77.4906C41.4765 78.8802 42.5819 80.0172 43.9715 80.0172H46.6876C48.0772 80.0172 49.1826 78.8802 49.1826 77.4906V59.9622H46.3402ZM57.9374 68.9001V61.9519C57.9374 60.8465 57.0531 59.9622 55.9161 59.9622H50.7997C50.7682 59.9622 50.7682 59.9622 50.7682 59.9938V70.6056C50.7682 70.6056 50.7682 70.6371 50.7997 70.6371H50.7682V79.9856H53.3895V72.4373H55.1897L55.853 79.9856H58.5059L57.7795 72.6268C57.7163 71.9636 57.1479 71.4583 56.4846 71.4583V70.6371H57.0847C57.5584 70.6371 57.9374 70.2581 57.9374 69.7844V68.9001ZM53.3895 62.2677C53.3895 62.2362 53.4211 62.2046 53.4211 62.2046H55.2529C55.2845 62.2046 55.2845 62.2362 55.2845 62.2677V69.4054C55.2845 69.4054 55.2845 69.437 55.2529 69.437H53.4211L53.3895 69.4054V62.2677ZM64.552 59.9622V77.5853H62.4991V59.9622H59.6883V77.4906C59.6883 78.8802 60.7937 80.0172 62.1833 80.0172H64.8994C66.2891 80.0172 67.3944 78.8802 67.3944 77.4906V59.9622H64.552Z" fill="white"/>
</g>
<g style="mix-blend-mode:overlay" opacity="0.21">
<path d="M88.8884 27.2654C81.9393 55.3881 56.6589 76.2262 26.5462 76.2262C23.1594 76.2262 19.833 75.9587 16.5852 75.4601C13.4282 70.3767 10.9062 64.7096 9.04345 58.477C5.14252 45.4585 5.40258 33.7291 5.66869 29.5031C31.5539 21.0267 45.7242 10.4587 50.4961 6.43335C54.8566 10.1121 67.0674 19.2512 88.8884 27.2654Z" fill="white"/>
</g>
<defs>
<filter id="filter0_d_3456_14083" x="57.1642" y="28.0224" width="19.246" height="18.7961" filterUnits="userSpaceOnUse" color-interpolation-filters="sRGB">
<feFlood flood-opacity="0" result="BackgroundImageFix"/>
<feColorMatrix in="SourceAlpha" type="matrix" values="0 0 0 0 0 0 0 0 0 0 0 0 0 0 0 0 0 0 127 0" result="hardAlpha"/>
<feOffset dx="1.35364" dy="1.35364"/>
<feGaussianBlur stdDeviation="2.24705"/>
<feColorMatrix type="matrix" values="0 0 0 0 0 0 0 0 0 0 0 0 0 0 0 0 0 0 0.25 0"/>
<feBlend mode="normal" in2="BackgroundImageFix" result="effect1_dropShadow_3456_14083"/>
<feBlend mode="normal" in="SourceGraphic" in2="effect1_dropShadow_3456_14083" result="shape"/>
</filter>
<filter id="filter1_d_3456_14083" x="26.5627" y="28.0224" width="19.246" height="18.7961" filterUnits="userSpaceOnUse" color-interpolation-filters="sRGB">
<feFlood flood-opacity="0" result="BackgroundImageFix"/>
<feColorMatrix in="SourceAlpha" type="matrix" values="0 0 0 0 0 0 0 0 0 0 0 0 0 0 0 0 0 0 127 0" result="hardAlpha"/>
<feOffset dx="1.35364" dy="1.35364"/>
<feGaussianBlur stdDeviation="2.24705"/>
<feColorMatrix type="matrix" values="0 0 0 0 0 0 0 0 0 0 0 0 0 0 0 0 0 0 0.25 0"/>
<feBlend mode="normal" in2="BackgroundImageFix" result="effect1_dropShadow_3456_14083"/>
<feBlend mode="normal" in="SourceGraphic" in2="effect1_dropShadow_3456_14083" result="shape"/>
</filter>
<filter id="filter2_d_3456_14083" x="35.9707" y="18.7981" width="32.9526" height="32.1899" filterUnits="userSpaceOnUse" color-interpolation-filters="sRGB">
<feFlood flood-opacity="0" result="BackgroundImageFix"/>
<feColorMatrix in="SourceAlpha" type="matrix" values="0 0 0 0 0 0 0 0 0 0 0 0 0 0 0 0 0 0 127 0" result="hardAlpha"/>
<feOffset dx="2.31022" dy="2.31022"/>
<feGaussianBlur stdDeviation="3.85337"/>
<feColorMatrix type="matrix" values="0 0 0 0 0 0 0 0 0 0 0 0 0 0 0 0 0 0 0.3 0"/>
<feBlend mode="normal" in2="BackgroundImageFix" result="effect1_dropShadow_3456_14083"/>
<feBlend mode="normal" in="SourceGraphic" in2="effect1_dropShadow_3456_14083" result="shape"/>
</filter>
<filter id="filter3_d_3456_14083" x="29.3708" y="45.9263" width="41.3991" height="18.2814" filterUnits="userSpaceOnUse" color-interpolation-filters="sRGB">
<feFlood flood-opacity="0" result="BackgroundImageFix"/>
<feColorMatrix in="SourceAlpha" type="matrix" values="0 0 0 0 0 0 0 0 0 0 0 0 0 0 0 0 0 0 127 0" result="hardAlpha"/>
<feOffset dy="3.60972"/>
<feGaussianBlur stdDeviation="1.80486"/>
<feComposite in2="hardAlpha" operator="out"/>
<feColorMatrix type="matrix" values="0 0 0 0 0 0 0 0 0 0 0 0 0 0 0 0 0 0 0.25 0"/>
<feBlend mode="normal" in2="BackgroundImageFix" result="effect1_dropShadow_3456_14083"/>
<feBlend mode="normal" in="SourceGraphic" in2="effect1_dropShadow_3456_14083" result="shape"/>
</filter>
<filter id="filter4_d_3456_14083" x="29.1911" y="59.9622" width="41.8132" height="27.2744" filterUnits="userSpaceOnUse" color-interpolation-filters="sRGB">
<feFlood flood-opacity="0" result="BackgroundImageFix"/>
<feColorMatrix in="SourceAlpha" type="matrix" values="0 0 0 0 0 0 0 0 0 0 0 0 0 0 0 0 0 0 127 0" result="hardAlpha"/>
<feOffset dy="3.60972"/>
<feGaussianBlur stdDeviation="1.80486"/>
<feComposite in2="hardAlpha" operator="out"/>
<feColorMatrix type="matrix" values="0 0 0 0 0 0 0 0 0 0 0 0 0 0 0 0 0 0 0.25 0"/>
<feBlend mode="normal" in2="BackgroundImageFix" result="effect1_dropShadow_3456_14083"/>
<feBlend mode="normal" in="SourceGraphic" in2="effect1_dropShadow_3456_14083" result="shape"/>
</filter>
<linearGradient id="paint0_linear_3456_14083" x1="50.4986" y1="0.00290201" x2="50.4986" y2="107" gradientUnits="userSpaceOnUse">
<stop stop-color="#6167E8"/>
<stop offset="1" stop-color="#3A47AB"/>
</linearGradient>
<linearGradient id="paint1_linear_3456_14083" x1="50.4965" y1="6.43594" x2="50.4965" y2="102.002" gradientUnits="userSpaceOnUse">
<stop stop-color="#6167E8"/>
<stop offset="1" stop-color="#3A47AB"/>
</linearGradient>
<linearGradient id="paint2_linear_3456_14083" x1="65.4333" y1="31.1628" x2="65.4333" y2="40.9708" gradientUnits="userSpaceOnUse">
<stop stop-color="#FFBF2E"/>
<stop offset="1" stop-color="#D07300"/>
</linearGradient>
<linearGradient id="paint3_linear_3456_14083" x1="65.4364" y1="32.1479" x2="65.4364" y2="39.9858" gradientUnits="userSpaceOnUse">
<stop stop-color="#FFE189"/>
<stop offset="1" stop-color="#FFB733"/>
</linearGradient>
<linearGradient id="paint4_linear_3456_14083" x1="34.8318" y1="31.1628" x2="34.8318" y2="40.9708" gradientUnits="userSpaceOnUse">
<stop stop-color="#FFBF2E"/>
<stop offset="1" stop-color="#D07300"/>
</linearGradient>
<linearGradient id="paint5_linear_3456_14083" x1="34.8349" y1="32.1479" x2="34.8349" y2="39.9858" gradientUnits="userSpaceOnUse">
<stop stop-color="#FFE189"/>
<stop offset="1" stop-color="#FFB733"/>
</linearGradient>
<linearGradient id="paint6_linear_3456_14083" x1="50.1367" y1="24.1946" x2="50.1367" y2="40.9709" gradientUnits="userSpaceOnUse">
<stop stop-color="#FFBF2E"/>
<stop offset="1" stop-color="#D07300"/>
</linearGradient>
<linearGradient id="paint7_linear_3456_14083" x1="50.1367" y1="25.8789" x2="50.1367" y2="39.2866" gradientUnits="userSpaceOnUse">
<stop stop-color="#FFE189"/>
<stop offset="1" stop-color="#FFB733"/>
</linearGradient>
</defs>
</svg>
