<svg width="32" height="32" viewBox="0 0 32 32" fill="none" xmlns="http://www.w3.org/2000/svg">
<path fill-rule="evenodd" clip-rule="evenodd" d="M23.3649 9.86136V11.9058C25.6614 12.6226 27.3346 14.7015 27.3346 17.1846V23.7671C27.3346 26.8411 24.7862 29.3334 21.6443 29.3334H10.3597C7.21644 29.3334 4.66797 26.8411 4.66797 23.7671V17.1846C4.66797 14.7015 6.34257 12.6226 8.63768 11.9058V9.86136C8.65123 5.8864 11.9435 2.66669 15.981 2.66669C20.0726 2.66669 23.3649 5.8864 23.3649 9.86136ZM16.0081 4.98541C18.7584 4.98541 20.9939 7.17164 20.9939 9.86136V11.6183H11.0087V9.83486C11.0222 7.15839 13.2577 4.98541 16.0081 4.98541ZM17.1868 21.9399C17.1868 22.5892 16.6584 23.1059 15.9945 23.1059C15.3442 23.1059 14.8158 22.5892 14.8158 21.9399V18.9985C14.8158 18.3625 15.3442 17.8457 15.9945 17.8457C16.6584 17.8457 17.1868 18.3625 17.1868 18.9985V21.9399Z" fill="#A0A2A6"/>
</svg>
