<svg width="252" height="292" viewBox="0 0 252 292" fill="none" xmlns="http://www.w3.org/2000/svg">
<rect x="1" y="1" width="250" height="290" rx="10" fill="currentColor" stroke="currentColor"/>
<rect x="26" y="26" width="200" height="40" rx="4" fill="white"/>
<rect x="36" y="36" width="80" height="6" rx="3" fill="#F3F4F6"/>
<rect x="36" y="50" width="150" height="6" rx="3" fill="#F3F4F6"/>
<circle cx="206" cy="46" r="10" fill="#F3F4F6"/>
<rect x="26" y="76" width="200" height="40" rx="4" fill="white"/>
<rect x="36" y="86" width="80" height="6" rx="3" fill="#F3F4F6"/>
<rect x="36" y="100" width="150" height="6" rx="3" fill="#F3F4F6"/>
<circle cx="206" cy="96" r="10" fill="#F3F4F6"/>
<rect x="26" y="126" width="200" height="40" rx="4" fill="white"/>
<rect x="36" y="136" width="80" height="6" rx="3" fill="#F3F4F6"/>
<rect x="36" y="150" width="150" height="6" rx="3" fill="#F3F4F6"/>
<circle cx="206" cy="146" r="10" fill="#F3F4F6"/>
<rect x="26" y="176" width="200" height="40" rx="4" fill="white"/>
<rect x="36" y="186" width="80" height="6" rx="3" fill="#F3F4F6"/>
<rect x="36" y="200" width="150" height="6" rx="3" fill="#F3F4F6"/>
<circle cx="206" cy="196" r="10" fill="#F3F4F6"/>
<rect x="26" y="226" width="200" height="40" rx="4" fill="white"/>
<rect x="36" y="236" width="80" height="6" rx="3" fill="#F3F4F6"/>
<rect x="36" y="250" width="150" height="6" rx="3" fill="#F3F4F6"/>
<circle cx="206" cy="246" r="10" fill="#F3F4F6"/>
</svg>
