<svg width="18" height="19" viewBox="0 0 18 19" fill="none" xmlns="http://www.w3.org/2000/svg">
<g clip-path="url(#clip0_344_8677)">
<path d="M16.4762 8.498C17.1521 8.99488 17.1521 10.0049 16.4762 10.5017C15.3579 11.3237 14.7889 12.7027 14.9986 14.0747C15.1257 14.9067 14.4067 15.6257 13.5747 15.4986C12.2027 15.2889 10.8237 15.8579 10.0017 16.9762C9.50486 17.6521 8.49488 17.6521 7.998 16.9762C7.17599 15.8579 5.79707 15.2889 4.42505 15.4986C3.59307 15.6257 2.87403 14.9067 3.00115 14.0747C3.21076 12.7027 2.64191 11.3237 1.52358 10.5017C0.847608 10.0049 0.847608 8.99488 1.52358 8.498C2.64191 7.67599 3.21076 6.29707 3.00115 4.92505C2.87403 4.09307 3.59307 3.37403 4.42505 3.50115C5.79707 3.71076 7.17599 3.14191 7.998 2.02358C8.49488 1.34761 9.50486 1.34761 10.0017 2.02358C10.8237 3.14191 12.2027 3.71076 13.5747 3.50115C14.4067 3.37403 15.1257 4.09307 14.9986 4.92505C14.7889 6.29707 15.3579 7.67599 16.4762 8.498Z" stroke="black" stroke-width="1.28571" stroke-linecap="round" stroke-linejoin="round"/>
<path d="M8.99988 12.7664C10.8039 12.7664 12.2664 11.3039 12.2664 9.4999C12.2664 7.69586 10.8039 6.2334 8.99988 6.2334C7.19586 6.2334 5.7334 7.69586 5.7334 9.4999C5.7334 11.3039 7.19586 12.7664 8.99988 12.7664Z" stroke="black" stroke-width="1.28571" stroke-linecap="round" stroke-linejoin="round"/>
</g>
<defs>
<clipPath id="clip0_344_8677">
<rect width="18" height="18" fill="white" transform="translate(0 0.5)"/>
</clipPath>
</defs>
</svg>
