<?xml version="1.0" encoding="UTF-8" standalone="no"?>
<!-- Created with Inkscape (http://www.inkscape.org/) -->

<svg
   version="1.1"
   id="svg2"
   width="1440"
   height="1440"
   viewBox="0 0 1440 1440"
   sodipodi:docname="Shoorah_Shape_4.ai"
   xmlns:inkscape="http://www.inkscape.org/namespaces/inkscape"
   xmlns:sodipodi="http://sodipodi.sourceforge.net/DTD/sodipodi-0.dtd"
   xmlns="http://www.w3.org/2000/svg"
   xmlns:svg="http://www.w3.org/2000/svg">
  <defs
     id="defs6">
    <clipPath
       clipPathUnits="userSpaceOnUse"
       id="clipPath16">
      <path
         d="M 0,1080 H 1080 V 0 H 0 Z"
         id="path14" />
    </clipPath>
  </defs>
  <sodipodi:namedview
     id="namedview4"
     pagecolor="#ffffff"
     bordercolor="#000000"
     borderopacity="0.25"
     inkscape:showpageshadow="2"
     inkscape:pageopacity="0.0"
     inkscape:pagecheckerboard="0"
     inkscape:deskcolor="#d1d1d1" />
  <g
     id="g8"
     inkscape:groupmode="layer"
     inkscape:label="Shoorah_Shape_4"
     transform="matrix(1.3333333,0,0,-1.3333333,0,1440)">
    <g
       id="g10">
      <g
         id="g12"
         clip-path="url(#clipPath16)">
        <g
           id="g18"
           transform="translate(105.6093,714.7515)">
          <path
             d="m 0,0 c 27.746,53.893 58,114.862 89.892,174.906 19.243,36.211 50.711,59.697 89.275,70.514 128.976,36.192 259.264,59.099 391.769,65.423 42.497,2.025 78.728,-13.459 108.499,-42.613 91.898,-89.931 171.647,-190.293 241.466,-299.081 25.337,-39.412 27.227,-83.433 14.365,-129.073 -33.877,-119.818 -79.421,-235.567 -137.324,-346.997 -23.755,-45.659 -59.909,-75.893 -110.081,-90.104 -125.294,-35.478 -253.094,-55.589 -382.476,-63.167 -48.416,-2.815 -89.66,12.36 -122.805,45.698 -90.181,90.74 -169.45,189.888 -234.97,299.177 -24.834,41.418 -27.996,86.113 -12.263,132.332 C -44.619,-124.214 -23.255,-65.886 0,0"
             style="fill:#c9c9c9;fill-opacity:1;fill-rule:nonzero;stroke:none"
             id="path20" />
        </g>
      </g>
    </g>
  </g>
</svg>
