<?xml version="1.0" encoding="UTF-8"?><svg id="Layer_1" xmlns="http://www.w3.org/2000/svg" viewBox="0 0 464.65 372.8"><path d="m35.12,200.9C22.12,73.5,123.42,2,232.32,2s210.2,71.5,197.2,198.9" fill="#21bdad" stroke-width="0"/><path d="m417.72,213.5c0,92.1-83,157.3-185.4,157.3S47.02,305.6,47.02,213.5,130.02,37.5,232.42,37.5s185.3,84,185.3,176h0Z" fill="#fff" stroke-width="0"/><path d="m417.72,213.5c0,92.1-83,157.3-185.4,157.3S47.02,305.6,47.02,213.5,130.02,37.5,232.42,37.5s185.3,84,185.3,176h0Z" fill="none" stroke="#020500" stroke-miterlimit="10" stroke-width="4"/><path d="m35.12,200.9C22.12,73.5,123.42,2,232.32,2s210.2,71.5,197.2,198.9" fill="none" stroke="#020500" stroke-miterlimit="10" stroke-width="4"/><path d="m232.32,17.4c-126.3,2.6-170.2,97.8-176,116.2-6,19.1-17.7,73.8,78.1-5.6,0,0-30.9,89.2,70.8,9,0,0-1.2,28.2,27.1,28.2s27.1-28.2,27.1-28.2c101.7,80.2,70.8-9,70.8-9,95.8,79.5,84.1,24.7,78.1,5.6-5.8-18.4-49.7-113.6-176-116.2Z" fill="#acecd0" stroke-width="0"/><path d="m232.32,17.4c-126.3,2.6-170.2,97.8-176,116.2-6,19.1-17.7,73.8,78.1-5.6,0,0-30.9,89.2,70.8,9,0,0-1.2,28.2,27.1,28.2s27.1-28.2,27.1-28.2c101.7,80.2,70.8-9,70.8-9,95.8,79.5,84.1,24.7,78.1,5.6-5.8-18.4-49.7-113.6-176-116.2Z" fill="none" stroke="#020500" stroke-linecap="round" stroke-linejoin="round" stroke-width="4"/><circle cx="328.02" cy="271.9" r="27" fill="#acecd0" stroke-width="0"/><circle cx="136.62" cy="271.9" r="27" fill="#acecd0" stroke-width="0"/><path d="m18.32,300.9c14.8.5,29.5-.8,44-3.9,2.3-.5,3.9-2.9,3.7-5.6-3.9-43.5-7.8-87-11.7-130.4-.2-2.7-2.2-4.8-4.6-4.9-14.8-.5-29.5.8-44,3.9-2.3.5-3.9,2.9-3.7,5.6,3.9,43.5,7.8,87,11.6,130.4.3,2.7,2.3,4.8,4.7,4.9Z" fill="#21bdad" stroke-width="0"/><path d="m18.32,300.9c14.8.5,29.5-.8,44-3.9,2.3-.5,3.9-2.9,3.7-5.6-3.9-43.5-7.8-87-11.7-130.4-.2-2.7-2.2-4.8-4.6-4.9-14.8-.5-29.5.8-44,3.9-2.3.5-3.9,2.9-3.7,5.6,3.9,43.5,7.8,87,11.6,130.4.3,2.7,2.3,4.8,4.7,4.9Z" fill="none" stroke="#020500" stroke-linecap="round" stroke-linejoin="round" stroke-width="4"/><path d="m446.42,300.9c-14.8.5-29.5-.8-44-3.9-2.3-.5-3.9-2.9-3.6-5.6,3.9-43.5,7.8-87,11.6-130.4.2-2.7,2.2-4.8,4.6-4.9,14.8-.5,29.5.8,44,3.9,2.3.5,3.9,2.9,3.6,5.6-3.9,43.5-7.8,87-11.6,130.4-.2,2.7-2.2,4.8-4.6,4.9Z" fill="#21bdad" stroke-width="0"/><path d="m446.42,300.9c-14.8.5-29.5-.8-44-3.9-2.3-.5-3.9-2.9-3.6-5.6,3.9-43.5,7.8-87,11.6-130.4.2-2.7,2.2-4.8,4.6-4.9,14.8-.5,29.5.8,44,3.9,2.3.5,3.9,2.9,3.6,5.6-3.9,43.5-7.8,87-11.6,130.4-.2,2.7-2.2,4.8-4.6,4.9Z" fill="none" stroke="#020500" stroke-linecap="round" stroke-linejoin="round" stroke-width="4"/><path d="m329.12,200.1c-27.9,4-42.3-9.9-42.3-9.9" fill="none" stroke="#020500" stroke-linecap="round" stroke-linejoin="round" stroke-width="4"/><path d="m325.32,213.4s-31.7,14.2-31,19.2,34.7,10.8,34.7,10.8" fill="none" stroke="#020500" stroke-linecap="round" stroke-linejoin="round" stroke-width="4"/><path d="m135.62,200.1c27.9,4,42.3-9.9,42.3-9.9" fill="none" stroke="#020500" stroke-linecap="round" stroke-linejoin="round" stroke-width="4"/><path d="m139.32,213.4s31.7,14.2,31,19.2-34.7,10.8-34.7,10.8" fill="none" stroke="#020500" stroke-linecap="round" stroke-linejoin="round" stroke-width="4"/><path d="m189.12,268.4c7.2,0,7.2,9.1,14.4,9.1s7.2-9.1,14.4-9.1,7.2,9.1,14.4,9.1,7.2-9.1,14.4-9.1,7.2,9.1,14.4,9.1,7.2-9.1,14.4-9.1" fill="none" stroke="#020500" stroke-linecap="round" stroke-linejoin="round" stroke-width="4"/></svg>