<?xml version="1.0" encoding="UTF-8"?><svg id="Layer_1" xmlns="http://www.w3.org/2000/svg" viewBox="0 0 490.66 398.8"><path d="m33.28,215.4c-5.8-57.2,9.6-108,44.7-146.9C117.28,25,178.38,0,245.38,0s128.1,25,167.4,68.6c35.1,38.9,50.6,89.7,44.7,146.9l-29.8-3c5-48.6-7.9-91.3-37.1-123.7-33.7-37.3-86.6-58.7-145.2-58.7s-111.5,21.4-145.2,58.7c-29.3,32.4-42.1,75.2-37.1,123.7l-29.8,2.9h0Z" fill="#fff" stroke-width="0"/><path d="m245.38,398.8c-53.7,0-103.7-16.9-140.7-47.6-38.5-31.9-59.7-76.2-59.7-124.7s21.5-97.1,58.9-133.3c38.4-37.2,88.7-57.7,141.5-57.7s103.1,20.5,141.5,57.7c33.5,32.5,54.3,74.9,58.2,118.3h.7v15c0,48.5-21.2,92.8-59.7,124.7-37,30.7-87,47.6-140.7,47.6h0Z" fill="#fff" stroke-width="0"/><path d="m245.38,398.8c-53.7,0-103.7-16.9-140.7-47.6-38.5-31.9-59.7-76.2-59.7-124.7s21.5-97.1,58.9-133.3c38.4-37.2,88.7-57.7,141.5-57.7s103.1,20.5,141.5,57.7c33.5,32.5,54.3,74.9,58.2,118.3h.7v15c0,48.5-21.2,92.8-59.7,124.7-37,30.7-87,47.6-140.7,47.6h0Z" fill="#fff" stroke-width="0"/><path d="m33.28,215.4c-5.8-57.2,9.6-108,44.7-146.9C117.28,25,178.38,0,245.38,0s128.1,25,167.4,68.6c35.1,38.9,50.6,89.7,44.7,146.9l-29.8-3c5-48.6-7.9-91.3-37.1-123.7-33.7-37.3-86.6-58.7-145.2-58.7s-111.5,21.4-145.2,58.7c-29.3,32.4-42.1,75.2-37.1,123.7l-29.8,2.9h0Z" fill="#fff" stroke-width="0"/><path d="m333.78,198.4c-8.7,0-23.4-2.7-53-23.5-1.3,2.2-3,4.3-4.9,6.3-5.2,5.5-14.8,12-30.5,12s-25.3-6.5-30.5-12c-1.9-2-3.5-4.1-4.9-6.3-29.6,20.8-44.2,23.5-53,23.5-9.6,0-17.8-4-22.9-11.2-2.5-3.6-4.3-7.8-5.2-12.8-18.3,13-37,23.3-51.6,23.3-8.8,0-16.4-3.6-21.2-10.2-7.2-9.8-7.5-25.1-1-45.5,4.3-13.6,19-43.6,46.7-70.3,37.1-35.7,86.7-55.2,143.3-56.4h.6c56.6,1.2,106.1,20.7,143.3,56.4,27.8,26.7,42.4,56.8,46.7,70.3,6.5,20.4,6.1,35.7-1,45.5-4.8,6.6-12.3,10.2-21.2,10.2h0c-14.6,0-33.3-10.3-51.6-23.3-.9,4.6-2.5,9-5.2,12.8-5.2,7.2-13.3,11.2-22.9,11.2h0Z" fill="#fff" stroke-width="0"/><path d="m333.78,198.4c-8.7,0-23.4-2.7-53-23.5-1.3,2.2-3,4.3-4.9,6.3-5.2,5.5-14.8,12-30.5,12s-25.3-6.5-30.5-12c-1.9-2-3.5-4.1-4.9-6.3-29.6,20.8-44.2,23.5-53,23.5-9.6,0-17.8-4-22.9-11.2-2.5-3.6-4.3-7.8-5.2-12.8-18.3,13-37,23.3-51.6,23.3-8.8,0-16.4-3.6-21.2-10.2-7.2-9.8-7.5-25.1-1-45.5,4.3-13.6,19-43.6,46.7-70.3,37.1-35.7,86.7-55.2,143.3-56.4h.6c56.6,1.2,106.1,20.7,143.3,56.4,27.8,26.7,42.4,56.8,46.7,70.3,6.5,20.4,6.1,35.7-1,45.5-4.8,6.6-12.3,10.2-21.2,10.2h0c-14.6,0-33.3-10.3-51.6-23.3-.9,4.6-2.5,9-5.2,12.8-5.2,7.2-13.3,11.2-22.9,11.2h0Z" fill="#fff" stroke-width="0"/><path d="m341.08,326.8c-23.2,0-42-18.9-42-42s18.9-42,42-42,42,18.9,42,42-18.8,42-42,42Z" fill="#fff" stroke-width="0"/><circle cx="149.68" cy="284.84" r="42" fill="#fff" stroke-width="0"/><path d="m326.08,283.3c-18.2,0-32.5-17.6-32.5-40s14.3-40,32.5-40,32.5,17.6,32.5,40-14.2,40-32.5,40Z" fill="#fff" stroke-width="0"/><path d="m164.68,283.3c-18.2,0-32.5-17.6-32.5-40s14.3-40,32.5-40,32.5,17.6,32.5,40-14.3,40-32.5,40Z" fill="#fff" stroke-width="0"/><path d="m37.28,328.9c-2.1,0-4.3,0-6.4-.1-10-.3-18.1-8.3-19-18.5L.08,179.9c-.9-10.3,5.7-19.5,15.5-21.6,13.5-2.9,27.4-4.4,41.2-4.4,2.1,0,4.3,0,6.4.1,10,.3,18.1,8.3,19,18.5l11.6,130.4c.9,10.3-5.7,19.5-15.5,21.6-13.4,3-27.2,4.4-41,4.4h0Z" fill="#fff" stroke-width="0"/><path d="m37.28,328.9c-2.1,0-4.3,0-6.4-.1-10-.3-18.1-8.3-19-18.5L.08,179.9c-.9-10.3,5.7-19.5,15.5-21.6,13.5-2.9,27.4-4.4,41.2-4.4,2.1,0,4.3,0,6.4.1,10,.3,18.1,8.3,19,18.5l11.6,130.4c.9,10.3-5.7,19.5-15.5,21.6-13.4,3-27.2,4.4-41,4.4h0Z" fill="#fff" stroke-width="0"/><path d="m453.48,328.9c-13.8,0-27.7-1.5-41.2-4.4-9.7-2.1-16.4-11.3-15.5-21.6l11.7-130.4c.9-10.2,9.1-18.2,19-18.5,2.1-.1,4.3-.1,6.4-.1,13.8,0,27.7,1.5,41.2,4.4,9.7,2.1,16.4,11.3,15.5,21.6l-11.7,130.4c-.9,10.2-9.1,18.2-19,18.5-2.1.1-4.2.1-6.4.1Z" fill="#fff" stroke-width="0"/><path d="m453.48,328.9c-13.8,0-27.7-1.5-41.2-4.4-9.7-2.1-16.4-11.3-15.5-21.6l11.7-130.4c.9-10.2,9.1-18.2,19-18.5,2.1-.1,4.3-.1,6.4-.1,13.8,0,27.7,1.5,41.2,4.4,9.7,2.1,16.4,11.3,15.5,21.6l-11.7,130.4c-.9,10.2-9.1,18.2-19,18.5-2.1.1-4.2.1-6.4.1Z" fill="#fff" stroke-width="0"/><path d="m317.28,236.6l-22.2-20.1c18.9-20.9,47.4-22.2,50.6-22.3l.7,30c-.1,0-18.6.8-29.1,12.4h0Z" fill="#fff" stroke-width="0"/><path d="m173.48,236.6c-10.5-11.6-29-12.4-29.2-12.4l.8-30c3.2.1,31.7,1.4,50.6,22.3l-22.2,20.1h0Z" fill="#fff" stroke-width="0"/><path d="m215.38,317.9c-4.4,0-8.6-1.6-11.7-4.4-3.4-3.2-5.3-7.6-5.3-12.5,0-20.2,22-37.9,47.1-37.9s47.1,17.7,47.1,37.9c0,9.7-7.3,17-17,17-4.1,0-8-1.3-12.4-2.8-5.1-1.7-11.4-3.9-17.6-3.9s-12.5,2.2-17.6,3.9c-4.6,1.4-8.5,2.7-12.6,2.7h0Z" fill="#fff" stroke-width="0"/><path d="m48.18,213.9C35.18,86.4,136.48,15,245.38,15s210.2,71.5,197.2,198.9" fill="#21bdad" stroke-width="0"/><path d="m430.78,226.5c0,92.1-83,157.3-185.4,157.3S59.98,318.5,59.98,226.5,142.98,50.5,245.38,50.5s185.4,83.9,185.4,176h0Z" fill="#fff" stroke-width="0"/><path d="m430.78,226.5c0,92.1-83,157.3-185.4,157.3S59.98,318.5,59.98,226.5,142.98,50.5,245.38,50.5s185.4,83.9,185.4,176h0Z" fill="none" stroke="#020500" stroke-miterlimit="10" stroke-width="4"/><path d="m48.18,213.9C35.18,86.4,136.48,15,245.38,15s210.2,71.5,197.2,198.9" fill="none" stroke="#020500" stroke-miterlimit="10" stroke-width="4"/><path d="m245.38,30.4c-126.3,2.6-170.2,97.8-176.1,116.2-6,19.1-17.7,73.8,78.1-5.6,0,0-30.9,89.2,70.8,9,0,0-1.2,28.2,27.1,28.2s27.1-28.2,27.1-28.2c101.7,80.2,70.8-9,70.8-9,95.8,79.5,84.1,24.7,78.1,5.6-5.7-18.4-49.6-113.6-175.9-116.2Z" fill="#acecd0" stroke-width="0"/><path d="m245.38,30.4c-126.3,2.6-170.2,97.8-176.1,116.2-6,19.1-17.7,73.8,78.1-5.6,0,0-30.9,89.2,70.8,9,0,0-1.2,28.2,27.1,28.2s27.1-28.2,27.1-28.2c101.7,80.2,70.8-9,70.8-9,95.8,79.5,84.1,24.7,78.1,5.6-5.7-18.4-49.6-113.6-175.9-116.2Z" fill="none" stroke="#020500" stroke-linecap="round" stroke-linejoin="round" stroke-width="4"/><circle cx="341.08" cy="284.8" r="27" fill="#acecd0" stroke-width="0"/><circle cx="149.68" cy="284.8" r="27" fill="#acecd0" stroke-width="0"/><ellipse cx="326.08" cy="243.3" rx="17.5" ry="25" fill="#020500" stroke-width="0"/><ellipse cx="164.68" cy="243.3" rx="17.5" ry="25" fill="#020500" stroke-width="0"/><path d="m31.28,313.8c14.8.5,29.5-.8,44-3.9,2.3-.5,3.9-2.9,3.7-5.6-3.9-43.5-7.8-87-11.7-130.4-.2-2.7-2.2-4.8-4.6-4.9-14.8-.5-29.5.8-44,3.9-2.3.5-3.9,2.9-3.6,5.6,3.9,43.5,7.8,87,11.6,130.4.3,2.8,2.3,4.8,4.6,4.9Z" fill="#21bdad" stroke-width="0"/><path d="m31.28,313.8c14.8.5,29.5-.8,44-3.9,2.3-.5,3.9-2.9,3.7-5.6-3.9-43.5-7.8-87-11.7-130.4-.2-2.7-2.2-4.8-4.6-4.9-14.8-.5-29.5.8-44,3.9-2.3.5-3.9,2.9-3.6,5.6,3.9,43.5,7.8,87,11.6,130.4.3,2.8,2.3,4.8,4.6,4.9Z" fill="none" stroke="#020500" stroke-linecap="round" stroke-linejoin="round" stroke-width="4"/><path d="m459.48,313.8c-14.8.5-29.5-.8-44-3.9-2.3-.5-3.9-2.9-3.6-5.6,3.9-43.5,7.8-87,11.6-130.4.2-2.7,2.2-4.8,4.6-4.9,14.8-.5,29.5.8,44,3.9,2.3.5,3.9,2.9,3.6,5.6-3.9,43.5-7.8,87-11.6,130.4-.3,2.8-2.3,4.8-4.6,4.9Z" fill="#21bdad" stroke-width="0"/><path d="m459.48,313.8c-14.8.5-29.5-.8-44-3.9-2.3-.5-3.9-2.9-3.6-5.6,3.9-43.5,7.8-87,11.6-130.4.2-2.7,2.2-4.8,4.6-4.9,14.8-.5,29.5.8,44,3.9,2.3.5,3.9,2.9,3.6,5.6-3.9,43.5-7.8,87-11.6,130.4-.3,2.8-2.3,4.8-4.6,4.9Z" fill="none" stroke="#020500" stroke-linecap="round" stroke-linejoin="round" stroke-width="4"/><path d="m306.18,226.5c15.2-16.7,39.9-17.3,39.9-17.3" fill="none" stroke="#020500" stroke-linecap="round" stroke-linejoin="round" stroke-width="4"/><path d="m184.58,226.5c-15.2-16.7-39.9-17.3-39.9-17.3" fill="none" stroke="#020500" stroke-linecap="round" stroke-linejoin="round" stroke-width="4"/><path d="m277.48,301c0,6.4-14.4-4.8-32.1-4.8s-32.1,11.1-32.1,4.8c0-11,14.4-22.9,32.1-22.9s32.1,11.9,32.1,22.9Z" fill="#020500" stroke-width="0"/></svg>