<?xml version="1.0" encoding="UTF-8"?><svg id="Layer_1" xmlns="http://www.w3.org/2000/svg" viewBox="0 0 464.65 372.8"><path d="m35.12,200.9C22.12,73.5,123.42,2,232.32,2s210.2,71.5,197.2,198.9" fill="#d97f56" stroke-width="0"/><path d="m417.72,213.5c0,92.1-83,157.3-185.4,157.3S47.02,305.6,47.02,213.5,130.02,37.5,232.42,37.5s185.3,84,185.3,176h0Z" fill="#fff" stroke-width="0"/><path d="m417.72,213.5c0,92.1-83,157.3-185.4,157.3S47.02,305.6,47.02,213.5,130.02,37.5,232.42,37.5s185.3,84,185.3,176h0Z" fill="none" stroke="#020500" stroke-miterlimit="10" stroke-width="4"/><path d="m35.12,200.9C22.12,73.5,123.42,2,232.32,2s210.2,71.5,197.2,198.9" fill="none" stroke="#020500" stroke-miterlimit="10" stroke-width="4"/><path d="m232.32,17.4c-126.3,2.6-170.2,97.8-176,116.2-6,19.1-17.7,73.8,78.1-5.6,0,0-30.9,89.2,70.8,9,0,0-1.2,28.2,27.1,28.2s27.1-28.2,27.1-28.2c101.7,80.2,70.8-9,70.8-9,95.8,79.5,84.1,24.7,78.1,5.6-5.8-18.4-49.7-113.6-176-116.2Z" fill="#f6e6cf" stroke-width="0"/><path d="m232.32,17.4c-126.3,2.6-170.2,97.8-176,116.2-6,19.1-17.7,73.8,78.1-5.6,0,0-30.9,89.2,70.8,9,0,0-1.2,28.2,27.1,28.2s27.1-28.2,27.1-28.2c101.7,80.2,70.8-9,70.8-9,95.8,79.5,84.1,24.7,78.1,5.6-5.8-18.4-49.7-113.6-176-116.2Z" fill="none" stroke="#020500" stroke-linecap="round" stroke-linejoin="round" stroke-width="4"/><circle cx="328.02" cy="271.9" r="27" fill="#f6e6cf" stroke-width="0"/><circle cx="136.62" cy="271.9" r="27" fill="#f6e6cf" stroke-width="0"/><ellipse cx="313.02" cy="230.4" rx="17.5" ry="25" fill="#020500" stroke-width="0"/><ellipse cx="151.62" cy="230.4" rx="17.5" ry="25" fill="#020500" stroke-width="0"/><path d="m257.12,279.3c-9.3-17-39.9-16.6-49.6,0" fill="none" stroke="#020500" stroke-linecap="round" stroke-linejoin="round" stroke-width="4"/><path d="m18.32,300.9c14.8.5,29.5-.8,44-3.9,2.3-.5,3.9-2.9,3.7-5.6-3.9-43.5-7.8-87-11.7-130.4-.2-2.7-2.2-4.8-4.6-4.9-14.8-.5-29.5.8-44,3.9-2.3.5-3.9,2.9-3.7,5.6,3.9,43.5,7.8,87,11.6,130.4.3,2.7,2.3,4.8,4.7,4.9Z" fill="#d97f56" stroke-width="0"/><path d="m18.32,300.9c14.8.5,29.5-.8,44-3.9,2.3-.5,3.9-2.9,3.7-5.6-3.9-43.5-7.8-87-11.7-130.4-.2-2.7-2.2-4.8-4.6-4.9-14.8-.5-29.5.8-44,3.9-2.3.5-3.9,2.9-3.7,5.6,3.9,43.5,7.8,87,11.6,130.4.3,2.7,2.3,4.8,4.7,4.9Z" fill="none" stroke="#020500" stroke-linecap="round" stroke-linejoin="round" stroke-width="4"/><path d="m446.42,300.9c-14.8.5-29.5-.8-44-3.9-2.3-.5-3.9-2.9-3.6-5.6,3.9-43.5,7.8-87,11.6-130.4.2-2.7,2.2-4.8,4.6-4.9,14.8-.5,29.5.8,44,3.9,2.3.5,3.9,2.9,3.6,5.6-3.9,43.5-7.8,87-11.6,130.4-.2,2.7-2.2,4.8-4.6,4.9Z" fill="#d97f56" stroke-width="0"/><path d="m446.42,300.9c-14.8.5-29.5-.8-44-3.9-2.3-.5-3.9-2.9-3.6-5.6,3.9-43.5,7.8-87,11.6-130.4.2-2.7,2.2-4.8,4.6-4.9,14.8-.5,29.5.8,44,3.9,2.3.5,3.9,2.9,3.6,5.6-3.9,43.5-7.8,87-11.6,130.4-.2,2.7-2.2,4.8-4.6,4.9Z" fill="none" stroke="#020500" stroke-linecap="round" stroke-linejoin="round" stroke-width="4"/><line x1="301.02" y1="200.5" x2="339.32" y2="214.9" fill="none" stroke="#020500" stroke-linecap="round" stroke-linejoin="round" stroke-width="4"/><line x1="163.72" y1="200.5" x2="125.42" y2="214.9" fill="none" stroke="#020500" stroke-linecap="round" stroke-linejoin="round" stroke-width="4"/><path d="m128.02,266.1c-1.8,5.9,1.3,11.4,6.9,12.8,7.7,1.9,12.8-4.8,11-10.7-3.4-11.1,2.5-18.8.3-18.5-9.2,1-16.3,10.5-18.2,16.4h0Z" fill="#fff" stroke-width="0"/><path d="m128.02,266.1c-1.8,5.9,1.3,11.4,6.9,12.8,7.7,1.9,12.8-4.8,11-10.7-3.4-11.1,2.5-18.8.3-18.5-9.2,1-16.3,10.5-18.2,16.4h0Z" fill="none" stroke="#020500" stroke-linecap="round" stroke-linejoin="round" stroke-width="4"/><path d="m135.12,313c0,6.2,4.6,10.1,10.3,10.1s10.3-3.9,10.3-10.1-8.1-20.1-10.3-20.1c-1.8,0-10.3,13.9-10.3,20.1Z" fill="#fff" stroke-width="0"/><path d="m135.12,313c0,6.2,4.6,10.1,10.3,10.1s10.3-3.9,10.3-10.1-8.1-20.1-10.3-20.1c-1.8,0-10.3,13.9-10.3,20.1Z" fill="none" stroke="#020500" stroke-linecap="round" stroke-linejoin="round" stroke-width="4"/><path d="m336.62,266.1c1.9,5.9-1.3,11.4-6.9,12.8-7.7,1.9-12.8-4.8-11-10.7,3.5-11.1-2.5-18.8-.3-18.5,9.3,1,16.4,10.5,18.2,16.4h0Z" fill="#fff" stroke-width="0"/><path d="m336.62,266.1c1.9,5.9-1.3,11.4-6.9,12.8-7.7,1.9-12.8-4.8-11-10.7,3.5-11.1-2.5-18.8-.3-18.5,9.3,1,16.4,10.5,18.2,16.4h0Z" fill="none" stroke="#020500" stroke-linecap="round" stroke-linejoin="round" stroke-width="4"/><path d="m329.52,313c0,6.2-4.6,10.1-10.3,10.1s-10.3-3.9-10.3-10.1,8.1-20.1,10.3-20.1c1.9,0,10.3,13.9,10.3,20.1Z" fill="#fff" stroke-width="0"/><path d="m329.52,313c0,6.2-4.6,10.1-10.3,10.1s-10.3-3.9-10.3-10.1,8.1-20.1,10.3-20.1c1.9,0,10.3,13.9,10.3,20.1Z" fill="none" stroke="#020500" stroke-linecap="round" stroke-linejoin="round" stroke-width="4"/></svg>