<?xml version="1.0" encoding="UTF-8" standalone="no"?>
<!-- Created with Inkscape (http://www.inkscape.org/) -->

<svg
   version="1.1"
   id="svg2"
   width="1440"
   height="1440"
   viewBox="0 0 1440 1440"
   docname="Shoorah_Shape_2.ai"
   inkscape="http://www.inkscape.org/namespaces/inkscape"
   sodipodi="http://sodipodi.sourceforge.net/DTD/sodipodi-0.dtd"
   xmlns="http://www.w3.org/2000/svg"
   xmlns:svg="http://www.w3.org/2000/svg">
  <defs
     id="defs6">
    <clipPath
       clipPathUnits="userSpaceOnUse"
       id="clipPath16">
      <path
         d="M 0,1080 H 1080 V 0 H 0 Z"
         id="path14" />
    </clipPath>
  </defs>
  <sodipodi:namedview
     id="namedview4"
     pagecolor="#ffffff"
     bordercolor="#000000"
     borderopacity="0.25"
     inkscape:showpageshadow="2"
     inkscape:pageopacity="0.0"
     inkscape:pagecheckerboard="0"
     inkscape:deskcolor="#d1d1d1" />
  <g
     id="g8"
     inkscape:groupmode="layer"
     inkscape:label="Shoorah_Shape_2"
     transform="matrix(1.3333333,0,0,-1.3333333,0,1440)">
    <g
       id="g10">
      <g
         id="g12"
         clip-path="url(#clipPath16)">
        <g
           id="g18"
           transform="translate(873.2513,202.354)">
          <path
             d="m 0,0 c -129.901,-41.799 -260.349,-82.769 -391.324,-122.891 -126.585,-38.821 -262.742,27.307 -302.694,146.674 -41.535,123.569 -82.562,247.232 -123.004,370.989 -38.915,119.536 30.661,246.083 154.079,283.642 127.961,38.953 255.412,78.736 382.297,119.329 C -158.283,836.885 -26.045,773.489 16.056,655.196 59.532,532.607 103.536,410.131 148.086,287.75 191.223,169.684 125.604,40.404 0,0"
             style="fill:#c9c9c9;fill-opacity:1;fill-rule:nonzero;stroke:none"
             id="path20" />
        </g>
      </g>
    </g>
  </g>
</svg>
