<svg width="24" height="24" viewBox="0 0 24 24" fill="none" xmlns="http://www.w3.org/2000/svg">
<path d="M1.69922 19.85C1.69922 20.95 2.59922 21.8 3.64922 21.8H5.59922V12H3.69922C2.59922 12 1.74922 12.9 1.74922 13.95L1.69922 19.85Z" fill="#888BEB" stroke="#18202F" stroke-width="2" stroke-linecap="round" stroke-linejoin="round"/>
<path d="M5.65039 12V21.8L6.90039 20.55C7.35039 20.1 7.60039 19.5 7.60039 18.9V14.5C7.60039 13.9 7.30039 13.3 6.80039 12.95L5.65039 12Z" fill="#B6C0F3" stroke="#18202F" stroke-width="2" stroke-linecap="round" stroke-linejoin="round"/>
<path d="M22.3004 19.85C22.3004 20.95 21.4004 21.8 20.3504 21.8H18.4004V12H20.3504C21.4504 12 22.3004 12.9 22.3004 13.95V19.85Z" fill="#888BEB" stroke="#18202F" stroke-width="2" stroke-linecap="round" stroke-linejoin="round"/>
<path d="M18.3504 12V21.8L17.1004 20.55C16.6504 20.1 16.4004 19.5 16.4004 18.9V14.5C16.4004 13.9 16.7004 13.3 17.2004 12.95L18.3504 12Z" fill="#B6C0F3" stroke="#18202F" stroke-width="2" stroke-linecap="round" stroke-linejoin="round"/>
<path d="M3.69922 12V10.55C3.69922 5.95 7.44922 2.25 11.9992 2.25C16.5992 2.25 20.2992 6 20.2992 10.55V12" stroke="#18202F" stroke-width="2" stroke-linecap="round" stroke-linejoin="round"/>
</svg>
