<svg width="20" height="20" viewBox="0 0 20 20" fill="none" xmlns="http://www.w3.org/2000/svg">
<g clip-path="url(#clip0_2767_33188)">
<path fill-rule="evenodd" clip-rule="evenodd" d="M14.2857 15.2381C14.2857 15.199 14.2943 14.2857 15 14.2857C15.4981 14.2857 15.8533 14.6219 15.8533 14.6229C16.0381 14.8067 16.3381 14.8048 16.5248 14.6257C16.5276 14.6219 16.8829 14.2857 17.381 14.2857C18.0257 14.2857 18.0952 14.9514 18.0952 15.2381C18.0952 16.5152 16.7552 17.599 16.1905 17.999C15.6257 17.599 14.2857 16.5152 14.2857 15.2381ZM4.96476 15.3771C5.38571 14.8019 5.71429 14.1095 5.71429 13.3333C5.71429 12.3848 5.19905 11.4286 4.04762 11.4286C3.53429 11.4286 3.12286 11.6143 2.85714 11.7829C2.71333 11.6914 2.52286 11.5981 2.3 11.5295C2.04286 10.7305 1.90476 9.8981 1.90476 9.04762C1.90476 4.58381 5.53619 0.952381 10 0.952381C11.5362 0.952381 13.0171 1.39333 14.3067 2.20762C14.5248 4.19619 16.7971 5.58476 16.8981 5.64667C16.9733 5.69143 17.0581 5.71429 17.1429 5.71429C17.2095 5.71429 17.2733 5.68857 17.3352 5.66095C17.8248 6.71714 18.0952 7.87333 18.0952 9.04762C18.0952 10.6095 17.6419 12.1143 16.8019 13.42C16.5562 13.4895 16.3457 13.5895 16.1905 13.6876C15.9248 13.519 15.5133 13.3333 15 13.3333C13.7771 13.3333 13.3333 14.4724 13.3333 15.2381C13.3333 15.6171 13.4143 15.9752 13.5429 16.3114C12.4438 16.8476 11.2324 17.1429 10 17.1429C8.16095 17.1429 6.39333 16.5143 4.96476 15.3771ZM0.952381 13.3333C0.952381 13.2943 0.960952 12.381 1.66667 12.381C2.16476 12.381 2.52 12.7171 2.52 12.7181C2.70476 12.9019 3.00476 12.9 3.19143 12.721C3.19429 12.7171 3.54952 12.381 4.04762 12.381C4.69238 12.381 4.7619 13.0467 4.7619 13.3333C4.7619 14.6105 3.4219 15.6943 2.85714 16.0943C2.29238 15.6943 0.952381 14.6105 0.952381 13.3333ZM16.8057 1.28952C16.9905 1.47333 17.2905 1.47143 17.4771 1.29238C17.48 1.28857 17.8352 0.952381 18.3333 0.952381C18.9781 0.952381 19.0476 1.6181 19.0476 1.90476C19.0476 3.18191 17.7076 4.26571 17.1429 4.66571C16.5781 4.26571 15.2381 3.18191 15.2381 1.90476C15.2381 1.86571 15.2467 0.952381 15.9524 0.952381C16.4505 0.952381 16.8057 1.28857 16.8057 1.28952ZM20 1.90476C20 0.956191 19.4848 0 18.3333 0C17.82 0 17.4086 0.185714 17.1429 0.354286C16.8771 0.185714 16.4657 0 15.9524 0C15.0876 0 14.6181 0.571429 14.4143 1.17524C13.0667 0.42 11.5619 0 10 0C5.01143 0 0.952381 4.05905 0.952381 9.04762C0.952381 9.87524 1.06762 10.6876 1.28762 11.4743C0.353333 11.6838 0 12.6533 0 13.3333C0 15.4829 2.50571 17.0105 2.61238 17.0752C2.68762 17.12 2.77238 17.1429 2.85714 17.1429C2.9419 17.1429 3.02667 17.12 3.1019 17.0752C3.15238 17.0448 3.73619 16.6867 4.33905 16.0943C5.94095 17.3829 7.93048 18.0952 10 18.0952C11.3886 18.0952 12.7552 17.759 13.9905 17.1495C14.7419 18.2429 15.8743 18.9371 15.9457 18.98C16.021 19.0248 16.1057 19.0476 16.1905 19.0476C16.2752 19.0476 16.36 19.0248 16.4352 18.98C16.5419 18.9152 19.0476 17.3876 19.0476 15.2381C19.0476 14.4476 18.6829 13.66 17.8981 13.4162C18.6381 12.081 19.0476 10.5924 19.0476 9.04762C19.0476 7.67905 18.721 6.33143 18.1286 5.11048C18.9019 4.47714 20 3.32952 20 1.90476Z" fill="#E5EAF9"/>
<path fill-rule="evenodd" clip-rule="evenodd" d="M13.7029 11.1259C13.5172 10.9402 13.2153 10.9402 13.0296 11.1259C12.2201 11.9354 11.1439 12.3811 9.99911 12.3811C8.85434 12.3811 7.77815 11.9354 6.96958 11.1259C6.78292 10.9402 6.48196 10.9402 6.29625 11.1259C6.10958 11.3116 6.10958 11.6135 6.29625 11.7992C7.28482 12.7887 8.60101 13.3335 9.99911 13.3335C11.3982 13.3335 12.7143 12.7887 13.7029 11.7992C13.8886 11.6135 13.8886 11.3116 13.7029 11.1259Z" fill="#E5EAF9"/>
<path fill-rule="evenodd" clip-rule="evenodd" d="M10.4913 7.98001C10.4265 8.23429 10.5817 8.49334 10.837 8.5562C11.0951 8.62096 11.3494 8.46572 11.4141 8.21049C11.5589 7.63429 11.876 6.66668 12.3798 6.66668C12.8856 6.66668 13.2027 7.63429 13.3475 8.21049C13.4084 8.46858 13.676 8.62096 13.9246 8.5562C14.1798 8.49334 14.3351 8.23429 14.2713 7.98001C13.896 6.4762 13.2608 5.71429 12.3798 5.71429C11.5017 5.71429 10.8656 6.4762 10.4913 7.98001Z" fill="#E5EAF9"/>
<path fill-rule="evenodd" clip-rule="evenodd" d="M5.72918 7.98007C5.66537 8.23436 5.82061 8.4934 6.07584 8.55626C6.33108 8.62102 6.59013 8.46578 6.65203 8.21055C6.79775 7.63436 7.11489 6.66674 7.61965 6.66674C8.12441 6.66674 8.44156 7.63436 8.58632 8.21055C8.64822 8.46864 8.91489 8.62102 9.16441 8.55626C9.4187 8.4934 9.57394 8.23436 9.51013 7.98007C9.13489 6.47626 8.4987 5.71436 7.61965 5.71436C6.74061 5.71436 6.10441 6.47626 5.72918 7.98007Z" fill="#E5EAF9"/>
</g>
<defs>
<clipPath id="clip0_2767_33188">
<rect width="20" height="20" fill="white"/>
</clipPath>
</defs>
</svg>
