<svg width="20" height="20" viewBox="0 0 20 20" fill="none" xmlns="http://www.w3.org/2000/svg">
<g clip-path="url(#clip0_3724_14163)">
<path d="M19.703 11.7371L17.4217 6.85077L18.4065 7.13323C18.6228 7.19531 18.8485 7.07036 18.9103 6.85395C18.9251 6.80254 18.9296 6.74872 18.9236 6.69558C18.9175 6.64243 18.9011 6.59099 18.8752 6.54421C18.8492 6.49742 18.8144 6.45619 18.7725 6.42289C18.7307 6.38959 18.6826 6.36485 18.6312 6.35011L11.784 4.38519C11.7853 4.35585 11.7862 4.3266 11.7862 4.29719C11.7863 3.48408 11.2374 2.77349 10.4506 2.56868C9.66381 2.36376 8.83803 2.7162 8.44159 3.42599L1.59365 1.46123C1.37744 1.39914 1.15174 1.52421 1.08969 1.74051C1.02776 1.9568 1.15268 2.1823 1.36897 2.24435L2.72038 2.6322L0.272963 7.87438C0.193265 7.90227 0.124196 7.95422 0.0752988 8.02305C0.0264015 8.09189 9.01116e-05 8.17421 2.24741e-07 8.25865C-0.000488663 9.58129 0.796684 10.7736 2.01907 11.2785C3.24145 11.7837 4.64778 11.5017 5.58102 10.5645C5.8888 10.2644 6.13354 9.90583 6.30089 9.50987C6.46824 9.11391 6.55483 8.68852 6.55558 8.25865C6.55553 8.16989 6.5265 8.08357 6.4729 8.01283C6.41929 7.94209 6.34406 7.89078 6.25862 7.86672L3.98403 2.99483L8.21629 4.20911C8.21482 4.23847 8.21408 4.26787 8.21405 4.29727C8.21531 5.12626 8.78585 5.84574 9.59271 6.03575V14.1057H8.46819C7.5697 14.1057 6.82235 14.8269 6.82235 15.7255V15.962C6.06624 16.1211 5.52342 16.786 5.51865 17.5588V18.1292C5.52195 18.2399 5.56784 18.3451 5.64675 18.4228C5.72566 18.5006 5.83152 18.5448 5.94227 18.5465H14.058C14.1687 18.5448 14.2746 18.5006 14.3535 18.4228C14.4324 18.3451 14.4783 18.2399 14.4816 18.1292V17.5588C14.4768 16.786 13.934 16.1211 13.1779 15.962V15.7255C13.1779 14.8268 12.4304 14.1057 11.5321 14.1057H10.4075V6.03579C10.649 5.97871 10.876 5.87212 11.0741 5.72277C11.2723 5.57341 11.4372 5.38455 11.5586 5.16814L16.1699 6.4914L13.7174 11.7447C13.6377 11.7726 13.5686 11.8245 13.5196 11.8933C13.4707 11.9622 13.4444 12.0445 13.4443 12.1289C13.444 13.4515 14.2411 14.6438 15.4635 15.1488C16.6859 15.6539 18.0921 15.3721 19.0253 14.4349C19.3331 14.1348 19.5778 13.7762 19.7452 13.3802C19.9126 12.9842 19.9992 12.5588 20 12.1289C20 12.0402 19.9709 11.9539 19.9173 11.8832C19.8637 11.8124 19.7885 11.7611 19.7031 11.7371H19.703ZM3.26752 3.36663L5.35214 7.83172H1.18311L3.26752 3.36663ZM3.26752 10.6917C2.06759 10.6987 1.04129 9.83103 0.84871 8.6465H5.705C5.49763 9.8301 4.46921 10.6931 3.26752 10.6917ZM13.6667 17.5589V17.7317H6.33342V17.5589C6.33342 17.1096 6.71536 16.754 7.16445 16.754H12.8358C13.2848 16.754 13.6668 17.1096 13.6668 17.5589H13.6667ZM12.363 15.7256V15.9392H7.63712V15.7256C7.63712 15.2763 8.01907 14.9206 8.46815 14.9206H11.532C11.9811 14.9206 12.363 15.2763 12.363 15.7256ZM10.0001 5.26844C9.798 5.26861 9.6009 5.20578 9.4362 5.08869C9.27151 4.9716 9.14741 4.80608 9.08117 4.61517C9.01487 4.42425 9.00974 4.2174 9.06649 4.02343C9.12325 3.82946 9.23908 3.65801 9.39784 3.53295C9.55661 3.40788 9.75042 3.33544 9.95229 3.32569C10.1542 3.31593 10.354 3.36937 10.5241 3.47854C10.6942 3.58762 10.8261 3.74701 10.9014 3.93452C10.9766 4.12204 10.9916 4.32835 10.9441 4.52476C10.9338 4.55043 10.9261 4.57707 10.9212 4.60429C10.8566 4.79752 10.7329 4.96558 10.5676 5.08474C10.4024 5.2039 10.2038 5.26818 10.0001 5.26844ZM18.7966 11.7021H14.6275L16.712 7.23703L18.7966 11.7021ZM16.7119 14.5621C15.512 14.5691 14.4857 13.7014 14.2931 12.5169H19.1494C18.942 13.7005 17.9136 14.5635 16.7119 14.5621Z" fill="#E5EAF9"/>
</g>
<defs>
<clipPath id="clip0_3724_14163">
<rect width="20" height="20" fill="white"/>
</clipPath>
</defs>
</svg>
