<svg width="20" height="20" viewBox="0 0 20 20" fill="none" xmlns="http://www.w3.org/2000/svg">
<path d="M17.6313 16.3163L16.7744 15.6094L14.8672 10.8594C15.8688 10.7309 16.6831 9.94156 16.7766 8.95719C16.8069 8.66115 16.7742 8.36205 16.6806 8.07956C16.5871 7.79706 16.4348 7.53756 16.2338 7.31813C16.034 7.09885 15.7908 6.92362 15.5196 6.80363C15.2483 6.68364 14.955 6.62153 14.6584 6.62125H13.6219C13.8869 5.97475 13.9683 5.2676 13.8569 4.57782C13.595 2.9125 12.1884 1.57313 10.5122 1.39282C9.41126 1.27282 8.35845 1.61282 7.54282 2.34594C7.14454 2.70385 6.82597 3.14151 6.60777 3.6305C6.38957 4.1195 6.27662 4.64891 6.27626 5.18438C6.27626 5.83375 6.43938 6.46344 6.75157 7.02657C6.12942 7.31019 5.58089 7.73319 5.14845 8.26281L2.69657 11.27C1.17063 13.1416 1.31313 15.85 3.02063 17.4363C3.85595 18.2122 4.91845 18.63 6.04126 18.63C6.70205 18.6301 7.35461 18.4834 7.95179 18.2006C8.54897 17.9177 9.07586 17.5057 9.49438 16.9944L11.1938 14.9103L12.1506 17.2934C12.3078 17.6888 12.5804 18.0277 12.9329 18.266C13.2854 18.5044 13.7014 18.6311 14.1269 18.6297H16.7997C17.0691 18.6316 17.3324 18.5493 17.5528 18.3943C17.7731 18.2394 17.9397 18.0195 18.0291 17.7653C18.1219 17.5124 18.1334 17.2369 18.0621 16.9771C17.9908 16.7173 17.8402 16.4863 17.6313 16.3163ZM17.4406 17.5541C17.3625 17.7719 17.1528 18.0047 16.7997 18.0047H14.1269C13.8263 18.0056 13.5323 17.916 13.2833 17.7477C13.0342 17.5793 12.8415 17.3399 12.7303 17.0606L11.5759 14.1856C11.5557 14.1352 11.5226 14.0909 11.48 14.0572C11.4374 14.0234 11.3867 14.0014 11.333 13.9932C11.2792 13.985 11.2243 13.991 11.1736 14.0106C11.1228 14.0301 11.0781 14.0626 11.0438 14.1047L9.0097 16.5994C8.6811 17.0058 8.27183 17.3397 7.80771 17.58C7.34358 17.8203 6.83469 17.9619 6.31313 17.9956C5.24813 18.0703 4.23126 17.7078 3.44595 16.9784C1.97907 15.6159 1.86282 13.2816 3.18095 11.6647L5.63282 8.6575C6.07558 8.11565 6.65803 7.70513 7.3172 7.47032C7.36251 7.45433 7.4035 7.42808 7.43699 7.39362C7.47047 7.35916 7.49553 7.31742 7.5102 7.27167C7.52488 7.22592 7.52878 7.17739 7.52159 7.12988C7.5144 7.08238 7.49632 7.03718 7.46876 6.99782C7.09853 6.46551 6.90046 5.83246 6.90126 5.18407C6.90126 4.28 7.2872 3.415 7.96032 2.81032C8.5427 2.28303 9.30096 1.99216 10.0866 1.99469C10.2053 1.99469 10.325 2.00125 10.445 2.01407C11.8456 2.16469 13.0206 3.28344 13.2391 4.67469C13.3463 5.33973 13.2385 6.02164 12.9316 6.62125H9.62095C9.53807 6.62125 9.45858 6.65418 9.39997 6.71278C9.34137 6.77139 9.30845 6.85087 9.30845 6.93375C9.30845 7.01663 9.34137 7.09612 9.39997 7.15472C9.45858 7.21333 9.53807 7.24625 9.62095 7.24625H14.6584C15.0813 7.24625 15.4866 7.42563 15.7716 7.73875C15.9135 7.89412 16.021 8.07771 16.0871 8.2775C16.1532 8.47729 16.1763 8.68878 16.155 8.89813C16.0825 9.65782 15.3909 10.2528 14.5806 10.2528H11.4069C10.7506 10.2528 10.1378 10.5459 9.72595 11.0563L7.94001 13.2709C7.88974 13.3356 7.86686 13.4174 7.87629 13.4987C7.88572 13.5801 7.9267 13.6545 7.99043 13.7059C8.05415 13.7574 8.13552 13.7817 8.21703 13.7738C8.29854 13.7658 8.37367 13.7262 8.42626 13.6634L10.2122 11.4488C10.3557 11.2701 10.5376 11.1261 10.7443 11.0272C10.9511 10.9284 11.1774 10.8773 11.4066 10.8778H14.2013L16.2241 15.9163C16.2434 15.9648 16.2747 16.0077 16.315 16.0409L17.2331 16.7984C17.5056 17.0234 17.5191 17.3363 17.4406 17.5541ZM1.64938 7.05125C1.5665 7.05125 1.48702 7.01833 1.42841 6.95972C1.36981 6.90112 1.33688 6.82163 1.33688 6.73875V1.95219C1.33688 1.86931 1.36981 1.78982 1.42841 1.73122C1.48702 1.67261 1.5665 1.63969 1.64938 1.63969C1.73226 1.63969 1.81175 1.67261 1.87035 1.73122C1.92896 1.78982 1.96188 1.86931 1.96188 1.95219V6.73875C1.96188 6.82163 1.92896 6.90112 1.87035 6.95972C1.81175 7.01833 1.73226 7.05125 1.64938 7.05125ZM2.94157 5.34063V1.95219C2.94157 1.86931 2.9745 1.78982 3.0331 1.73122C3.09171 1.67261 3.17119 1.63969 3.25407 1.63969C3.33695 1.63969 3.41644 1.67261 3.47504 1.73122C3.53365 1.78982 3.56657 1.86931 3.56657 1.95219V5.34063C3.56657 5.42351 3.53365 5.50299 3.47504 5.5616C3.41644 5.6202 3.33695 5.65313 3.25407 5.65313C3.17119 5.65313 3.09171 5.6202 3.0331 5.5616C2.9745 5.50299 2.94157 5.42351 2.94157 5.34063ZM4.54657 3.94219V1.95219C4.54657 1.86931 4.57949 1.78982 4.6381 1.73122C4.69671 1.67261 4.77619 1.63969 4.85907 1.63969C4.94195 1.63969 5.02144 1.67261 5.08004 1.73122C5.13865 1.78982 5.17157 1.86931 5.17157 1.95219V3.94219C5.17157 4.02507 5.13865 4.10456 5.08004 4.16316C5.02144 4.22177 4.94195 4.25469 4.85907 4.25469C4.77619 4.25469 4.69671 4.22177 4.6381 4.16316C4.57949 4.10456 4.54657 4.02507 4.54657 3.94219ZM18.6631 1.95219V6.73875C18.6631 6.82163 18.6302 6.90112 18.5716 6.95972C18.513 7.01833 18.4335 7.05125 18.3506 7.05125C18.2678 7.05125 18.1883 7.01833 18.1297 6.95972C18.0711 6.90112 18.0381 6.82163 18.0381 6.73875V1.95219C18.0381 1.86931 18.0711 1.78982 18.1297 1.73122C18.1883 1.67261 18.2678 1.63969 18.3506 1.63969C18.4335 1.63969 18.513 1.67261 18.5716 1.73122C18.6302 1.78982 18.6631 1.86931 18.6631 1.95219ZM16.4334 5.34063V1.95219C16.4334 1.86931 16.4664 1.78982 16.525 1.73122C16.5836 1.67261 16.6631 1.63969 16.7459 1.63969C16.8288 1.63969 16.9083 1.67261 16.9669 1.73122C17.0255 1.78982 17.0584 1.86931 17.0584 1.95219V5.34063C17.0584 5.42351 17.0255 5.50299 16.9669 5.5616C16.9083 5.6202 16.8288 5.65313 16.7459 5.65313C16.6631 5.65313 16.5836 5.6202 16.525 5.5616C16.4664 5.50299 16.4334 5.42351 16.4334 5.34063ZM14.8284 3.94219V1.95219C14.8284 1.86931 14.8614 1.78982 14.92 1.73122C14.9786 1.67261 15.0581 1.63969 15.1409 1.63969C15.2238 1.63969 15.3033 1.67261 15.3619 1.73122C15.4205 1.78982 15.4534 1.86931 15.4534 1.95219V3.94219C15.4534 4.02507 15.4205 4.10456 15.3619 4.16316C15.3033 4.22177 15.2238 4.25469 15.1409 4.25469C15.0581 4.25469 14.9786 4.22177 14.92 4.16316C14.8614 4.10456 14.8284 4.02507 14.8284 3.94219Z" fill="#E5EAF9" stroke="#fff" stroke-width="0.35"/>
</svg>
