<svg width="20" height="20" viewBox="0 0 20 20" fill="none" xmlns="http://www.w3.org/2000/svg">
<g clip-path="url(#clip0_3724_14183)">
<path d="M13.2167 3.66665L10.9333 7.89166C10.7083 8.32499 10.9083 8.84999 11.3583 9.00832L14.4833 10.1C14.9917 10.2833 15.1667 10.9417 14.8083 11.3583L9.60832 17.3583C9.32498 17.6916 8.80832 17.4333 8.85832 17.0167L9.43332 12.8917C9.48332 12.5167 9.27498 12.175 8.93332 12.05L5.50832 10.7917C5.07498 10.6417 4.87499 10.125 5.08332 9.7L8.43331 2.94166C8.55831 2.68332 8.81664 2.50833 9.10831 2.50833H12.525C13.125 2.525 13.4831 3.16589 13.2081 3.68255L13.2167 3.66665Z" stroke="#fff" stroke-miterlimit="10" stroke-linecap="round"/>
</g>
<defs>
<clipPath id="clip0_3724_14183">
<rect width="20" height="20" fill="white"/>
</clipPath>
</defs>
</svg>
