<svg width="20" height="20" viewBox="0 0 20 20" fill="none" xmlns="http://www.w3.org/2000/svg">
<path fill-rule="evenodd" clip-rule="evenodd" d="M12.4697 16.962C13.0001 17.2046 13.5764 17.3303 14.1597 17.3307L14.159 17.3313C15.0086 17.3285 15.8363 17.0622 16.5282 16.5692C17.2201 16.0762 17.7421 15.3808 18.0222 14.5787C18.3022 13.7766 18.3266 12.9074 18.092 12.0909C17.8573 11.2743 17.3752 10.5507 16.712 10.0197C16.2493 9.6427 15.7078 9.37462 15.1275 9.23527C14.5472 9.09592 13.943 9.08888 13.3597 9.21467C12.3532 9.42972 11.4478 9.97578 10.788 10.7657C10.0303 10.064 8.68067 9.337 6.878 10.449C7.05228 9.18951 7.00331 7.90916 6.73333 6.66667C6.89465 6.6188 7.04495 6.53962 7.17567 6.43367C7.43633 6.68833 7.90033 7.03767 8.26267 6.744C8.45433 6.59133 10.1333 5.233 10.0333 4.64133C9.81691 3.97551 9.39622 3.3948 8.831 2.98167C8.66411 2.85447 8.47272 2.76316 8.26884 2.71348C8.06497 2.66381 7.85303 2.65683 7.64633 2.693C7.58133 2.70633 7.51267 2.72167 7.441 2.73967C6.47766 2.99043 5.59032 3.47315 4.85643 4.14569C4.12253 4.81823 3.56438 5.66016 3.23067 6.598C2.26667 9.23667 1.76967 11.5333 1.75 13.427C1.75015 13.5744 1.7814 13.7202 1.84171 13.8547C1.90202 13.9892 1.99003 14.1095 2.1 14.2077C2.19513 14.278 2.30362 14.3282 2.41882 14.3552C2.53402 14.3822 2.65352 14.3854 2.77 14.3647C3.327 15.1043 6.186 18.419 11.4937 16.4287C11.8044 16.6319 12.1308 16.8103 12.4697 16.962ZM11.679 15.948C11.6355 15.9151 11.5825 15.8973 11.528 15.8973V15.898C11.4971 15.8985 11.4666 15.9047 11.438 15.9163C5.824 18.094 3.19967 14.1257 3.09067 13.9553C3.06208 13.9115 3.0206 13.8776 2.97195 13.8583C2.92329 13.839 2.86986 13.8353 2.819 13.8477C2.75245 13.8731 2.68106 13.8833 2.61005 13.8775C2.53905 13.8717 2.47024 13.8502 2.40867 13.8143C2.30777 13.7116 2.25086 13.5736 2.25 13.4297C2.269 11.5957 2.757 9.355 3.7 6.76933C4.0059 5.90812 4.51793 5.13487 5.19141 4.51706C5.86488 3.89925 6.67933 3.45566 7.56367 3.225C7.627 3.20922 7.68756 3.19544 7.74533 3.18367C7.88634 3.16193 8.03032 3.16938 8.16833 3.20556C8.30634 3.24174 8.43546 3.30588 8.54767 3.394C8.99556 3.72808 9.33972 4.18215 9.54033 4.70367C9.505 4.95067 8.55233 5.875 7.95467 6.353C7.87333 6.37133 7.593 6.17233 7.38067 5.91967C7.35764 5.89231 7.32906 5.87016 7.29682 5.8547C7.26458 5.83924 7.22941 5.83082 7.19367 5.83C7.15794 5.82868 7.12237 5.83536 7.08956 5.84954C7.05674 5.86373 7.02751 5.88507 7.004 5.912C6.93958 5.99751 6.8575 6.06816 6.76334 6.11912C6.66919 6.17008 6.56516 6.20017 6.45833 6.20733C6.4185 6.20332 6.37827 6.20874 6.34092 6.22316C6.30357 6.23758 6.27014 6.26059 6.24333 6.29033C6.21684 6.32038 6.19796 6.35635 6.18827 6.39521C6.17858 6.43408 6.17838 6.4747 6.18767 6.51367C6.5366 7.9354 6.57593 9.41514 6.30346 10.8528C6.23876 10.9031 6.17212 10.9582 6.10732 11.0133C6.06836 11.0465 6.04052 11.0909 6.02756 11.1404C6.0146 11.1899 6.01714 11.2421 6.03484 11.2902C6.05254 11.3382 6.08455 11.3796 6.12654 11.4088C6.16853 11.4381 6.21848 11.4537 6.26965 11.4537C6.329 11.4538 6.38645 11.4328 6.43165 11.3943C6.51033 11.3272 6.5918 11.2598 6.6683 11.2037C6.67355 11.2002 6.67867 11.1965 6.68367 11.1927C8.49959 9.78437 9.81979 10.4658 10.6123 11.2918C10.6172 11.2978 10.6225 11.3035 10.628 11.309C10.8936 11.5875 11.1212 11.8999 11.305 12.238C11.3258 12.2795 11.3577 12.3144 11.3972 12.3388C11.4367 12.3632 11.4822 12.3761 11.5287 12.376C11.5712 12.3759 11.613 12.3649 11.6501 12.3441C11.6872 12.3233 11.7184 12.2934 11.7408 12.2572C11.7631 12.221 11.7759 12.1797 11.7778 12.1372C11.7798 12.0947 11.7709 12.0524 11.752 12.0143C11.581 11.695 11.3744 11.3964 11.1363 11.1242C11.7298 10.4034 12.5502 9.90146 13.4667 9.70267C13.9772 9.59278 14.5059 9.59912 15.0137 9.72122C15.5214 9.84331 15.9952 10.078 16.4 10.408C16.8222 10.7473 17.1628 11.1771 17.3965 11.6658C17.6302 12.1544 17.751 12.6894 17.75 13.231C17.7504 13.8317 17.6001 14.4229 17.3129 14.9505C17.0258 15.4781 16.6109 15.9253 16.1063 16.2511C15.6016 16.5769 15.0234 16.771 14.4243 16.8156C13.8253 16.8602 13.2246 16.7539 12.6773 16.5063C12.3272 16.3531 11.9929 16.1661 11.679 15.948Z" fill="#E5EAF9"/>
<path d="M14.1597 17.3307L14.3011 17.4721L14.6422 17.131L14.1598 17.1307L14.1597 17.3307ZM12.4697 16.962L12.5529 16.7801L12.5514 16.7795L12.4697 16.962ZM14.159 17.3313L14.0176 17.1899L13.6745 17.5329L14.1597 17.5313L14.159 17.3313ZM18.0222 14.5787L18.211 14.6446L18.0222 14.5787ZM16.712 10.0197L16.5857 10.1747L16.587 10.1758L16.712 10.0197ZM15.1275 9.23527L15.0808 9.42974L15.1275 9.23527ZM13.3597 9.21467L13.4015 9.41025L13.4018 9.41017L13.3597 9.21467ZM10.788 10.7657L10.6521 10.9124L10.8066 11.0554L10.9415 10.8939L10.788 10.7657ZM6.878 10.449L6.67989 10.4216L6.6217 10.8421L6.983 10.6192L6.878 10.449ZM6.73333 6.66667L6.67644 6.47493L6.49848 6.52774L6.53789 6.70913L6.73333 6.66667ZM7.17567 6.43367L7.31543 6.29061L7.18806 6.16617L7.04973 6.2783L7.17567 6.43367ZM8.26267 6.744L8.13806 6.58755L8.13674 6.58862L8.26267 6.744ZM10.0333 4.64133L10.2305 4.608L10.2281 4.5935L10.2235 4.57951L10.0333 4.64133ZM8.831 2.98167L8.70974 3.14076L8.71298 3.14313L8.831 2.98167ZM8.26884 2.71348L8.31619 2.51917L8.26884 2.71348ZM7.64633 2.693L7.61185 2.49591L7.60614 2.49708L7.64633 2.693ZM7.441 2.73967L7.39228 2.54568L7.39062 2.54612L7.441 2.73967ZM4.85643 4.14569L4.7213 3.99824L4.85643 4.14569ZM3.23067 6.598L3.41853 6.66663L3.41909 6.66505L3.23067 6.598ZM1.75 13.427L1.55 13.4249L1.55 13.4272L1.75 13.427ZM2.1 14.2077L1.96679 14.3569L1.97367 14.363L1.98108 14.3685L2.1 14.2077ZM2.41882 14.3552L2.46445 14.1605H2.46445L2.41882 14.3552ZM2.77 14.3647L2.92977 14.2444L2.85586 14.1462L2.7349 14.1678L2.77 14.3647ZM11.4937 16.4287L11.6031 16.2613L11.5183 16.2058L11.4234 16.2414L11.4937 16.4287ZM11.528 15.8973L11.528 15.6973L11.328 15.6973V15.8973H11.528ZM11.679 15.948L11.5583 16.1077L11.5649 16.1122L11.679 15.948ZM11.528 15.898L11.5311 16.098L11.728 16.0949V15.898H11.528ZM11.438 15.9163L11.5103 16.1028L11.5134 16.1016L11.438 15.9163ZM3.09067 13.9553L3.25913 13.8475L3.2582 13.8461L3.09067 13.9553ZM2.97195 13.8583L3.04564 13.6724H3.04564L2.97195 13.8583ZM2.819 13.8477L2.77178 13.6533L2.75948 13.6563L2.74765 13.6608L2.819 13.8477ZM2.40867 13.8143L2.26599 13.9545L2.28484 13.9737L2.30809 13.9872L2.40867 13.8143ZM2.25 13.4297L2.04998 13.4276L2.05 13.4309L2.25 13.4297ZM3.7 6.76933L3.8879 6.83786L3.88846 6.83628L3.7 6.76933ZM5.19141 4.51706L5.05621 4.36968L5.19141 4.51706ZM7.56367 3.225L7.51532 3.03092L7.51319 3.03147L7.56367 3.225ZM7.74533 3.18367L7.71483 2.98577L7.70539 2.9877L7.74533 3.18367ZM8.16833 3.20556L8.11761 3.39902L8.11761 3.39902L8.16833 3.20556ZM8.54767 3.394L8.4241 3.55134L8.42809 3.55431L8.54767 3.394ZM9.54033 4.70367L9.73832 4.73199L9.74569 4.68045L9.727 4.63186L9.54033 4.70367ZM7.95467 6.353L7.99865 6.5481L8.0436 6.53797L8.07958 6.50919L7.95467 6.353ZM7.38067 5.91967L7.53378 5.79099L7.53369 5.79088L7.38067 5.91967ZM7.29682 5.8547L7.38329 5.67437L7.38329 5.67437L7.29682 5.8547ZM7.19367 5.83L7.18628 6.02988L7.18906 6.02995L7.19367 5.83ZM7.08956 5.84954L7.16892 6.03312L7.16892 6.03312L7.08956 5.84954ZM7.004 5.912L6.85333 5.78047L6.84859 5.7859L6.84425 5.79166L7.004 5.912ZM6.76334 6.11912L6.85854 6.29501L6.85854 6.29501L6.76334 6.11912ZM6.45833 6.20733L6.43827 6.40632L6.45498 6.40801L6.47172 6.40688L6.45833 6.20733ZM6.24333 6.29033L6.09476 6.15643L6.09332 6.15806L6.24333 6.29033ZM6.18767 6.51367L5.99312 6.56006L5.99343 6.56134L6.18767 6.51367ZM6.30346 10.8528L6.42623 11.0106L6.48589 10.9642L6.49996 10.89L6.30346 10.8528ZM6.10732 11.0133L5.97771 10.861L5.97765 10.8611L6.10732 11.0133ZM6.02756 11.1404L5.83408 11.0897L5.83408 11.0897L6.02756 11.1404ZM6.03484 11.2902L6.2225 11.221L6.2225 11.221L6.03484 11.2902ZM6.26965 11.4537L6.27019 11.2537L6.26946 11.2537L6.26965 11.4537ZM6.43165 11.3943L6.56124 11.5467L6.56145 11.5465L6.43165 11.3943ZM6.6683 11.2037L6.55788 11.0366L6.55001 11.0424L6.6683 11.2037ZM6.68367 11.1927L6.5611 11.0346L6.56109 11.0346L6.68367 11.1927ZM10.6123 11.2918L10.7663 11.1635L10.7566 11.1534L10.6123 11.2918ZM10.628 11.309L10.7728 11.1709L10.769 11.1672L10.628 11.309ZM11.305 12.238L11.484 12.1485L11.4807 12.1425L11.305 12.238ZM11.5287 12.376L11.5289 12.576L11.5294 12.576L11.5287 12.376ZM11.6501 12.3441L11.5524 12.1696L11.5524 12.1696L11.6501 12.3441ZM11.7778 12.1372L11.5781 12.128V12.128L11.7778 12.1372ZM11.752 12.0143L11.9312 11.9254L11.9283 11.9199L11.752 12.0143ZM11.1363 11.1242L10.9819 10.997L10.874 11.1281L10.9857 11.2558L11.1363 11.1242ZM13.4667 9.70267L13.4246 9.50714L13.4243 9.50721L13.4667 9.70267ZM15.0137 9.72122L14.9669 9.91567H14.9669L15.0137 9.72122ZM16.4 10.408L16.2736 10.563L16.2747 10.5639L16.4 10.408ZM17.75 13.231L17.55 13.2306V13.2311L17.75 13.231ZM14.4243 16.8156L14.4095 16.6162L14.4243 16.8156ZM12.6773 16.5063L12.7598 16.3241L12.7575 16.3231L12.6773 16.5063ZM14.1598 17.1307C13.6052 17.1303 13.0572 17.0108 12.5529 16.7801L12.3865 17.1439C12.943 17.3984 13.5476 17.5303 14.1595 17.5307L14.1598 17.1307ZM14.3004 17.4728L14.3011 17.4721L14.0182 17.1892L14.0176 17.1899L14.3004 17.4728ZM16.4122 16.4064C15.754 16.8754 14.9665 17.1286 14.1583 17.1313L14.1597 17.5313C15.0506 17.5284 15.9187 17.2491 16.6443 16.7321L16.4122 16.4064ZM17.8333 14.5127C17.5669 15.2758 17.0704 15.9374 16.4122 16.4064L16.6443 16.7321C17.3699 16.2151 17.9173 15.4858 18.211 14.6446L17.8333 14.5127ZM17.8997 12.1461C18.123 12.9229 18.0998 13.7497 17.8333 14.5127L18.211 14.6446C18.5047 13.8035 18.5303 12.8919 18.2842 12.0356L17.8997 12.1461ZM16.587 10.1758C17.2179 10.6809 17.6765 11.3693 17.8997 12.1461L18.2842 12.0356C18.0381 11.1793 17.5325 10.4204 16.837 9.86355L16.587 10.1758ZM15.0808 9.42974C15.632 9.56208 16.1463 9.81669 16.5857 10.1747L16.8383 9.86462C16.3524 9.4687 15.7837 9.18715 15.1742 9.0408L15.0808 9.42974ZM13.4018 9.41017C13.9559 9.29071 14.5297 9.2974 15.0808 9.42974L15.1742 9.0408C14.5648 8.89445 13.9302 8.88705 13.3175 9.01916L13.4018 9.41017ZM10.9415 10.8939C11.5726 10.1383 12.4387 9.61596 13.4015 9.41025L13.3179 9.01908C12.2677 9.24347 11.3229 9.81325 10.6345 10.6375L10.9415 10.8939ZM6.983 10.6192C7.8454 10.0872 8.58249 10.0036 9.18595 10.1234C9.79516 10.2443 10.2898 10.5769 10.6521 10.9124L10.9239 10.6189C10.5286 10.2528 9.96951 9.87107 9.2638 9.73103C8.55234 9.58986 7.71327 9.69876 6.773 10.2788L6.983 10.6192ZM6.53789 6.70913C6.80288 7.92868 6.85095 9.18537 6.67989 10.4216L7.07611 10.4764C7.25361 9.19365 7.20374 7.88965 6.92877 6.6242L6.53789 6.70913ZM7.04973 6.2783C6.93941 6.36772 6.81257 6.43453 6.67644 6.47493L6.79023 6.8584C6.97672 6.80306 7.15049 6.71153 7.30161 6.58903L7.04973 6.2783ZM8.13674 6.58862C8.03383 6.67203 7.91377 6.6761 7.75932 6.61041C7.59961 6.54248 7.43964 6.41195 7.31543 6.29061L7.0359 6.57672C7.17236 6.71005 7.37473 6.88152 7.60276 6.9785C7.83606 7.07773 8.12917 7.10964 8.3886 6.89937L8.13674 6.58862ZM9.83613 4.67466C9.84022 4.69888 9.83745 4.74586 9.80751 4.82257C9.77834 4.89732 9.72916 4.98553 9.66098 5.08474C9.52465 5.28311 9.32787 5.50326 9.11572 5.7161C8.69261 6.1406 8.23197 6.51276 8.13806 6.58756L8.38727 6.90044C8.48503 6.82257 8.95972 6.43923 9.39903 5.99848C9.61809 5.7787 9.83429 5.53878 9.99063 5.31129C10.0688 5.19757 10.1359 5.0814 10.1801 4.96801C10.2236 4.85659 10.2514 4.7317 10.2305 4.608L9.83613 4.67466ZM8.71298 3.14313C9.24426 3.53147 9.6397 4.07731 9.84313 4.70316L10.2235 4.57951C9.99412 3.87372 9.54817 3.25814 8.94902 2.8202L8.71298 3.14313ZM8.2215 2.9078C8.39857 2.95095 8.56481 3.03025 8.70976 3.14073L8.95224 2.8226C8.76341 2.67868 8.54686 2.57538 8.31619 2.51917L8.2215 2.9078ZM7.6808 2.89001C7.86033 2.85859 8.04442 2.86465 8.2215 2.9078L8.31619 2.51917C8.08553 2.46296 7.84573 2.45507 7.61186 2.49599L7.6808 2.89001ZM7.48972 2.93364C7.55814 2.91646 7.62393 2.90176 7.68652 2.88892L7.60614 2.49708C7.53874 2.51091 7.46719 2.52688 7.39228 2.54569L7.48972 2.93364ZM4.99155 4.29314C5.70138 3.64265 6.55963 3.17576 7.49138 2.93322L7.39062 2.54612C6.39569 2.80511 5.47926 3.30365 4.7213 3.99824L4.99155 4.29314ZM3.41909 6.66505C3.74186 5.75795 4.28172 4.94363 4.99155 4.29314L4.7213 3.99824C3.96335 4.69283 3.38689 5.56236 3.04224 6.53095L3.41909 6.66505ZM1.94999 13.4291C1.96934 11.5662 2.45895 9.29318 3.41852 6.66663L3.04281 6.52937C2.07438 9.18015 1.57 11.5005 1.55001 13.4249L1.94999 13.4291ZM2.02421 13.7729C1.97541 13.664 1.95012 13.5461 1.95 13.4268L1.55 13.4272C1.55018 13.6028 1.58739 13.7763 1.65921 13.9365L2.02421 13.7729ZM2.23321 14.0585C2.14423 13.979 2.07301 13.8817 2.02421 13.7729L1.65921 13.9365C1.73103 14.0967 1.83584 14.2399 1.96679 14.3569L2.23321 14.0585ZM2.46445 14.1605C2.37573 14.1397 2.29218 14.101 2.21892 14.0469L1.98108 14.3685C2.09808 14.455 2.2315 14.5168 2.37319 14.55L2.46445 14.1605ZM2.7349 14.1678C2.64519 14.1838 2.55317 14.1813 2.46445 14.1605L2.37319 14.55C2.51487 14.5832 2.66184 14.5871 2.8051 14.5616L2.7349 14.1678ZM11.4234 16.2414C8.82073 17.2174 6.83469 16.8892 5.43457 16.239C4.02762 15.5857 3.19744 14.5998 2.92977 14.2444L2.61023 14.485C2.89956 14.8692 3.77738 15.9105 5.2661 16.6018C6.76164 17.2963 8.85894 17.6303 11.5639 16.6159L11.4234 16.2414ZM12.5514 16.7795C12.2221 16.632 11.9051 16.4588 11.6031 16.2613L11.3842 16.596C11.7038 16.8051 12.0394 16.9885 12.3879 17.1445L12.5514 16.7795ZM11.528 16.0973C11.539 16.0973 11.5496 16.1009 11.5584 16.1075L11.7996 15.7885C11.7214 15.7293 11.6261 15.6973 11.528 15.6973L11.528 16.0973ZM11.728 15.898V15.8973H11.328V15.898H11.728ZM11.5134 16.1016C11.519 16.0993 11.525 16.0981 11.5311 16.098L11.5249 15.698C11.4692 15.6989 11.4142 15.7101 11.3626 15.7311L11.5134 16.1016ZM2.92221 14.0631C2.98596 14.1628 3.69167 15.2286 5.10487 15.9923C6.52707 16.7609 8.64781 17.2132 11.5103 16.1028L11.3657 15.7299C8.61419 16.7972 6.61576 16.3541 5.29505 15.6404C3.96533 14.9218 3.30438 13.9182 3.25913 13.8475L2.92221 14.0631ZM2.89826 14.0442C2.90845 14.0483 2.91714 14.0554 2.92313 14.0646L3.2582 13.8461C3.20702 13.7676 3.13275 13.7069 3.04564 13.6724L2.89826 14.0442ZM2.86622 14.042C2.87688 14.0394 2.88807 14.0402 2.89826 14.0442L3.04564 13.6724C2.95852 13.6379 2.86284 13.6312 2.77178 13.6533L2.86622 14.042ZM2.59386 14.0769C2.69461 14.085 2.79592 14.0706 2.89035 14.0345L2.74765 13.6608C2.70898 13.6756 2.6675 13.6815 2.62625 13.6782L2.59386 14.0769ZM2.30809 13.9872C2.39547 14.038 2.49311 14.0687 2.59386 14.0769L2.62625 13.6782C2.58499 13.6748 2.54502 13.6623 2.50924 13.6415L2.30809 13.9872ZM2.05 13.4309C2.05118 13.6268 2.12865 13.8147 2.26599 13.9545L2.55135 13.6742C2.4869 13.6086 2.45055 13.5204 2.45 13.4285L2.05 13.4309ZM3.51211 6.70081C2.56484 9.29818 2.06933 11.5626 2.05001 13.4276L2.44999 13.4317C2.46867 11.6288 2.94916 9.41182 3.88789 6.83786L3.51211 6.70081ZM5.05621 4.36968C4.35868 5.00955 3.82836 5.81042 3.51154 6.70239L3.88846 6.83628C4.18344 6.00582 4.67718 5.26019 5.32661 4.66444L5.05621 4.36968ZM7.51319 3.03147C6.59727 3.27037 5.75373 3.7298 5.05621 4.36968L5.32661 4.66444C5.97603 4.06869 6.76139 3.64094 7.61414 3.41852L7.51319 3.03147ZM7.70539 2.9877C7.64452 3.0001 7.58115 3.01453 7.51532 3.03093L7.61201 3.41907C7.67285 3.40391 7.7306 3.39078 7.78528 3.37964L7.70539 2.9877ZM8.21905 3.0121C8.05454 2.96897 7.88294 2.96009 7.71486 2.986L7.77581 3.38133C7.88975 3.36376 8.00609 3.36979 8.11761 3.39902L8.21905 3.0121ZM8.67119 3.23671C8.53744 3.13167 8.38355 3.05522 8.21905 3.0121L8.11761 3.39902C8.22914 3.42826 8.33347 3.48009 8.42414 3.55129L8.67119 3.23671ZM9.727 4.63186C9.51283 4.0751 9.14541 3.59035 8.66725 3.23368L8.42809 3.55431C8.84571 3.86582 9.16662 4.2892 9.35367 4.77547L9.727 4.63186ZM8.07958 6.50919C8.3852 6.26477 8.77858 5.90882 9.10077 5.58215C9.26176 5.41892 9.40802 5.25993 9.51757 5.12369C9.57219 5.05577 9.62032 4.99026 9.65702 4.93048C9.6901 4.87657 9.72777 4.80573 9.73832 4.73199L9.34235 4.67534C9.34406 4.66336 9.34423 4.67543 9.31612 4.72122C9.29162 4.76113 9.25486 4.81209 9.20585 4.87303C9.10817 4.99451 8.97229 5.14278 8.81598 5.30127C8.50358 5.61801 8.1218 5.96323 7.82975 6.19681L8.07958 6.50919ZM7.22755 6.04834C7.34392 6.1868 7.47857 6.31046 7.59781 6.39872C7.65709 6.4426 7.71713 6.48112 7.77281 6.5083C7.80051 6.52182 7.83173 6.5348 7.8644 6.5434C7.89351 6.55108 7.94311 6.56062 7.99865 6.5481L7.91069 6.15789C7.92992 6.15356 7.9449 6.15393 7.95269 6.15453C7.96078 6.15516 7.9656 6.15642 7.96632 6.15661C7.96726 6.15686 7.96157 6.15532 7.94824 6.14882C7.92185 6.13594 7.88328 6.11236 7.83578 6.0772C7.74143 6.00737 7.62975 5.9052 7.53378 5.79099L7.22755 6.04834ZM7.21034 6.03504C7.217 6.03823 7.2229 6.0428 7.22765 6.04845L7.53369 5.79088C7.49239 5.74181 7.44112 5.7021 7.38329 5.67437L7.21034 6.03504ZM7.18906 6.02995C7.19644 6.03012 7.20369 6.03185 7.21035 6.03504L7.38329 5.67437C7.32546 5.64664 7.26239 5.63153 7.19827 5.63005L7.18906 6.02995ZM7.16892 6.03312C7.17439 6.03076 7.18032 6.02964 7.18628 6.02986L7.20106 5.63014C7.13556 5.62771 7.07035 5.63995 7.01019 5.66596L7.16892 6.03312ZM7.15466 6.04353C7.15858 6.03904 7.16345 6.03549 7.16892 6.03312L7.01019 5.66596C6.95003 5.69197 6.89644 5.73109 6.85333 5.78047L7.15466 6.04353ZM6.85854 6.29501C6.97795 6.23038 7.08205 6.14079 7.16375 6.03234L6.84425 5.79166C6.79711 5.85424 6.73705 5.90593 6.66815 5.94323L6.85854 6.29501ZM6.47172 6.40688C6.6072 6.39779 6.73913 6.35964 6.85854 6.29501L6.66815 5.94323C6.59924 5.98052 6.52312 6.00254 6.44494 6.00778L6.47172 6.40688ZM6.41295 6.40974C6.42101 6.40663 6.42968 6.40546 6.43827 6.40632L6.47839 6.00834C6.40731 6.00118 6.33554 6.01085 6.26889 6.03658L6.41295 6.40974ZM6.3919 6.42423C6.39768 6.41781 6.40489 6.41285 6.41295 6.40974L6.26889 6.03658C6.20224 6.06231 6.14259 6.10337 6.09476 6.15644L6.3919 6.42423ZM6.38233 6.44358C6.38427 6.43581 6.38805 6.42862 6.39334 6.42261L6.09332 6.15806C6.04564 6.21214 6.01164 6.27688 5.99421 6.34684L6.38233 6.44358ZM6.38221 6.46727C6.38035 6.45948 6.38039 6.45136 6.38233 6.44358L5.99421 6.34684C5.97677 6.4168 5.9764 6.48992 5.99312 6.56006L6.38221 6.46727ZM6.49996 10.89C6.77777 9.42425 6.73766 7.91555 6.3819 6.466L5.99343 6.56134C6.33553 7.95525 6.3741 9.40603 6.10696 10.8155L6.49996 10.89ZM6.23693 11.1657C6.30048 11.1116 6.36469 11.0585 6.42623 11.0106L6.18068 10.6949C6.11283 10.7476 6.04377 10.8048 5.97771 10.861L6.23693 11.1657ZM6.22104 11.191C6.22363 11.1811 6.2292 11.1722 6.23699 11.1656L5.97765 10.8611C5.90752 10.9208 5.85741 11.0006 5.83408 11.0897L6.22104 11.191ZM6.2225 11.221C6.21896 11.2114 6.21845 11.2009 6.22104 11.191L5.83408 11.0897C5.81075 11.1788 5.81533 11.2729 5.84719 11.3593L6.2225 11.221ZM6.24083 11.2447C6.23244 11.2389 6.22604 11.2306 6.2225 11.221L5.84719 11.3593C5.87905 11.4458 5.93666 11.5203 6.01224 11.573L6.24083 11.2447ZM6.26946 11.2537C6.25923 11.2537 6.24924 11.2506 6.24083 11.2447L6.01224 11.573C6.08782 11.6256 6.17774 11.6538 6.26985 11.6537L6.26946 11.2537ZM6.30207 11.242C6.29317 11.2496 6.28187 11.2537 6.27019 11.2537L6.26912 11.6537C6.37613 11.654 6.47972 11.616 6.56124 11.5467L6.30207 11.242ZM6.55001 11.0424C6.4674 11.103 6.38141 11.1743 6.30185 11.2422L6.56145 11.5465C6.63926 11.4801 6.7162 11.4166 6.78659 11.3649L6.55001 11.0424ZM6.56109 11.0346C6.56011 11.0354 6.55909 11.0361 6.55801 11.0368L6.77859 11.3705C6.788 11.3643 6.79723 11.3577 6.80624 11.3507L6.56109 11.0346ZM10.7566 11.1534C10.3431 10.7224 9.77707 10.313 9.06118 10.2066C8.33906 10.0992 7.5015 10.3053 6.5611 11.0346L6.80623 11.3507C7.68176 10.6717 8.41225 10.5145 9.00233 10.6022C9.59863 10.6909 10.0889 11.0352 10.4679 11.4303L10.7566 11.1534ZM10.769 11.1672C10.7679 11.1661 10.7669 11.165 10.7659 11.1638L10.4586 11.4199C10.4676 11.4306 10.477 11.4409 10.4869 11.4508L10.769 11.1672ZM11.4807 12.1425C11.2885 11.7889 11.0505 11.4622 10.7727 11.171L10.4832 11.447C10.7367 11.7128 10.9539 12.0109 11.1293 12.3335L11.4807 12.1425ZM11.5022 12.1686C11.4944 12.1638 11.488 12.1568 11.4839 12.1486L11.1261 12.3275C11.1635 12.4022 11.221 12.4651 11.2922 12.509L11.5022 12.1686ZM11.5284 12.176C11.5191 12.176 11.5101 12.1735 11.5022 12.1686L11.2922 12.509C11.3633 12.5529 11.4453 12.5761 11.5289 12.576L11.5284 12.176ZM11.5524 12.1696C11.5449 12.1738 11.5365 12.176 11.5279 12.176L11.5294 12.576C11.6059 12.5757 11.6811 12.556 11.7478 12.5186L11.5524 12.1696ZM11.5706 12.1521C11.5661 12.1594 11.5598 12.1654 11.5524 12.1696L11.7478 12.5186C11.8146 12.4812 11.8707 12.4274 11.9109 12.3623L11.5706 12.1521ZM11.5781 12.128C11.5777 12.1365 11.5751 12.1448 11.5706 12.1521L11.9109 12.3623C11.9511 12.2972 11.9741 12.2229 11.9776 12.1465L11.5781 12.128ZM11.5729 12.1033C11.5767 12.1109 11.5784 12.1195 11.5781 12.128L11.9776 12.1465C11.9812 12.07 11.9652 11.9939 11.9311 11.9254L11.5729 12.1033ZM10.9857 11.2558C11.2139 11.5167 11.4119 11.8028 11.5757 12.1088L11.9283 11.9199C11.7502 11.5873 11.5349 11.2762 11.2868 10.9925L10.9857 11.2558ZM13.4243 9.50721C12.4638 9.71556 11.604 10.2416 10.9819 10.997L11.2907 11.2513C11.8557 10.5652 12.6367 10.0874 13.5091 9.89812L13.4243 9.50721ZM15.0604 9.52676C14.5235 9.39765 13.9644 9.39095 13.4246 9.50714L13.5087 9.89819C13.99 9.79462 14.4883 9.80059 14.9669 9.91567L15.0604 9.52676ZM16.5264 10.253C16.0984 9.90406 15.5973 9.65586 15.0604 9.52676L14.9669 9.91567C15.4455 10.0308 15.8921 10.252 16.2736 10.563L16.5264 10.253ZM17.5769 11.5795C17.3303 11.0638 16.9709 10.6101 16.5253 10.2521L16.2747 10.5639C16.6736 10.8844 16.9953 11.2905 17.216 11.7521L17.5769 11.5795ZM17.95 13.2314C17.951 12.6597 17.8235 12.0952 17.5769 11.5795L17.216 11.7521C17.4368 12.2136 17.5509 12.719 17.55 13.2306L17.95 13.2314ZM17.4886 15.0461C17.7918 14.4891 17.9504 13.865 17.95 13.2309L17.55 13.2311C17.5503 13.7984 17.4084 14.3566 17.1373 14.8549L17.4886 15.0461ZM16.2148 16.4191C16.7475 16.0751 17.1855 15.6031 17.4886 15.0461L17.1373 14.8549C16.8661 15.3531 16.4743 15.7754 15.9978 16.0831L16.2148 16.4191ZM14.4392 17.0151C15.0716 16.968 15.682 16.7631 16.2148 16.4191L15.9978 16.0831C15.5213 16.3908 14.9752 16.5741 14.4095 16.6162L14.4392 17.0151ZM12.5949 16.6886C13.1727 16.9499 13.8068 17.0621 14.4392 17.0151L14.4095 16.6162C13.8438 16.6583 13.2766 16.5579 12.7598 16.3241L12.5949 16.6886ZM11.5649 16.1122C11.8894 16.3377 12.2351 16.5311 12.5971 16.6895L12.7575 16.3231C12.4193 16.1751 12.0963 15.9944 11.7931 15.7838L11.5649 16.1122Z" fill="#E5EAF9"/>
</svg>
