<svg width="20" height="20" viewBox="0 0 20 20" fill="none" xmlns="http://www.w3.org/2000/svg">
<path d="M17.6429 7.85352C17.4487 4.82269 15.5465 2.27465 12.797 1.36218C8.90945 0.0715965 4.80795 2.42174 3.737 5.38432C3.58921 5.79319 3.64582 6.25094 3.88834 6.60869C4.07266 6.88074 4.06826 7.24348 3.88201 7.50537L2.13888 9.82475C1.799 10.2762 2.12176 10.9226 2.68686 10.9226H3.18459C3.25913 11.3206 3.44444 11.69 3.71498 11.9791C3.45137 12.348 3.46248 12.8779 3.74906 13.2305L3.50376 13.5829C2.97315 14.3466 3.51976 15.3975 4.45386 15.3975H6.47836C6.9968 15.6969 7.31822 16.2451 7.31822 16.8471V18.7187C7.31822 18.7557 7.32548 18.7922 7.33962 18.8264C7.35375 18.8605 7.37447 18.8915 7.40059 18.9176C7.42671 18.9438 7.45772 18.9645 7.49185 18.9786C7.52597 18.9927 7.56255 19 7.59949 19H15.0276C15.0646 19 15.1012 18.9927 15.1353 18.9786C15.1694 18.9645 15.2004 18.9438 15.2266 18.9176C15.2527 18.8915 15.2734 18.8605 15.2875 18.8264C15.3017 18.7922 15.3089 18.7557 15.3089 18.7187V13.3829C17.0096 11.7728 17.7773 9.95137 17.6429 7.85352ZM14.7464 18.4375H7.8808V16.8471C7.8808 16.3046 7.68388 15.7955 7.34481 15.3975H8.92074C9.8541 15.3975 10.7314 15.0337 11.3912 14.3732C11.5008 14.2633 11.5008 14.0852 11.3909 13.9754C11.281 13.8658 11.1028 13.8656 10.9929 13.9757C10.4397 14.5297 9.70385 14.8349 8.92074 14.8349H4.4539C3.97234 14.8349 3.69357 14.2962 3.96552 13.904L4.3509 13.3506C4.44285 13.2187 4.40488 13.0385 4.27235 12.9532C4.02684 12.7956 4.02498 12.3719 4.27537 12.2064C4.42327 12.1085 4.44845 11.8765 4.2913 11.7474C4.03032 11.5365 3.84396 11.2474 3.75968 10.9227H4.26715C4.4226 10.9227 4.54841 10.7967 4.54841 10.6414C4.54841 10.4861 4.4226 10.3601 4.26715 10.3601H2.68693C2.58601 10.3601 2.52634 10.2451 2.58858 10.1628L4.3361 7.83735C4.66213 7.37931 4.6693 6.75883 4.35424 6.29324C4.21222 6.08395 4.17927 5.81559 4.26606 5.5755C5.24882 2.856 9.03087 0.704176 12.6196 1.89616C15.1504 2.73599 16.9018 5.08863 17.0814 7.88953C17.2364 10.3027 16.0734 12.3342 13.5263 14.0999C13.4959 14.1209 13.47 14.1477 13.4499 14.1788C13.4299 14.2098 13.4162 14.2445 13.4096 14.2809C13.403 14.3172 13.4036 14.3545 13.4114 14.3906C13.4192 14.4267 13.4341 14.4609 13.4551 14.4913C13.4976 14.5526 13.5628 14.5945 13.6362 14.6078C13.7096 14.6211 13.7853 14.6047 13.8466 14.5622C14.156 14.3479 14.4562 14.1207 14.7464 13.8812V18.4375Z" fill="#E5EAF9" stroke="#E5EAF9" stroke-width="0.3"/>
<path d="M12.9588 7.22285L11.309 6.98416L10.5718 5.48879C10.4692 5.28003 10.1704 5.27968 10.0675 5.48865L9.32917 6.98413L7.68056 7.22281C7.45031 7.25629 7.3579 7.53995 7.52454 7.7024L8.71748 8.86703L8.43621 10.5086C8.39655 10.7395 8.63917 10.9124 8.8441 10.8052L10.3197 10.03L11.7952 10.8052C12.0033 10.9143 12.2423 10.7363 12.2031 10.5085L11.9208 8.86703L13.1148 7.70254C13.2811 7.54044 13.1896 7.25639 12.9588 7.22285ZM11.422 8.56765C11.3893 8.59951 11.3649 8.63882 11.3509 8.68219C11.3368 8.72556 11.3335 8.7717 11.3412 8.81664L11.5521 10.042L10.4504 9.46339C10.4101 9.44215 10.3652 9.43106 10.3197 9.43106C10.2741 9.43106 10.2292 9.44215 10.1889 9.46339L9.0869 10.0423L9.29675 8.81653C9.30446 8.77164 9.30114 8.72554 9.28707 8.68221C9.273 8.63888 9.2486 8.59963 9.21598 8.56783L8.3252 7.69804L9.55632 7.51976C9.60145 7.51319 9.64431 7.49574 9.68121 7.46892C9.7181 7.4421 9.74792 7.40672 9.76811 7.36582L10.3194 6.24898L10.8701 7.36568C10.8902 7.40664 10.92 7.44208 10.9569 7.46893C10.9938 7.49578 11.0367 7.51322 11.0819 7.51976L12.3138 7.6979L11.422 8.56765ZM10.3197 4.59541C10.3566 4.59542 10.3932 4.58815 10.4273 4.57402C10.4614 4.55989 10.4925 4.53917 10.5186 4.51305C10.5447 4.48693 10.5654 4.45592 10.5795 4.42179C10.5937 4.38766 10.6009 4.35108 10.6009 4.31414V3.93755C10.6009 3.78223 10.4751 3.65628 10.3197 3.65628C10.1642 3.65628 10.0384 3.78223 10.0384 3.93755V4.31414C10.0384 4.35108 10.0457 4.38766 10.0598 4.42179C10.0739 4.45592 10.0946 4.48693 10.1208 4.51305C10.1469 4.53917 10.1779 4.55989 10.212 4.57402C10.2462 4.58815 10.2827 4.59542 10.3197 4.59541ZM11.9027 4.93325L12.1279 4.63138C12.2208 4.5068 12.1952 4.3306 12.0705 4.23777C11.9466 4.1448 11.7697 4.17019 11.6769 4.29491L11.4516 4.59678C11.3588 4.72136 11.3843 4.89756 11.5091 4.99039C11.6325 5.08315 11.8096 5.05798 11.9027 4.93325ZM8.73671 4.93325C8.82979 5.05805 9.00694 5.08312 9.13032 4.99039C9.15995 4.96833 9.18494 4.94064 9.20386 4.90891C9.22278 4.87719 9.23527 4.84204 9.2406 4.80549C9.24593 4.76893 9.24401 4.73168 9.23494 4.69587C9.22587 4.66006 9.20983 4.62639 9.18774 4.59678L8.96249 4.29491C8.86938 4.17022 8.69248 4.1448 8.56888 4.23777C8.53925 4.25983 8.51426 4.28752 8.49534 4.31925C8.47642 4.35098 8.46394 4.38612 8.4586 4.42268C8.45327 4.45923 8.45519 4.49648 8.46426 4.53229C8.47333 4.5681 8.48937 4.60177 8.51146 4.63138L8.73671 4.93325Z" fill="#fff" stroke="#fff" stroke-width="0.3"/>
</svg>
