<svg width="20" height="20" viewBox="0 0 20 20" fill="none" xmlns="http://www.w3.org/2000/svg">
<g clip-path="url(#clip0_3742_14218)">
<path d="M14.9066 3.99233H14.3063V2.64164C14.3039 2.37794 14.2246 2.12067 14.0781 1.9014C13.9316 1.68213 13.7243 1.5104 13.4816 1.40729C13.2389 1.30418 12.9713 1.27418 12.7118 1.32096C12.4523 1.36774 12.2121 1.48927 12.0206 1.67064C11.902 1.46657 11.7319 1.29723 11.5273 1.17954C11.3226 1.06185 11.0907 0.999939 10.8547 1C10.6186 1.00006 10.3867 1.06209 10.1822 1.17988C9.97763 1.29768 9.80758 1.46711 9.68905 1.67124C9.49268 1.48516 9.24511 1.3621 8.97822 1.31789C8.71132 1.27368 8.4373 1.31035 8.19142 1.42317C7.94553 1.53599 7.73903 1.71981 7.59849 1.95097C7.45794 2.18213 7.38978 2.45006 7.40278 2.72028C7.1989 2.58728 6.96304 2.5115 6.71985 2.50085C6.47666 2.4902 6.23507 2.54508 6.02035 2.65974C5.80563 2.7744 5.62565 2.94464 5.49923 3.15266C5.37281 3.36068 5.30459 3.59884 5.30171 3.84225V5.49309C5.06296 5.49333 4.83406 5.58828 4.66525 5.7571C4.49643 5.92591 4.40148 6.15481 4.40125 6.39355V6.96745C4.40233 7.63477 4.62463 8.2829 5.03337 8.81039L5.99686 10.0485C6.32359 10.4704 6.50134 10.9887 6.50232 11.5223V13.7644C6.32047 13.869 6.16928 14.0195 6.06392 14.2008C5.95856 14.3822 5.90273 14.5881 5.90201 14.7979V17.7994C5.90233 18.1177 6.02893 18.4229 6.25402 18.648C6.47911 18.8731 6.7843 18.9997 7.10263 19H13.706C14.0243 18.9997 14.3295 18.8731 14.5546 18.648C14.7797 18.4229 14.9063 18.1177 14.9066 17.7994V14.7979C14.906 14.588 14.8501 14.3821 14.7448 14.2007C14.6394 14.0192 14.4882 13.8687 14.3063 13.7641V11.5226C14.3073 10.9888 14.4852 10.4705 14.8121 10.0485L15.7753 8.81039C16.184 8.2829 16.4063 7.63477 16.4074 6.96745V5.49309C16.4069 5.09521 16.2486 4.71376 15.9673 4.43242C15.6859 4.15107 15.3045 3.9928 14.9066 3.99233ZM12.2052 2.64164C12.2071 2.49399 12.2522 2.35014 12.3352 2.22798C12.4181 2.10581 12.5351 2.01072 12.6716 1.95452C12.8082 1.89832 12.9582 1.88351 13.1031 1.91191C13.248 1.94031 13.3814 2.01068 13.4866 2.11427C13.5566 2.18303 13.612 2.26513 13.6497 2.35572C13.6874 2.4463 13.7066 2.54353 13.706 2.64164V3.99233H12.2052V2.64164ZM10.1042 2.34148C10.1042 2.14247 10.1832 1.9516 10.3239 1.81088C10.4647 1.67016 10.6555 1.5911 10.8545 1.5911C11.0536 1.5911 11.2444 1.67016 11.3851 1.81088C11.5259 1.9516 11.6049 2.14247 11.6049 2.34148V3.99233C11.3735 4.00883 10.3035 3.9452 10.1042 4.04725V2.34148ZM10.1042 6.35844C10.4626 6.72639 10.9437 6.94986 11.4561 6.98636C11.3508 7.12512 11.2013 7.2237 11.0323 7.26571C10.8633 7.30771 10.685 7.29061 10.527 7.21725C10.3691 7.14389 10.241 7.01868 10.1641 6.86245C10.0872 6.70621 10.066 6.52835 10.1042 6.35844ZM8.00309 2.64164C8.00309 2.44262 8.08215 2.25176 8.22287 2.11103C8.36359 1.97031 8.55446 1.89125 8.75347 1.89125C8.95249 1.89125 9.14335 1.97031 9.28407 2.11103C9.4248 2.25176 9.50385 2.44262 9.50385 2.64164V6.54363C9.50385 6.74265 9.4248 6.93351 9.28407 7.07423C9.14335 7.21496 8.95249 7.29401 8.75347 7.29401C8.55446 7.29401 8.36359 7.21496 8.22287 7.07423C8.08215 6.93351 8.00309 6.74265 8.00309 6.54363V2.64164ZM5.90201 3.84225C5.90201 3.64324 5.98107 3.45237 6.12179 3.31165C6.26252 3.17092 6.45338 3.09187 6.6524 3.09187C6.85141 3.09187 7.04227 3.17092 7.183 3.31165C7.32372 3.45237 7.40278 3.64324 7.40278 3.84225V6.24348C7.40278 6.44249 7.32372 6.63335 7.183 6.77408C7.04227 6.9148 6.85141 6.99386 6.6524 6.99386C6.45338 6.99386 6.26252 6.9148 6.12179 6.77408C5.98107 6.63335 5.90201 6.44249 5.90201 6.24348V3.84225ZM14.3063 17.7994C14.3061 17.9585 14.2427 18.1111 14.1302 18.2236C14.0177 18.3361 13.8651 18.3995 13.706 18.3997H7.10263C6.94349 18.3995 6.79094 18.3361 6.67841 18.2236C6.56588 18.1111 6.50256 17.9585 6.50232 17.7994V14.7979C6.50256 14.6387 6.56588 14.4862 6.67841 14.3736C6.79094 14.2611 6.94349 14.1978 7.10263 14.1975H13.706C13.8651 14.1978 14.0177 14.2611 14.1302 14.3736C14.2427 14.4862 14.3061 14.6387 14.3063 14.7979V17.7994ZM15.8071 6.96745C15.8061 7.5012 15.6282 8.01957 15.3013 8.4415L14.3381 9.67964C13.9294 10.2071 13.7071 10.8553 13.706 11.5226V13.5972H7.10263V11.5226C7.10155 10.8553 6.87924 10.2071 6.4705 9.67964L5.50701 8.4415C5.18028 8.01961 5.00253 7.50136 5.00155 6.96775V6.39355C5.00155 6.31395 5.03318 6.2376 5.08947 6.18131C5.14575 6.12502 5.2221 6.0934 5.30171 6.0934C5.2743 6.36909 5.33183 6.64657 5.4666 6.88863C5.60136 7.13069 5.80691 7.32576 6.05569 7.44768C6.30447 7.5696 6.58457 7.61255 6.85845 7.57076C7.13233 7.52897 7.38688 7.40444 7.58798 7.21387C7.69783 7.40307 7.85208 7.56269 8.03742 7.67894C8.22276 7.7952 8.4336 7.86459 8.65175 7.88114C8.86991 7.89768 9.08881 7.86089 9.28956 7.77392C9.49031 7.68695 9.66687 7.55242 9.80401 7.38196C9.95423 7.56859 10.1514 7.71187 10.3753 7.79709C10.5992 7.88232 10.8418 7.90641 11.0781 7.8669C11.3144 7.82739 11.5359 7.7257 11.7199 7.57227C11.9039 7.41884 12.0438 7.21921 12.1251 6.99386H12.1539C12.1631 7.31545 12.2973 7.62078 12.5281 7.84493C12.7588 8.06909 13.0679 8.19438 13.3896 8.19418C13.4692 8.19847 13.5471 8.171 13.6064 8.11781C13.6657 8.06462 13.7014 7.99006 13.7057 7.91053C13.71 7.831 13.6825 7.75303 13.6293 7.69375C13.5761 7.63448 13.5016 7.59877 13.4221 7.59447C13.2883 7.59519 13.1572 7.55728 13.0445 7.48529C12.9318 7.4133 12.8422 7.3103 12.7866 7.18866C12.7427 7.05902 12.7439 6.91835 12.7899 6.78946C12.8046 6.74431 12.8085 6.69633 12.8012 6.64941C12.7939 6.60249 12.7757 6.55795 12.748 6.51939C12.7203 6.48084 12.6839 6.44935 12.6417 6.42749C12.5996 6.40562 12.5529 6.394 12.5054 6.39355H11.6049C11.2089 6.39262 10.8292 6.23556 10.5482 5.95645C10.2673 5.67735 10.1077 5.29871 10.1042 4.90269C10.1029 4.82178 10.1338 4.74367 10.1901 4.68553C10.2463 4.62739 10.3234 4.59398 10.4043 4.59263H14.9066C15.1454 4.59287 15.3743 4.68782 15.5431 4.85664C15.7119 5.02545 15.8068 5.25435 15.8071 5.49309V6.96745Z" fill="#E5EAF9" stroke="#fff" stroke-width="0.2"/>
<path d="M11.5101 8.51023C11.1171 8.63569 10.7513 8.83394 10.4316 9.09463C10.2374 8.8473 9.84031 8.24549 9.50114 8.61438C9.45339 8.67802 9.43283 8.758 9.44397 8.83678C9.45511 8.91555 9.49704 8.98669 9.56057 9.0346C9.74221 9.16876 9.89323 9.34004 10.0036 9.53705C9.70339 9.929 9.52913 10.4028 9.50384 10.8958C9.5036 10.9755 9.53499 11.0519 9.59111 11.1084C9.64723 11.1648 9.72348 11.1967 9.80309 11.1969C9.8827 11.1971 9.95914 11.1657 10.0156 11.1096C10.0721 11.0535 10.1039 10.9773 10.1041 10.8976C10.1047 10.8448 10.1387 9.60008 11.6998 9.07932C11.7724 9.05199 11.8317 8.99757 11.8651 8.92749C11.8985 8.8574 11.9034 8.77711 11.8789 8.70346C11.8543 8.62981 11.8022 8.56854 11.7334 8.53251C11.6646 8.49647 11.5846 8.48849 11.5101 8.51023ZM18.6827 3.09186C18.6429 3.02292 18.5774 2.97262 18.5005 2.95201C18.4236 2.93141 18.3416 2.9422 18.2727 2.982L17.4926 3.43223C17.4582 3.4518 17.428 3.47797 17.4037 3.50926C17.3795 3.54054 17.3617 3.57631 17.3513 3.61452C17.3409 3.65272 17.3382 3.69259 17.3433 3.73185C17.3484 3.7711 17.3612 3.80896 17.381 3.84324C17.4008 3.87752 17.4272 3.90755 17.4586 3.93159C17.4901 3.95564 17.526 3.97322 17.5642 3.98334C17.6025 3.99346 17.6424 3.99591 17.6816 3.99055C17.7208 3.98518 17.7586 3.97212 17.7928 3.9521L18.5729 3.50187C18.6418 3.46206 18.6921 3.3965 18.7127 3.31961C18.7333 3.24272 18.7225 3.1608 18.6827 3.09186ZM19.31 5.48648C19.3869 5.46586 19.4525 5.41554 19.4923 5.34659C19.5321 5.27763 19.5429 5.19569 19.5222 5.11879C19.5016 5.04189 19.4513 4.97633 19.3824 4.93654C19.3134 4.89674 19.2315 4.88597 19.1546 4.90658L18.285 5.1395C18.2084 5.16038 18.1433 5.21072 18.1037 5.27953C18.0642 5.34834 18.0535 5.43002 18.074 5.50668C18.0945 5.58335 18.1446 5.64877 18.2132 5.68863C18.2818 5.72849 18.3634 5.73956 18.4402 5.7194L19.31 5.48648ZM19.5084 6.99385H18.608C18.5284 6.99385 18.452 7.02548 18.3957 7.08176C18.3395 7.13805 18.3078 7.2144 18.3078 7.29401C18.3078 7.37361 18.3395 7.44996 18.3957 7.50625C18.452 7.56254 18.5284 7.59416 18.608 7.59416H19.5084C19.588 7.59416 19.6644 7.56254 19.7207 7.50625C19.777 7.44996 19.8086 7.37361 19.8086 7.29401C19.8086 7.2144 19.777 7.13805 19.7207 7.08176C19.6644 7.02548 19.588 6.99385 19.5084 6.99385ZM3.31598 3.43223L2.53589 2.982C2.46698 2.94283 2.38538 2.93249 2.30889 2.95326C2.2324 2.97403 2.16723 3.02421 2.12759 3.09285C2.08796 3.16149 2.07709 3.24302 2.09735 3.31965C2.11761 3.39628 2.16735 3.46178 2.23573 3.50187C2.33958 3.54509 3.05815 4.02113 3.16561 3.99232C3.23095 3.99092 3.29408 3.96835 3.34551 3.928C3.39693 3.88766 3.43388 3.83172 3.4508 3.76858C3.46771 3.70545 3.46369 3.63853 3.43933 3.57788C3.41496 3.51723 3.37188 3.46612 3.31598 3.43223ZM2.52358 5.1395L1.65403 4.90658C1.57714 4.88597 1.4952 4.89674 1.42624 4.93654C1.35729 4.97633 1.30696 5.04189 1.28635 5.11879C1.26573 5.19569 1.2765 5.27763 1.3163 5.34659C1.3561 5.41554 1.42166 5.46586 1.49855 5.48648C1.52257 5.48888 2.45544 5.75302 2.44614 5.72961C2.51835 5.72853 2.58776 5.70151 2.64168 5.65348C2.69561 5.60545 2.73046 5.53962 2.73985 5.46802C2.74925 5.39642 2.73257 5.32382 2.69286 5.26351C2.65315 5.20319 2.59306 5.15917 2.52358 5.1395ZM2.20061 6.99385H1.30015C1.22055 6.99385 1.1442 7.02548 1.08791 7.08176C1.03162 7.13805 1 7.2144 1 7.29401C1 7.37361 1.03162 7.44996 1.08791 7.50625C1.1442 7.56254 1.22055 7.59416 1.30015 7.59416H2.20061C2.28022 7.59416 2.35656 7.56254 2.41285 7.50625C2.46914 7.44996 2.50077 7.37361 2.50077 7.29401C2.50077 7.2144 2.46914 7.13805 2.41285 7.08176C2.35656 7.02548 2.28022 6.99385 2.20061 6.99385Z" fill="#E5EAF9" stroke="#E5EAF9" stroke-width="0.2"/>
</g>
<defs>
<clipPath id="clip0_3742_14218">
<rect width="20" height="20" fill="white"/>
</clipPath>
</defs>
</svg>
