<svg width="20" height="20" viewBox="0 0 20 20" fill="none" xmlns="http://www.w3.org/2000/svg">
<g clip-path="url(#clip0_3724_14160)">
<path d="M17.4962 8.97403C17.4995 8.91403 17.501 8.85703 17.501 8.80003C17.5018 7.89668 17.1622 7.02618 16.5498 6.36208C15.9374 5.69798 15.0973 5.28906 14.1968 5.21684C13.5466 4.63491 12.7068 4.30956 11.8343 4.30155L12.7226 2.95005C12.849 2.76144 12.9211 2.5417 12.931 2.31487C12.9409 2.08804 12.8882 1.86285 12.7787 1.66395C12.6716 1.46172 12.511 1.29283 12.3144 1.17574C12.1178 1.05865 11.8927 0.997875 11.6639 1.00006H9.29391C9.04248 0.999 8.79662 1.0741 8.58869 1.21547C8.38076 1.35684 8.2205 1.55785 8.12902 1.79205L7.09492 4.40625C6.87022 4.3364 6.63633 4.3006 6.40102 4.30005C5.98026 4.30102 5.56712 4.41235 5.20284 4.62292C4.83856 4.83349 4.53588 5.13593 4.32503 5.50004C3.69676 5.49261 3.09069 5.7322 2.63733 6.16722C2.18396 6.60224 1.91955 7.19789 1.90104 7.82594C1.4585 8.17867 1.15536 8.67689 1.0455 9.23205C0.935647 9.7872 1.02619 10.3633 1.30104 10.858V10.9C1.30191 11.6954 1.61826 12.458 2.18068 13.0204C2.7431 13.5828 3.50565 13.8991 4.30103 13.9C4.34783 13.9 4.39433 13.8985 4.43903 13.8958C4.57381 14.3331 4.80731 14.7335 5.12149 15.0661C5.43567 15.3987 5.82211 15.6546 6.25096 15.8141C6.6798 15.9736 7.13958 16.0323 7.59475 15.9858C8.04991 15.9393 8.4883 15.7887 8.87601 15.5458C8.9736 15.8536 9.16725 16.1221 9.42856 16.3118C9.68987 16.5015 10.0051 16.6025 10.328 16.6C10.3708 16.6 10.4132 16.609 10.4523 16.6264C10.4915 16.6438 10.5265 16.6693 10.5551 16.7011L12.293 18.6919C12.3802 18.7885 12.4867 18.8658 12.6055 18.9188C12.7243 18.9719 12.8529 18.9995 12.983 19C13.2264 18.9998 13.4598 18.903 13.6319 18.7309C13.804 18.5588 13.9008 18.3254 13.901 18.082V16.8745C14.0504 16.8911 14.2006 16.8997 14.351 16.9C16.2533 16.9 17.801 15.6214 17.801 14.05C17.8006 13.8078 17.7631 13.5671 17.6897 13.3363C18.1004 13.1277 18.4422 12.8051 18.6744 12.4072C18.9066 12.0094 19.0192 11.553 18.9988 11.0928C18.9783 10.6326 18.8258 10.188 18.5593 9.81228C18.2928 9.43653 17.9237 9.1455 17.4962 8.97403ZM8.68522 2.01405C8.73274 1.89178 8.8162 1.78677 8.92459 1.71286C9.03299 1.63896 9.16123 1.59963 9.29241 1.60005H11.6624C11.7831 1.59854 11.9018 1.63026 12.0056 1.69175C12.1095 1.75324 12.1943 1.84212 12.251 1.94865C12.3081 2.05263 12.3356 2.17033 12.3303 2.28886C12.325 2.40739 12.2872 2.52218 12.221 2.62065L11.0048 4.47135L10.9994 4.47915L10.2794 5.57354C10.2274 5.65498 10.1983 5.74893 10.1952 5.8455C10.1921 5.94208 10.2151 6.0377 10.2618 6.12231C10.3085 6.20691 10.3771 6.27736 10.4604 6.32624C10.5438 6.37512 10.6388 6.40061 10.7354 6.40004H12.6392C12.6512 6.39917 12.6631 6.40213 12.6733 6.4085C12.6835 6.41486 12.6914 6.42429 12.6959 6.43544C12.7007 6.44572 12.7021 6.45729 12.6998 6.46843C12.6976 6.47956 12.6918 6.48967 12.6833 6.49724L7.59622 11.8972L9.09111 8.32723C9.12488 8.2475 9.13832 8.16062 9.13024 8.07441C9.12216 7.9882 9.09281 7.90534 9.04482 7.83326C8.99683 7.76118 8.9317 7.70215 8.85527 7.66144C8.77884 7.62074 8.69351 7.59964 8.60692 7.60004H6.79102C6.75623 7.5998 6.72202 7.59115 6.69131 7.57481C6.66059 7.55847 6.63429 7.53494 6.61466 7.50622C6.59502 7.4775 6.58263 7.44446 6.57855 7.40991C6.57447 7.37536 6.57882 7.34034 6.59122 7.30784L8.68522 2.01405ZM12.98 18.4C12.9348 18.3995 12.8902 18.3898 12.8489 18.3714C12.8076 18.353 12.7705 18.3262 12.74 18.2929L11.0048 16.3054C10.9164 16.2069 10.8077 16.1286 10.6862 16.0759C10.5648 16.0232 10.4334 15.9973 10.301 16C10.0675 15.9994 9.84343 15.9081 9.67601 15.7454C9.50859 15.5827 9.41095 15.3613 9.40371 15.1279C9.53302 15.003 9.65079 14.8666 9.75561 14.7205C10.194 14.9184 10.6629 15.0402 11.1422 15.0805C11.3591 15.4998 11.6645 15.8669 12.0372 16.1565C12.4099 16.4461 12.8412 16.6513 13.301 16.7578V18.082C13.3008 18.124 13.2924 18.1655 13.2762 18.2042C13.26 18.2429 13.2363 18.278 13.2064 18.3076C13.1766 18.3371 13.1413 18.3605 13.1024 18.3763C13.0636 18.3922 13.022 18.4002 12.98 18.4ZM17.201 14.05C17.201 15.2908 15.9224 16.3 14.351 16.3C14.1185 16.3011 13.8866 16.2778 13.6589 16.2307C12.9215 16.1056 12.2636 15.6939 11.8289 15.0853C12.4939 15.0304 13.1364 14.8187 13.7038 14.4676C14.2711 14.1165 14.7473 13.636 15.0932 13.0654C15.3734 13.2938 15.702 13.4552 16.054 13.5374C16.406 13.6197 16.7721 13.6206 17.1245 13.54C17.1747 13.7054 17.2004 13.8772 17.201 14.05ZM16.601 13C16.214 12.9973 15.838 12.8711 15.5276 12.6399C15.2173 12.4087 14.9888 12.0845 14.8754 11.7145C14.8523 11.6388 14.8001 11.5753 14.7304 11.5378C14.6606 11.5003 14.5789 11.492 14.503 11.5146C14.4271 11.5371 14.3632 11.5888 14.3252 11.6583C14.2872 11.7278 14.2783 11.8095 14.3003 11.8855C14.3792 12.1452 14.5018 12.3896 14.6627 12.6082C14.4389 13.0244 14.1352 13.3924 13.7691 13.6911C13.4029 13.9898 12.9814 14.2133 12.5287 14.3489C12.076 14.4845 11.6011 14.5295 11.131 14.4813C10.6609 14.4331 10.205 14.2927 9.78921 14.068C9.61248 13.9721 9.44401 13.8617 9.28551 13.738C9.22261 13.6918 9.14416 13.6719 9.06683 13.6826C8.98949 13.6932 8.91937 13.7336 8.87133 13.7952C8.8233 13.8567 8.80115 13.9345 8.80959 14.0122C8.81803 14.0898 8.85638 14.161 8.91651 14.2108C9.01521 14.2882 9.11841 14.3608 9.22401 14.4286C8.91442 14.8429 8.47929 15.1461 7.98341 15.293C7.48754 15.44 6.95747 15.4228 6.47214 15.2441C5.98682 15.0654 5.57222 14.7347 5.29008 14.3012C5.00795 13.8677 4.87338 13.3547 4.90643 12.8386C4.90903 12.7993 4.90386 12.7598 4.8912 12.7225C4.87854 12.6851 4.85864 12.6506 4.83265 12.621C4.80665 12.5914 4.77507 12.5671 4.7397 12.5497C4.70433 12.5323 4.66587 12.522 4.62653 12.5194C4.5871 12.5164 4.54747 12.5213 4.50995 12.5338C4.47244 12.5463 4.4378 12.5662 4.40807 12.5922C4.37834 12.6183 4.35411 12.6501 4.33682 12.6856C4.31952 12.7212 4.30949 12.7598 4.30733 12.7993C4.29763 12.9663 4.30174 13.1337 4.31963 13.3H4.30103C3.79896 13.2992 3.30976 13.1411 2.90215 12.848C2.49455 12.5548 2.18904 12.1413 2.02854 11.6656C2.1372 11.7427 2.2521 11.8107 2.37204 11.8687C2.40761 11.8857 2.44617 11.8954 2.48552 11.8975C2.52487 11.8995 2.56424 11.8938 2.60137 11.8806C2.63851 11.8674 2.67268 11.8471 2.70195 11.8207C2.73121 11.7943 2.75499 11.7624 2.77193 11.7268C2.78888 11.6912 2.79864 11.6527 2.80068 11.6133C2.80272 11.574 2.79698 11.5346 2.78381 11.4975C2.77063 11.4604 2.75027 11.4262 2.72388 11.3969C2.6975 11.3676 2.66561 11.3439 2.63004 11.3269C2.31482 11.1771 2.04997 10.9388 1.86774 10.6411C1.86564 10.6375 1.86504 10.6333 1.86294 10.63C1.70898 10.376 1.62035 10.0879 1.60494 9.79128C1.58954 9.49469 1.64786 9.19889 1.77468 8.93033C1.9015 8.66177 2.09288 8.42882 2.33171 8.25227C2.57054 8.07573 2.84939 7.9611 3.14333 7.91863C3.18236 7.91308 3.2199 7.89989 3.25383 7.87983C3.28775 7.85976 3.3174 7.83321 3.34106 7.80169C3.36473 7.77017 3.38195 7.7343 3.39175 7.69612C3.40155 7.65794 3.40374 7.61821 3.39818 7.57919C3.39263 7.54016 3.37944 7.50262 3.35938 7.46869C3.33931 7.43477 3.31276 7.40512 3.28124 7.38146C3.24972 7.35779 3.21385 7.34057 3.17567 7.33077C3.13749 7.32097 3.09776 7.31878 3.05873 7.32434C2.88802 7.34955 2.72054 7.39321 2.55924 7.45454C2.6581 7.06749 2.88291 6.72434 3.19826 6.47911C3.5136 6.23389 3.90156 6.10053 4.30103 6.10004C4.36103 6.10004 4.41653 6.10244 4.47293 6.10784C4.68107 6.12736 4.88416 6.18331 5.07293 6.27314C5.14477 6.30735 5.22727 6.31162 5.30226 6.28501C5.37726 6.2584 5.43861 6.20309 5.47283 6.13124C5.50704 6.05939 5.51131 5.9769 5.4847 5.9019C5.45809 5.82691 5.40277 5.76555 5.33093 5.73134C5.21919 5.67876 5.10354 5.63493 4.98503 5.60024C5.15227 5.38355 5.36674 5.20785 5.61211 5.08651C5.85748 4.96518 6.12729 4.90141 6.40102 4.90004C6.56021 4.90086 6.71855 4.92327 6.87172 4.96664L6.03442 7.08344C5.98672 7.20708 5.96965 7.34044 5.98469 7.47211C5.99972 7.60379 6.0464 7.72987 6.12074 7.83958C6.19508 7.9493 6.29487 8.03939 6.4116 8.10216C6.52832 8.16492 6.6585 8.19851 6.79102 8.20003H8.49442L6.92722 11.9419C6.88311 12.0594 6.88051 12.1884 6.91984 12.3075C6.95917 12.4266 7.03808 12.5287 7.14345 12.5968C7.24882 12.6649 7.37431 12.6949 7.49907 12.6818C7.62384 12.6687 7.74038 12.6133 7.82932 12.5248L13.1192 6.91004C13.2057 6.81584 13.2631 6.69858 13.2845 6.57245C13.3058 6.44632 13.2901 6.31672 13.2393 6.1993C13.1886 6.08189 13.1049 5.9817 12.9984 5.91084C12.8919 5.83999 12.7671 5.8015 12.6392 5.80004H10.8491L11.4227 4.92764C11.864 4.86655 12.3134 4.90683 12.7368 5.04541C13.1602 5.184 13.5464 5.41725 13.8662 5.72744C13.8689 5.72941 13.8717 5.73122 13.8746 5.73284C14.1486 5.99404 14.3705 6.30483 14.5286 6.64874C14.5526 6.70088 14.591 6.74504 14.6394 6.77599C14.6877 6.80694 14.7439 6.82337 14.8013 6.82334C14.8445 6.82339 14.8872 6.81397 14.9264 6.79574C14.9986 6.76246 15.0547 6.70186 15.0822 6.62727C15.1098 6.55267 15.1066 6.47019 15.0734 6.39794C15.0009 6.24315 14.9174 6.09377 14.8235 5.95094C15.427 6.14441 15.9534 6.52463 16.3268 7.03671C16.7002 7.54879 16.9013 8.16627 16.901 8.80003C16.9007 8.91547 16.8933 9.03078 16.8791 9.14533V9.15583C16.8495 9.40773 16.7879 9.65482 16.6958 9.89113C16.6815 9.92785 16.6745 9.96702 16.6754 10.0064C16.6762 10.0458 16.6848 10.0847 16.7007 10.1207C16.7165 10.1568 16.7393 10.1894 16.7678 10.2167C16.7962 10.2439 16.8298 10.2653 16.8665 10.2796C16.9014 10.2933 16.9385 10.3002 16.976 10.3C17.0364 10.3 17.0954 10.2818 17.1453 10.2477C17.1952 10.2136 17.2337 10.1652 17.2556 10.1089C17.3193 9.9419 17.3703 9.77032 17.4083 9.59563C17.7704 9.77696 18.0607 10.0753 18.2321 10.4423C18.4035 10.8092 18.4459 11.2233 18.3524 11.6174C18.259 12.0115 18.0351 12.3625 17.7172 12.6134C17.3993 12.8644 17.006 13.0006 16.601 13Z" fill="#fff" stroke="#fff" stroke-width="0.2"/>
</g>
<defs>
<clipPath id="clip0_3724_14160">
<rect width="20" height="20" fill="white"/>
</clipPath>
</defs>
</svg>
