<svg width="20" height="20" viewBox="0 0 20 20" fill="none" xmlns="http://www.w3.org/2000/svg">
<path d="M18 10C18 14.4183 14.4183 18 10 18C5.58172 18 2 14.4183 2 10C2 5.58172 5.58172 2 10 2" stroke="#fff" stroke-linecap="round"/>
<path d="M5.60001 9.20001C6.05354 9.70427 6.60511 10 7.20001 10C7.79491 10 8.34647 9.70427 8.80001 9.20001" stroke="#fff" stroke-linecap="round"/>
<path d="M11.2 9.20001C11.6535 9.70427 12.2051 10 12.8 10C13.3949 10 13.9465 9.70427 14.4 9.20001" stroke="#fff" stroke-linecap="round"/>
<path d="M10.8 13.2C10.8 13.6419 10.4418 14 10 14C9.55818 14 9.20001 13.6419 9.20001 13.2C9.20001 12.7582 9.55818 12.4 10 12.4C10.4418 12.4 10.8 12.7582 10.8 13.2Z" fill="#fff"/>
<path d="M14 3.60001L16.7713 2.00001L15.6 6.37129L18.3713 4.77129" stroke="#fff" stroke-linecap="round" stroke-linejoin="round"/>
<path d="M11.6383 4.80002L13.0239 5.60002L10.8383 6.18566L12.2239 6.98566" stroke="#fff" stroke-linecap="round" stroke-linejoin="round"/>
</svg>
