<svg width="164" height="164" viewBox="0 0 164 164" fill="none" xmlns="http://www.w3.org/2000/svg">
<mask id="mask0_1209_19467" style="mask-type:alpha" maskUnits="userSpaceOnUse" x="0" y="0" width="164" height="164">
<path d="M0.5 32C0.5 16.9151 0.5 9.37258 5.18629 4.68629C9.87258 0 17.4151 0 32.5 0H132C147.085 0 154.627 0 159.314 4.68629C164 9.37258 164 16.9151 164 32V131.5C164 146.585 164 154.127 159.314 158.814C154.627 163.5 147.085 163.5 132 163.5H32.5C17.4151 163.5 9.87258 163.5 5.18629 158.814C0.5 154.127 0.5 146.585 0.5 131.5V32Z" fill="#67A14A"/>
</mask>
<g mask="url(#mask0_1209_19467)">
<circle opacity="0.2" cx="19.5" cy="191.5" r="67.5" fill="#2E6630"/>
</g>
</svg>
