<svg width="24" height="24" viewBox="0 0 24 24" fill="none" xmlns="http://www.w3.org/2000/svg">
<g clip-path="url(#clip0_4687_5978)">
<path d="M9.73242 21.3564C10.1659 22.1646 11.0188 22.7143 12 22.7143C12.9813 22.7143 13.8341 22.1646 14.2676 21.3564" stroke="#313B6B" stroke-width="1.71429" stroke-linecap="round" stroke-linejoin="round"/>
<path d="M7.30669 3.22958C8.55137 1.9849 10.2395 1.28564 11.9998 1.28564C13.76 1.28564 15.4481 1.9849 16.6928 3.22958C17.9375 4.47425 18.6368 6.16239 18.6368 7.92264C18.6368 8.95834 18.8077 9.93154 19.0648 10.927C19.1368 11.1523 19.2162 11.365 19.3016 11.5656C19.6993 12.5012 20.7944 12.8204 21.6116 13.4253C22.8313 14.3283 22.5954 16.2603 21.5809 17.0105C21.5809 17.0105 19.9429 18.4285 11.9998 18.4285C4.05655 18.4285 2.41858 17.0105 2.41858 17.0105C1.40409 16.2603 1.16829 14.3283 2.38796 13.4253C3.20508 12.8204 4.30016 12.5012 4.698 11.5656C5.09455 10.6331 5.36276 9.44011 5.36276 7.92264C5.36276 6.16239 6.06202 4.47425 7.30669 3.22958Z" fill="#DDF2BF"/>
<path d="M7.30669 3.22958C8.55137 1.9849 10.2395 1.28564 11.9998 1.28564C13.76 1.28564 15.4481 1.9849 16.6928 3.22958C17.9375 4.47425 18.6368 6.16239 18.6368 7.92264C18.6368 8.95834 18.8077 9.93154 19.0648 10.927C19.1368 11.1523 19.2162 11.365 19.3016 11.5656C19.6993 12.5012 20.7944 12.8204 21.6116 13.4253C22.8313 14.3283 22.5954 16.2603 21.5809 17.0105C21.5809 17.0105 19.9429 18.4285 11.9998 18.4285C4.05655 18.4285 2.41858 17.0105 2.41858 17.0105C1.40409 16.2603 1.16829 14.3283 2.38796 13.4253C3.20508 12.8204 4.30016 12.5012 4.698 11.5656C5.09455 10.6331 5.36276 9.44011 5.36276 7.92264C5.36276 6.16239 6.06202 4.47425 7.30669 3.22958Z" stroke="#313B6B" stroke-width="1.71429" stroke-linecap="round" stroke-linejoin="round"/>
</g>
<defs>
<clipPath id="clip0_4687_5978">
<rect width="24" height="24" fill="white"/>
</clipPath>
</defs>
</svg>
