<svg width="164" height="164" viewBox="0 0 164 164" fill="none" xmlns="http://www.w3.org/2000/svg">
<mask id="mask0_1209_19448" style="mask-type:alpha" maskUnits="userSpaceOnUse" x="0" y="0" width="164" height="164">
<path d="M0.5 32C0.5 16.9151 0.5 9.37258 5.18629 4.68629C9.87258 0 17.4151 0 32.5 0H132C147.085 0 154.627 0 159.314 4.68629C164 9.37258 164 16.9151 164 32V131.5C164 146.585 164 154.127 159.314 158.814C154.627 163.5 147.085 163.5 132 163.5H32.5C17.4151 163.5 9.87258 163.5 5.18629 158.814C0.5 154.127 0.5 146.585 0.5 131.5V32Z" fill="#4A56DB"/>
</mask>
<g mask="url(#mask0_1209_19448)">
<g opacity="0.1" filter="url(#filter0_d_1209_19448)">
<circle cx="82" cy="138" r="106" fill="#8FD460"/>
</g>
<g opacity="0.1" filter="url(#filter1_d_1209_19448)">
<circle cx="82.0007" cy="138" r="69.0359" fill="#C2EC97"/>
</g>
</g>
<defs>
<filter id="filter0_d_1209_19448" x="-163" y="-111" width="490" height="490" filterUnits="userSpaceOnUse" color-interpolation-filters="sRGB">
<feFlood flood-opacity="0" result="BackgroundImageFix"/>
<feColorMatrix in="SourceAlpha" type="matrix" values="0 0 0 0 0 0 0 0 0 0 0 0 0 0 0 0 0 0 127 0" result="hardAlpha"/>
<feOffset dy="-4"/>
<feGaussianBlur stdDeviation="69.5"/>
<feComposite in2="hardAlpha" operator="out"/>
<feColorMatrix type="matrix" values="0 0 0 0 0 0 0 0 0 0 0 0 0 0 0 0 0 0 0.7 0"/>
<feBlend mode="normal" in2="BackgroundImageFix" result="effect1_dropShadow_1209_19448"/>
<feBlend mode="normal" in="SourceGraphic" in2="effect1_dropShadow_1209_19448" result="shape"/>
</filter>
<filter id="filter1_d_1209_19448" x="8.96484" y="68.9639" width="146.072" height="146.072" filterUnits="userSpaceOnUse" color-interpolation-filters="sRGB">
<feFlood flood-opacity="0" result="BackgroundImageFix"/>
<feColorMatrix in="SourceAlpha" type="matrix" values="0 0 0 0 0 0 0 0 0 0 0 0 0 0 0 0 0 0 127 0" result="hardAlpha"/>
<feOffset dy="4"/>
<feGaussianBlur stdDeviation="2"/>
<feComposite in2="hardAlpha" operator="out"/>
<feColorMatrix type="matrix" values="0 0 0 0 0 0 0 0 0 0 0 0 0 0 0 0 0 0 0.25 0"/>
<feBlend mode="normal" in2="BackgroundImageFix" result="effect1_dropShadow_1209_19448"/>
<feBlend mode="normal" in="SourceGraphic" in2="effect1_dropShadow_1209_19448" result="shape"/>
</filter>
</defs>
</svg>
