<svg width="18" height="18" viewBox="0 0 18 18" fill="none" xmlns="http://www.w3.org/2000/svg">
<g clip-path="url(#clip0_119_10635)">
<path d="M8.99958 17.0358C13.4376 17.0358 17.0353 13.4381 17.0353 9.00007C17.0353 4.56207 13.4376 0.964355 8.99958 0.964355C4.56158 0.964355 0.963867 4.56207 0.963867 9.00007C0.963867 13.4381 4.56158 17.0358 8.99958 17.0358Z" stroke="black" stroke-width="1.5" stroke-linecap="round" stroke-linejoin="round"/>
<path d="M9.00005 9.74569C10.5528 9.74569 11.8116 8.48692 11.8116 6.93413C11.8116 5.38135 10.5528 4.12256 9.00005 4.12256C7.44726 4.12256 6.18848 5.38135 6.18848 6.93413C6.18848 8.48692 7.44726 9.74569 9.00005 9.74569Z" stroke="black" stroke-width="1.5" stroke-linecap="round" stroke-linejoin="round"/>
<path d="M13.7626 15.473C12.4298 16.4553 10.7827 17.0358 8.99996 17.0358C7.21726 17.0358 5.57013 16.4553 4.2373 15.473C4.50274 14.4734 5.07686 13.58 5.88144 12.9224C6.76153 12.203 7.86328 11.8101 8.99996 11.8101C10.1367 11.8101 11.2384 12.203 12.1185 12.9224C12.923 13.58 13.4972 14.4734 13.7626 15.473Z" stroke="black" stroke-width="1.5" stroke-linecap="round" stroke-linejoin="round"/>
</g>
<defs>
<clipPath id="clip0_119_10635">
<rect width="18" height="18" fill="white"/>
</clipPath>
</defs>
</svg>
