<svg width="18" height="18" viewBox="0 0 18 18" fill="none" xmlns="http://www.w3.org/2000/svg">
<path fill-rule="evenodd" clip-rule="evenodd" d="M12.2505 2.0625H5.74875C3.483 2.0625 2.0625 3.66675 2.0625 5.937V12.063C2.0625 14.3332 3.47625 15.9375 5.74875 15.9375H12.2498C14.523 15.9375 15.9375 14.3332 15.9375 12.063V5.937C15.9375 3.66675 14.523 2.0625 12.2505 2.0625Z" stroke="#130F26" stroke-width="1.5" stroke-linecap="round" stroke-linejoin="round"/>
<path fill-rule="evenodd" clip-rule="evenodd" d="M8.01628 8.99984C8.01628 9.76709 7.39453 10.3888 6.62728 10.3888C5.86003 10.3888 5.23828 9.76709 5.23828 8.99984C5.23828 8.23259 5.86003 7.61084 6.62728 7.61084H6.62953C7.39528 7.61159 8.01628 8.23334 8.01628 8.99984Z" stroke="#130F26" stroke-width="1.5" stroke-linecap="round" stroke-linejoin="round"/>
<path d="M8.01855 9H12.7571V10.389" stroke="#130F26" stroke-width="1.5" stroke-linecap="round" stroke-linejoin="round"/>
<path d="M10.6367 10.389V9" stroke="#130F26" stroke-width="1.5" stroke-linecap="round" stroke-linejoin="round"/>
</svg>
