<svg width="34" height="34" viewBox="0 0 34 34" fill="none" xmlns="http://www.w3.org/2000/svg">
<path d="M7.11719 24.4317C7.11719 24.4317 8.47052 21.7033 10.4405 21.7033C12.4105 21.7033 13.4172 23.995 15.6005 23.995C17.7822 23.995 20.2305 18.2483 22.7039 18.2483C25.1739 18.2483 26.9505 22.2333 26.9505 22.2333" stroke="#606060" stroke-width="1.5" stroke-linecap="round" stroke-linejoin="round"/>
<path fill-rule="evenodd" clip-rule="evenodd" d="M13.8987 12.1748C13.8987 13.6082 12.737 14.7715 11.302 14.7715C9.8687 14.7715 8.70703 13.6082 8.70703 12.1748C8.70703 10.7415 9.8687 9.57816 11.302 9.57816C12.737 9.57982 13.8987 10.7415 13.8987 12.1748Z" stroke="#606060" stroke-width="1.5" stroke-linecap="round" stroke-linejoin="round"/>
<path fill-rule="evenodd" clip-rule="evenodd" d="M1.58398 17.0002C1.58398 28.5618 5.43898 32.4168 17.0007 32.4168C28.5623 32.4168 32.4173 28.5618 32.4173 17.0002C32.4173 5.4385 28.5623 1.5835 17.0007 1.5835C5.43898 1.5835 1.58398 5.4385 1.58398 17.0002Z" stroke="#606060" stroke-width="1.5" stroke-linecap="round" stroke-linejoin="round"/>
</svg>
