<svg width="18" height="18" viewBox="0 0 18 18" fill="none" xmlns="http://www.w3.org/2000/svg">
<path d="M9 9C11.0711 9 12.75 7.32107 12.75 5.25C12.75 3.17893 11.0711 1.5 9 1.5C6.92893 1.5 5.25 3.17893 5.25 5.25C5.25 7.32107 6.92893 9 9 9Z" stroke="#292D32" stroke-width="1.5" stroke-linecap="round" stroke-linejoin="round"/>
<path d="M14.4073 11.8048L11.7523 14.4598C11.6473 14.5648 11.5498 14.7598 11.5273 14.9023L11.3848 15.9148C11.3323 16.2823 11.5873 16.5373 11.9548 16.4848L12.9673 16.3423C13.1098 16.3198 13.3123 16.2223 13.4098 16.1173L16.0648 13.4623C16.5223 13.0048 16.7398 12.4723 16.0648 11.7973C15.3973 11.1298 14.8648 11.3473 14.4073 11.8048Z" stroke="#292D32" stroke-width="1.5" stroke-miterlimit="10" stroke-linecap="round" stroke-linejoin="round"/>
<path d="M2.55762 16.5C2.55762 13.5975 5.44514 11.25 9.00014 11.25C9.78014 11.25 10.3025 11.3625 11 11.5725" stroke="#292D32" stroke-width="1.5" stroke-linecap="round" stroke-linejoin="round"/>
</svg>
