<svg width="18" height="19" viewBox="0 0 18 19" fill="none" xmlns="http://www.w3.org/2000/svg">
<g clip-path="url(#clip0_119_10668)">
<path d="M7.2998 16.5176C7.62488 17.1237 8.26455 17.536 9.00048 17.536C9.73643 17.536 10.3761 17.1237 10.7012 16.5176" stroke="black" stroke-width="1.5" stroke-linecap="round" stroke-linejoin="round"/>
<path d="M5.48002 2.9223C6.41353 1.9888 7.67963 1.46436 8.99982 1.46436C10.32 1.46436 11.5861 1.9888 12.5196 2.9223C13.4531 3.85581 13.9776 5.12192 13.9776 6.4421C13.9776 7.21888 14.1057 7.94878 14.2986 8.69535C14.3526 8.86436 14.4121 9.02384 14.4762 9.1743C14.7744 9.876 15.5958 10.1154 16.2087 10.5691C17.1234 11.2463 16.9465 12.6954 16.1856 13.258C16.1856 13.258 14.9571 14.3215 8.99982 14.3215C3.04241 14.3215 1.81393 13.258 1.81393 13.258C1.05307 12.6954 0.876216 11.2463 1.79097 10.5691C2.40381 10.1154 3.22512 9.87605 3.5235 9.17436C3.82091 8.47493 4.02207 7.5802 4.02207 6.4421C4.02207 5.12192 4.54651 3.85581 5.48002 2.9223Z" stroke="black" stroke-width="1.5" stroke-linecap="round" stroke-linejoin="round"/>
</g>
<defs>
<clipPath id="clip0_119_10668">
<rect width="18" height="18" fill="white" transform="translate(0 0.5)"/>
</clipPath>
</defs>
</svg>
