<svg width="18" height="18" viewBox="0 0 18 18" fill="none" xmlns="http://www.w3.org/2000/svg">
<path d="M6.75 16.5H11.25C15 16.5 16.5 15 16.5 11.25V6.75C16.5 3 15 1.5 11.25 1.5H6.75C3 1.5 1.5 3 1.5 6.75V11.25C1.5 15 3 16.5 6.75 16.5Z" stroke="#292D32" stroke-width="1.5" stroke-linecap="round" stroke-linejoin="round"/>
<path d="M11.6777 13.8752V10.9502" stroke="#292D32" stroke-width="1.5" stroke-miterlimit="10" stroke-linecap="round" stroke-linejoin="round"/>
<path d="M11.6777 5.5875V4.125" stroke="#292D32" stroke-width="1.5" stroke-miterlimit="10" stroke-linecap="round" stroke-linejoin="round"/>
<path d="M11.6775 9.4874C12.7545 9.4874 13.6275 8.61436 13.6275 7.5374C13.6275 6.46045 12.7545 5.5874 11.6775 5.5874C10.6006 5.5874 9.72754 6.46045 9.72754 7.5374C9.72754 8.61436 10.6006 9.4874 11.6775 9.4874Z" stroke="#292D32" stroke-width="1.5" stroke-miterlimit="10" stroke-linecap="round" stroke-linejoin="round"/>
<path d="M6.32227 13.8751V12.4126" stroke="#292D32" stroke-width="1.5" stroke-miterlimit="10" stroke-linecap="round" stroke-linejoin="round"/>
<path d="M6.32227 7.05V4.125" stroke="#292D32" stroke-width="1.5" stroke-miterlimit="10" stroke-linecap="round" stroke-linejoin="round"/>
<path d="M6.32207 12.4127C7.39903 12.4127 8.27207 11.5397 8.27207 10.4627C8.27207 9.38574 7.39903 8.5127 6.32207 8.5127C5.24512 8.5127 4.37207 9.38574 4.37207 10.4627C4.37207 11.5397 5.24512 12.4127 6.32207 12.4127Z" stroke="#292D32" stroke-width="1.5" stroke-miterlimit="10" stroke-linecap="round" stroke-linejoin="round"/>
</svg>
