<svg width="18" height="19" viewBox="0 0 18 19" fill="none" xmlns="http://www.w3.org/2000/svg">
<g clip-path="url(#clip0_119_10676)">
<path d="M6.92992 3.59863C5.81225 3.64897 4.71599 3.77134 3.64704 3.89499C2.41338 4.03769 1.42677 5.02382 1.2889 6.25803C1.13392 7.64542 0.984375 9.07893 0.984375 10.5456C0.984375 12.0122 1.13392 13.4457 1.2889 14.8331C1.42677 16.0673 2.41338 17.0534 3.64703 17.1961C5.04103 17.3574 6.48148 17.5165 7.95528 17.5165C9.42908 17.5165 10.8695 17.3574 12.2635 17.1961C13.4972 17.0534 14.4838 16.0674 14.6217 14.8331C14.7331 13.8352 14.8418 12.8133 14.894 11.7724" stroke="black" stroke-width="1.5" stroke-linecap="round"/>
<path d="M12.9962 2.17509L8.25845 7.55086L7.6094 10.6036C7.50496 11.0948 8.01697 11.5595 8.49646 11.4088L11.5344 10.4537L16.4279 5.30458C17.2407 4.44936 17.0989 3.01895 16.1151 2.14877C15.1543 1.29896 13.758 1.31075 12.9962 2.17509Z" stroke="black" stroke-width="1.5" stroke-linecap="round" stroke-linejoin="round"/>
</g>
<defs>
<clipPath id="clip0_119_10676">
<rect width="18" height="18" fill="white" transform="translate(0 0.5)"/>
</clipPath>
</defs>
</svg>
