<svg width="18" height="18" viewBox="0 0 18 18" fill="none" xmlns="http://www.w3.org/2000/svg">
<g clip-path="url(#clip0_487_11335)">
<path d="M13.1787 7.4469C13.5563 7.78992 13.8218 8.31815 13.8218 9.00015C13.8218 9.68214 13.5563 10.2104 13.1787 10.5534" stroke="#4A56DB" stroke-width="1.5" stroke-linecap="round" stroke-linejoin="round"/>
<path d="M15.0576 4.29504C16.2168 5.32296 17.0365 6.92406 17.0365 8.9999C17.0365 11.0757 16.2168 12.6768 15.0576 13.7047" stroke="#4A56DB" stroke-width="1.5" stroke-linecap="round" stroke-linejoin="round"/>
<path d="M1.15305 7.01567C1.04438 7.63847 0.963867 8.33133 0.963867 9.00004C0.963867 9.66876 1.04438 10.3616 1.15305 10.9844C1.36176 12.1804 2.26417 13.1778 3.46612 13.3488C3.76341 13.3911 4.10939 13.4274 4.51714 13.4539C5.48909 13.5168 6.36752 14.0601 6.89096 14.8815C7.09603 15.2032 7.31276 15.5173 7.53684 15.8152C8.5438 17.1544 10.1137 16.3811 10.1822 14.7071C10.2393 13.3098 10.2853 11.4306 10.2853 9.00004C10.2853 6.5695 10.2393 4.69033 10.1822 3.29304C10.1137 1.61896 8.5438 0.84568 7.53684 2.18481C7.31276 2.48281 7.09603 2.79681 6.89096 3.11858C6.36752 3.93995 5.48909 4.48329 4.51714 4.54623C4.10939 4.57262 3.76341 4.60889 3.46612 4.65121C2.26417 4.82227 1.36176 5.81968 1.15305 7.01567Z" stroke="#4A56DB" stroke-width="1.5" stroke-linecap="round" stroke-linejoin="round"/>
</g>
<defs>
<clipPath id="clip0_487_11335">
<rect width="18" height="18" fill="white"/>
</clipPath>
</defs>
</svg>
