<?xml version="1.0" encoding="UTF-8"?><svg id="Layer_1" xmlns="http://www.w3.org/2000/svg" viewBox="0 0 490.66 398.8"><g id="Layer_1-2"><path d="m442.58,228.9c-.5,0-1,0-1.5-.1-8.2-.8-14.2-8.2-13.4-16.4,5-48.6-7.9-91.3-37.1-123.7-33.7-37.3-86.6-58.7-145.2-58.7s-111.5,21.4-145.2,58.7c-29.3,32.3-42.1,75.1-37.2,123.7.8,8.2-5.2,15.6-13.4,16.4-8.2.8-15.6-5.2-16.4-13.4-5.8-57.2,9.6-108,44.7-146.9C117.28,25,178.28,0,245.28,0s128.1,25,167.4,68.6c35.1,38.9,50.6,89.7,44.7,146.9-.7,7.7-7.2,13.4-14.8,13.4h0Z" fill="#fff" stroke-width="0"/><path d="m245.28,398.8c-53.7,0-103.7-16.9-140.7-47.6-38.5-31.9-59.7-76.2-59.7-124.7s21.5-97.1,58.9-133.3c38.4-37.2,88.7-57.7,141.5-57.7s103.1,20.5,141.5,57.7c37.3,36.1,58.7,84.5,58.9,132.7v.6c0,48.5-21.2,92.8-59.7,124.7-37,30.7-87,47.6-140.7,47.6h0Z" fill="#fff" stroke-width="0"/><path d="m245.28,398.8c-53.7,0-103.7-16.9-140.7-47.6-38.5-31.9-59.7-76.2-59.7-124.7s21.5-97.1,58.9-133.3c38.4-37.2,88.7-57.7,141.5-57.7s103.1,20.5,141.5,57.7c37.3,36.1,58.7,84.5,58.9,132.7v.6c0,48.5-21.2,92.8-59.7,124.7-37,30.7-87,47.6-140.7,47.6h0Z" fill="#fff" stroke-width="0"/><path d="m442.58,228.9c-.5,0-1,0-1.5-.1-8.2-.8-14.2-8.2-13.4-16.4,5-48.6-7.9-91.3-37.1-123.7-33.7-37.3-86.6-58.7-145.2-58.7s-111.5,21.4-145.2,58.7c-29.3,32.3-42.1,75.1-37.2,123.7.8,8.2-5.2,15.6-13.4,16.4-8.2.8-15.6-5.2-16.4-13.4-5.8-57.2,9.6-108,44.7-146.9C117.28,25,178.28,0,245.28,0s128.1,25,167.4,68.6c35.1,38.9,50.6,89.7,44.7,146.9-.7,7.7-7.2,13.4-14.8,13.4h0Z" fill="#fff" stroke-width="0"/><path d="m333.68,198.4c-8.7,0-23.4-2.7-53-23.5-1.3,2.2-3,4.3-4.9,6.3-5.2,5.5-14.8,12-30.5,12s-25.3-6.5-30.5-12c-1.9-2-3.5-4.1-4.9-6.3-29.6,20.8-44.2,23.5-53,23.5-9.6,0-17.8-4-22.9-11.2-2.5-3.6-4.3-7.8-5.2-12.8-18.3,13-37,23.3-51.6,23.3-8.8,0-16.4-3.6-21.2-10.2-7.2-9.8-7.5-25.1-1-45.5,4.3-13.6,19-43.6,46.7-70.3,37.1-35.7,86.7-55.2,143.3-56.4h.6c56.6,1.2,106.1,20.7,143.3,56.4,27.8,26.7,42.4,56.8,46.7,70.3,6.5,20.4,6.1,35.7-1,45.5-4.8,6.6-12.3,10.2-21.2,10.2h0c-14.6,0-33.3-10.3-51.6-23.3-.9,4.6-2.5,9-5.2,12.8-5.1,7.2-13.3,11.2-22.9,11.2Z" fill="#fff" stroke-width="0"/><path d="m333.68,198.4c-8.7,0-23.4-2.7-53-23.5-1.3,2.2-3,4.3-4.9,6.3-5.2,5.5-14.8,12-30.5,12s-25.3-6.5-30.5-12c-1.9-2-3.5-4.1-4.9-6.3-29.6,20.8-44.2,23.5-53,23.5-9.6,0-17.8-4-22.9-11.2-2.5-3.6-4.3-7.8-5.2-12.8-18.3,13-37,23.3-51.6,23.3-8.8,0-16.4-3.6-21.2-10.2-7.2-9.8-7.5-25.1-1-45.5,4.3-13.6,19-43.6,46.7-70.3,37.1-35.7,86.7-55.2,143.3-56.4h.6c56.6,1.2,106.1,20.7,143.3,56.4,27.8,26.7,42.4,56.8,46.7,70.3,6.5,20.4,6.1,35.7-1,45.5-4.8,6.6-12.3,10.2-21.2,10.2h0c-14.6,0-33.3-10.3-51.6-23.3-.9,4.6-2.5,9-5.2,12.8-5.1,7.2-13.3,11.2-22.9,11.2Z" fill="#fff" stroke-width="0"/><path d="m340.98,326.9c-23.2,0-42-18.9-42-42s18.9-42,42-42,42,18.9,42,42-18.8,42-42,42Z" fill="#fff" stroke-width="0"/><circle cx="149.61" cy="284.87" r="42" fill="#fff" stroke-width="0"/><path d="m37.18,328.9c-2.1,0-4.3,0-6.4-.1-10-.3-18.1-8.3-19-18.5L.08,179.9c-.9-10.3,5.7-19.5,15.5-21.6,13.5-2.9,27.4-4.4,41.2-4.4,2.1,0,4.3,0,6.4.1,10,.3,18.1,8.3,19,18.5l11.6,130.4c.9,10.3-5.7,19.5-15.5,21.6-13.4,3-27.3,4.4-41.1,4.4h0Z" fill="#fff" stroke-width="0"/><path d="m37.18,328.9c-2.1,0-4.3,0-6.4-.1-10-.3-18.1-8.3-19-18.5L.08,179.9c-.9-10.3,5.7-19.5,15.5-21.6,13.5-2.9,27.4-4.4,41.2-4.4,2.1,0,4.3,0,6.4.1,10,.3,18.1,8.3,19,18.5l11.6,130.4c.9,10.3-5.7,19.5-15.5,21.6-13.4,3-27.3,4.4-41.1,4.4h0Z" fill="#fff" stroke-width="0"/><path d="m453.48,328.9c-13.8,0-27.7-1.5-41.2-4.4-9.7-2.1-16.4-11.3-15.5-21.6l11.7-130.4c.9-10.2,9.1-18.2,19-18.5,2.1-.1,4.3-.1,6.4-.1,13.8,0,27.7,1.5,41.2,4.4,9.7,2.1,16.4,11.3,15.5,21.6l-11.7,130.4c-.9,10.2-9.1,18.2-19,18.5-2.1.1-4.3.1-6.4.1Z" fill="#fff" stroke-width="0"/><path d="m453.48,328.9c-13.8,0-27.7-1.5-41.2-4.4-9.7-2.1-16.4-11.3-15.5-21.6l11.7-130.4c.9-10.2,9.1-18.2,19-18.5,2.1-.1,4.3-.1,6.4-.1,13.8,0,27.7,1.5,41.2,4.4,9.7,2.1,16.4,11.3,15.5,21.6l-11.7,130.4c-.9,10.2-9.1,18.2-19,18.5-2.1.1-4.3.1-6.4.1Z" fill="#fff" stroke-width="0"/><path d="m331.98,228.8c-26.4,0-40.9-13.2-42.7-14.9l20.8-21.6s-.1-.1-.2-.2c.4.4,10.4,8.9,30,6.1,8.2-1.2,15.8,4.5,17,12.7s-4.5,15.8-12.7,17c-4.3.6-8.4.9-12.2.9h0Z" fill="#fff" stroke-width="0"/><path d="m341.98,271.3c-.8,0-1.7-.1-2.5-.2-.4-.1-9.1-1.6-18.1-3.7-12.1-2.9-27.1-6.5-28.9-19.8-1.8-13.5,12.5-21.1,23-26.7,8.2-4.4,16.3-8,16.7-8.2,7.6-3.4,16.4,0,19.8,7.5,3.4,7.6,0,16.4-7.5,19.8h0c-.8.4-1.6.7-2.4,1.1.8.1,1.6.3,2.4.4,8.2,1.4,13.7,9.1,12.3,17.3-1.2,7.4-7.6,12.5-14.8,12.5h0Z" fill="#fff" stroke-width="0"/><path d="m158.58,228.8c-3.8,0-7.9-.3-12.2-.9-8.2-1.2-13.9-8.8-12.7-17s8.8-13.9,17-12.7c19.6,2.8,29.6-5.7,30-6.1-.2.1-.2.2-.2.2l20.8,21.6c-1.7,1.8-16.2,14.9-42.7,14.9h0Z" fill="#fff" stroke-width="0"/><path d="m148.58,271.3c-7.2,0-13.5-5.2-14.8-12.5-1.4-8.2,4.1-15.9,12.3-17.3.8-.1,1.6-.3,2.4-.4-.8-.4-1.6-.7-2.4-1.1-7.6-3.4-10.9-12.3-7.5-19.8,3.4-7.6,12.3-10.9,19.8-7.5.3.2,8.5,3.8,16.7,8.2,10.5,5.6,24.9,13.3,23,26.7-1.8,13.3-16.9,16.9-28.9,19.8-9,2.2-17.7,3.7-18.1,3.7-.8.2-1.6.2-2.5.2Zm22.7-17.7h0Z" fill="#fff" stroke-width="0"/><path d="m274.08,305.5c-6.5,0-11.2-2.6-14.4-5.3-3.2,2.7-7.9,5.3-14.4,5.3s-11.2-2.6-14.4-5.3c-3.2,2.7-7.9,5.3-14.4,5.3-10.2,0-15.8-6.4-18.5-9.7-6.3-1.8-10.9-7.6-10.9-14.4,0-8.3,6.7-15,15-15,6.5,0,11.2,2.6,14.4,5.3,3.2-2.7,7.9-5.3,14.4-5.3s11.2,2.6,14.4,5.3c3.2-2.7,7.9-5.3,14.4-5.3s11.2,2.6,14.4,5.3c3.2-2.7,7.9-5.3,14.4-5.3,8.3,0,15,6.7,15,15,0,6.9-4.6,12.7-10.9,14.4-2.6,3.3-8.2,9.7-18.5,9.7Zm-72-9.1h0Z" fill="#fff" stroke-width="0"/><path d="m48.08,213.9C35.08,86.5,136.38,15,245.28,15s210.2,71.5,197.2,198.9" fill="#f05289" stroke-width="0"/><path d="m430.68,226.5c0,92.1-83,157.3-185.4,157.3S59.88,318.5,59.88,226.5,142.88,50.5,245.28,50.5s185.4,83.9,185.4,176h0Z" fill="#fff" stroke-width="0"/><path d="m430.68,226.5c0,92.1-83,157.3-185.4,157.3S59.88,318.5,59.88,226.5,142.88,50.5,245.28,50.5s185.4,83.9,185.4,176h0Z" fill="none" stroke="#020500" stroke-miterlimit="10" stroke-width="4"/><path d="m48.08,213.9C35.08,86.5,136.38,15,245.28,15s210.2,71.5,197.2,198.9" fill="none" stroke="#020500" stroke-miterlimit="10" stroke-width="4"/><path d="m245.28,30.4c-126.3,2.6-170.2,97.8-176,116.2-6,19.1-17.7,73.8,78.1-5.6,0,0-30.9,89.2,70.8,9,0,0-1.2,28.2,27.1,28.2s27.1-28.2,27.1-28.2c101.7,80.2,70.8-9,70.8-9,95.8,79.5,84.1,24.7,78.1,5.6-5.8-18.4-49.7-113.6-176-116.2Z" fill="#ffc6e4" stroke-width="0"/><path d="m245.28,30.4c-126.3,2.6-170.2,97.8-176,116.2-6,19.1-17.7,73.8,78.1-5.6,0,0-30.9,89.2,70.8,9,0,0-1.2,28.2,27.1,28.2s27.1-28.2,27.1-28.2c101.7,80.2,70.8-9,70.8-9,95.8,79.5,84.1,24.7,78.1,5.6-5.8-18.4-49.7-113.6-176-116.2Z" fill="none" stroke="#020500" stroke-linecap="round" stroke-linejoin="round" stroke-width="4"/><circle cx="340.98" cy="284.8" r="27" fill="#ffc6e4" stroke-width="0"/><circle cx="149.58" cy="284.8" r="27" fill="#ffc6e4" stroke-width="0"/><path d="m31.28,313.8c14.8.5,29.5-.8,44-3.9,2.3-.5,3.9-2.9,3.7-5.6-3.9-43.5-7.8-87-11.7-130.4-.2-2.7-2.2-4.8-4.6-4.9-14.8-.5-29.5.8-44,3.9-2.3.5-3.9,2.9-3.6,5.6,3.9,43.5,7.8,87,11.6,130.4.2,2.8,2.2,4.9,4.6,4.9Z" fill="#f05289" stroke-width="0"/><path d="m31.28,313.8c14.8.5,29.5-.8,44-3.9,2.3-.5,3.9-2.9,3.7-5.6-3.9-43.5-7.8-87-11.7-130.4-.2-2.7-2.2-4.8-4.6-4.9-14.8-.5-29.5.8-44,3.9-2.3.5-3.9,2.9-3.6,5.6,3.9,43.5,7.8,87,11.6,130.4.2,2.8,2.2,4.9,4.6,4.9Z" fill="none" stroke="#020500" stroke-linecap="round" stroke-linejoin="round" stroke-width="4"/><path d="m459.38,313.8c-14.8.5-29.5-.8-44-3.9-2.3-.5-3.9-2.9-3.6-5.6,3.9-43.5,7.8-87,11.6-130.4.2-2.7,2.2-4.8,4.6-4.9,14.8-.5,29.5.8,44,3.9,2.3.5,3.9,2.9,3.6,5.6-3.9,43.5-7.8,87-11.6,130.4-.3,2.8-2.2,4.9-4.6,4.9Z" fill="#f05289" stroke-width="0"/><path d="m459.38,313.8c-14.8.5-29.5-.8-44-3.9-2.3-.5-3.9-2.9-3.6-5.6,3.9-43.5,7.8-87,11.6-130.4.2-2.7,2.2-4.8,4.6-4.9,14.8-.5,29.5.8,44,3.9,2.3.5,3.9,2.9,3.6,5.6-3.9,43.5-7.8,87-11.6,130.4-.3,2.8-2.2,4.9-4.6,4.9Z" fill="none" stroke="#020500" stroke-linecap="round" stroke-linejoin="round" stroke-width="4"/><path d="m342.08,213.1c-27.9,4-42.3-9.9-42.3-9.9" fill="none" stroke="#020500" stroke-linecap="round" stroke-linejoin="round" stroke-width="4"/><path d="m338.28,226.3s-31.7,14.2-31,19.2,34.7,10.8,34.7,10.8" fill="none" stroke="#020500" stroke-linecap="round" stroke-linejoin="round" stroke-width="4"/><path d="m148.58,213.1c27.9,4,42.3-9.9,42.3-9.9" fill="none" stroke="#020500" stroke-linecap="round" stroke-linejoin="round" stroke-width="4"/><path d="m152.28,226.3s31.7,14.2,31,19.2-34.7,10.8-34.7,10.8" fill="none" stroke="#020500" stroke-linecap="round" stroke-linejoin="round" stroke-width="4"/><path d="m202.08,281.4c7.2,0,7.2,9.1,14.4,9.1s7.2-9.1,14.4-9.1,7.2,9.1,14.4,9.1,7.2-9.1,14.4-9.1,7.2,9.1,14.4,9.1,7.2-9.1,14.4-9.1" fill="none" stroke="#020500" stroke-linecap="round" stroke-linejoin="round" stroke-width="4"/></g></svg>