<?xml version="1.0" encoding="UTF-8"?><svg id="Layer_1" xmlns="http://www.w3.org/2000/svg" viewBox="0 0 490.66 398.8"><path d="m442.58,228.9c-.5,0-1,0-1.5-.1-8.2-.8-14.2-8.2-13.4-16.4,5-48.6-7.9-91.3-37.1-123.7-33.7-37.3-86.6-58.7-145.2-58.7s-111.5,21.4-145.2,58.7c-29.3,32.3-42.1,75.1-37.2,123.7.8,8.2-5.2,15.6-13.4,16.4-8.2.8-15.6-5.2-16.4-13.4-5.8-57.2,9.6-108,44.7-146.9C117.28,25,178.28,0,245.28,0s128.1,25,167.4,68.6c35.1,38.9,50.6,89.7,44.7,146.9-.7,7.7-7.2,13.4-14.8,13.4Z" fill="#fff" stroke-width="0"/><path d="m245.28,398.8c-53.7,0-103.7-16.9-140.7-47.6-38.4-31.9-59.6-76.2-59.6-124.7s21.5-97.1,58.9-133.3c38.4-37.2,88.7-57.7,141.5-57.7s103.1,20.5,141.5,57.7c37.3,36.1,58.7,84.5,58.9,132.7v.6c0,48.5-21.2,92.8-59.7,124.7-37.1,30.7-87.1,47.6-140.8,47.6Z" fill="#fff" stroke-width="0"/><path d="m245.28,398.8c-53.7,0-103.7-16.9-140.7-47.6-38.4-31.9-59.6-76.2-59.6-124.7s21.5-97.1,58.9-133.3c38.4-37.2,88.7-57.7,141.5-57.7s103.1,20.5,141.5,57.7c37.3,36.1,58.7,84.5,58.9,132.7v.6c0,48.5-21.2,92.8-59.7,124.7-37.1,30.7-87.1,47.6-140.8,47.6Z" fill="#fff" stroke-width="0"/><path d="m442.58,228.9c-.5,0-1,0-1.5-.1-8.2-.8-14.2-8.2-13.4-16.4,5-48.6-7.9-91.3-37.1-123.7-33.7-37.3-86.6-58.7-145.2-58.7s-111.5,21.4-145.2,58.7c-29.3,32.3-42.1,75.1-37.2,123.7.8,8.2-5.2,15.6-13.4,16.4-8.2.8-15.6-5.2-16.4-13.4-5.8-57.2,9.6-108,44.7-146.9C117.28,25,178.28,0,245.28,0s128.1,25,167.4,68.6c35.1,38.9,50.6,89.7,44.7,146.9-.7,7.7-7.2,13.4-14.8,13.4Z" fill="#fff" stroke-width="0"/><path d="m333.68,198.4c-8.7,0-23.4-2.7-53-23.5-1.3,2.2-3,4.3-4.9,6.3-5.2,5.5-14.8,12-30.5,12s-25.3-6.5-30.5-12c-1.9-2-3.5-4.1-4.9-6.3-29.6,20.8-44.2,23.5-53,23.5-9.6,0-17.8-4-22.9-11.2-2.5-3.6-4.3-7.8-5.2-12.8-18.3,13-37,23.3-51.6,23.3-8.8,0-16.4-3.6-21.2-10.2-7.2-9.8-7.5-25.1-1-45.5,4.3-13.6,19-43.6,46.7-70.3,37.1-35.7,86.7-55.2,143.3-56.4h.6c56.6,1.2,106.1,20.7,143.3,56.4,27.8,26.7,42.4,56.8,46.7,70.3,6.5,20.4,6.1,35.7-1,45.5-4.8,6.6-12.3,10.2-21.2,10.2h0c-14.6,0-33.3-10.3-51.6-23.3-.9,4.6-2.5,9-5.2,12.8-5.1,7.2-13.3,11.2-22.9,11.2Z" fill="#fff" stroke-width="0"/><path d="m333.68,198.4c-8.7,0-23.4-2.7-53-23.5-1.3,2.2-3,4.3-4.9,6.3-5.2,5.5-14.8,12-30.5,12s-25.3-6.5-30.5-12c-1.9-2-3.5-4.1-4.9-6.3-29.6,20.8-44.2,23.5-53,23.5-9.6,0-17.8-4-22.9-11.2-2.5-3.6-4.3-7.8-5.2-12.8-18.3,13-37,23.3-51.6,23.3-8.8,0-16.4-3.6-21.2-10.2-7.2-9.8-7.5-25.1-1-45.5,4.3-13.6,19-43.6,46.7-70.3,37.1-35.7,86.7-55.2,143.3-56.4h.6c56.6,1.2,106.1,20.7,143.3,56.4,27.8,26.7,42.4,56.8,46.7,70.3,6.5,20.4,6.1,35.7-1,45.5-4.8,6.6-12.3,10.2-21.2,10.2h0c-14.6,0-33.3-10.3-51.6-23.3-.9,4.6-2.5,9-5.2,12.8-5.1,7.2-13.3,11.2-22.9,11.2Z" fill="#fff" stroke-width="0"/><path d="m340.98,326.9c-23.2,0-42-18.9-42-42s18.9-42,42-42,42,18.9,42,42-18.8,42-42,42Z" fill="#fff" stroke-width="0"/><circle cx="149.63" cy="284.77" r="42" fill="#fff" stroke-width="0"/><path d="m37.18,328.9c-2.1,0-4.3,0-6.4-.1-10-.3-18.1-8.3-19-18.5L.08,179.9c-.9-10.3,5.7-19.5,15.5-21.6,13.5-2.9,27.4-4.4,41.2-4.4,2.1,0,4.3,0,6.4.1,10,.3,18.1,8.3,19,18.5l11.6,130.4c.9,10.3-5.7,19.5-15.5,21.6-13.4,3-27.3,4.4-41.1,4.4h0Z" fill="#fff" stroke-width="0"/><path d="m37.18,328.9c-2.1,0-4.3,0-6.4-.1-10-.3-18.1-8.3-19-18.5L.08,179.9c-.9-10.3,5.7-19.5,15.5-21.6,13.5-2.9,27.4-4.4,41.2-4.4,2.1,0,4.3,0,6.4.1,10,.3,18.1,8.3,19,18.5l11.6,130.4c.9,10.3-5.7,19.5-15.5,21.6-13.4,3-27.3,4.4-41.1,4.4h0Z" fill="#fff" stroke-width="0"/><path d="m453.48,328.9c-13.8,0-27.7-1.5-41.2-4.4-9.7-2.1-16.4-11.3-15.5-21.6l11.7-130.4c.9-10.2,9.1-18.2,19-18.5,2.1-.1,4.3-.1,6.4-.1,13.8,0,27.7,1.5,41.2,4.4,9.7,2.1,16.4,11.3,15.5,21.6l-11.7,130.4c-.9,10.2-9.1,18.2-19,18.5-2.1.1-4.3.1-6.4.1Z" fill="#fff" stroke-width="0"/><path d="m453.48,328.9c-13.8,0-27.7-1.5-41.2-4.4-9.7-2.1-16.4-11.3-15.5-21.6l11.7-130.4c.9-10.2,9.1-18.2,19-18.5,2.1-.1,4.3-.1,6.4-.1,13.8,0,27.7,1.5,41.2,4.4,9.7,2.1,16.4,11.3,15.5,21.6l-11.7,130.4c-.9,10.2-9.1,18.2-19,18.5-2.1.1-4.3.1-6.4.1Z" fill="#fff" stroke-width="0"/><path d="m342.88,267.4c-2.4,0-4.9-.6-7.1-1.8-10.3-5.6-18.1-5.7-24.3-5.7-6-.1-17.3-.2-22-11.4-2-4.7-1.9-10,.3-14.9,4.7-10.4,19.5-20,44.1-28.3,7.8-2.7,16.4,1.5,19,9.4,2.7,7.8-1.5,16.4-9.4,19-1.1.4-2.2.8-3.2,1.1,3.1,1.2,6.4,2.6,9.8,4.5,7.3,3.9,10,13,6.1,20.3-2.9,4.9-8,7.8-13.3,7.8Z" fill="#fff" stroke-width="0"/><path d="m147.78,267.4c-5.3,0-10.5-2.8-13.2-7.9-3.9-7.3-1.2-16.4,6.1-20.3,3.4-1.8,6.6-3.3,9.8-4.5-1-.4-2.1-.8-3.2-1.1-7.8-2.7-12-11.2-9.4-19,2.7-7.8,11.2-12,19-9.4,24.6,8.4,39.4,17.9,44.1,28.3,2.2,4.9,2.3,10.2.3,14.9-4.7,11.1-16,11.3-22,11.3-6.2.1-14,.2-24.3,5.7-2.3,1.4-4.8,2-7.2,2Zm26.4-20.5h0Z" fill="#fff" stroke-width="0"/><path d="m245.28,321c-26.8,0-49.5-17.4-49.5-37.9,0-7.3,4.4-16,16.7-18.8,4.9-1.1,10.8-1.3,16.4-1.3,2.4,0,4.9,0,7.6.1,2.8,0,5.8.1,8.8.1s6,0,8.8-.1c2.7,0,5.2-.1,7.6-.1,5.6,0,11.5.2,16.4,1.3,12.3,2.8,16.7,11.5,16.7,18.8.1,20.6-22.6,37.9-49.5,37.9Z" fill="#fff" stroke-width="0"/><path d="m48.08,213.9C35.08,86.5,136.38,15,245.28,15s210.2,71.5,197.2,198.9" fill="#888beb" stroke-width="0"/><path d="m430.68,226.5c0,92.1-83,157.3-185.4,157.3S59.98,318.5,59.98,226.5,142.98,50.5,245.38,50.5s185.3,83.9,185.3,176h0Z" fill="#fff" stroke-width="0"/><path d="m430.68,226.5c0,92.1-83,157.3-185.4,157.3S59.98,318.5,59.98,226.5,142.98,50.5,245.38,50.5s185.3,83.9,185.3,176h0Z" fill="none" stroke="#020500" stroke-miterlimit="10" stroke-width="4"/><path d="m48.08,213.9C35.08,86.5,136.38,15,245.28,15s210.2,71.5,197.2,198.9" fill="none" stroke="#020500" stroke-miterlimit="10" stroke-width="4"/><path d="m245.28,30.4c-126.3,2.6-170.2,97.8-176,116.2-6,19.1-17.7,73.8,78.1-5.6,0,0-30.9,89.2,70.8,9,0,0-1.2,28.2,27.1,28.2s27.1-28.2,27.1-28.2c101.7,80.2,70.8-9,70.8-9,95.8,79.5,84.1,24.7,78.1,5.6-5.8-18.4-49.7-113.6-176-116.2Z" fill="#b6c0f3" stroke-width="0"/><path d="m245.28,30.4c-126.3,2.6-170.2,97.8-176,116.2-6,19.1-17.7,73.8,78.1-5.6,0,0-30.9,89.2,70.8,9,0,0-1.2,28.2,27.1,28.2s27.1-28.2,27.1-28.2c101.7,80.2,70.8-9,70.8-9,95.8,79.5,84.1,24.7,78.1,5.6-5.8-18.4-49.7-113.6-176-116.2Z" fill="none" stroke="#020500" stroke-linecap="round" stroke-linejoin="round" stroke-width="4"/><circle cx="340.98" cy="284.8" r="27" fill="#b6c0f3" stroke-width="0"/><circle cx="149.58" cy="284.8" r="27" fill="#b6c0f3" stroke-width="0"/><path d="m31.28,313.8c14.8.5,29.5-.8,44-3.9,2.3-.5,3.9-2.9,3.7-5.6-3.9-43.5-7.8-87-11.7-130.4-.2-2.7-2.2-4.8-4.6-4.9-14.8-.5-29.5.8-44,3.9-2.3.5-3.9,2.9-3.6,5.6,3.9,43.5,7.8,87,11.6,130.4.2,2.8,2.2,4.9,4.6,4.9Z" fill="#888beb" stroke-width="0"/><path d="m31.28,313.8c14.8.5,29.5-.8,44-3.9,2.3-.5,3.9-2.9,3.7-5.6-3.9-43.5-7.8-87-11.7-130.4-.2-2.7-2.2-4.8-4.6-4.9-14.8-.5-29.5.8-44,3.9-2.3.5-3.9,2.9-3.6,5.6,3.9,43.5,7.8,87,11.6,130.4.2,2.8,2.2,4.9,4.6,4.9Z" fill="none" stroke="#020500" stroke-linecap="round" stroke-linejoin="round" stroke-width="4"/><path d="m459.38,313.8c-14.8.5-29.5-.8-44-3.9-2.3-.5-3.9-2.9-3.6-5.6,3.9-43.5,7.8-87,11.6-130.4.2-2.7,2.2-4.8,4.6-4.9,14.8-.5,29.5.8,44,3.9,2.3.5,3.9,2.9,3.6,5.6-3.9,43.5-7.8,87-11.6,130.4-.2,2.8-2.2,4.9-4.6,4.9Z" fill="#888beb" stroke-width="0"/><path d="m459.38,313.8c-14.8.5-29.5-.8-44-3.9-2.3-.5-3.9-2.9-3.6-5.6,3.9-43.5,7.8-87,11.6-130.4.2-2.7,2.2-4.8,4.6-4.9,14.8-.5,29.5.8,44,3.9,2.3.5,3.9,2.9,3.6,5.6-3.9,43.5-7.8,87-11.6,130.4-.2,2.8-2.2,4.9-4.6,4.9Z" fill="none" stroke="#020500" stroke-linecap="round" stroke-linejoin="round" stroke-width="4"/><path d="m338.58,219.4c-26,8.9-37.4,18.5-35.4,23.2,2.2,5.3,17-2.5,39.6,9.8" fill="none" stroke="#020500" stroke-linecap="round" stroke-linejoin="round" stroke-width="4"/><path d="m151.98,219.4c26,8.9,37.4,18.5,35.4,23.2-2.2,5.3-17-2.5-39.6,9.8" fill="none" stroke="#020500" stroke-linecap="round" stroke-linejoin="round" stroke-width="4"/><path d="m210.78,283.1c0-6.4,15.5-4.9,34.5-4.9s34.5-1.4,34.5,4.9c0,11-15.5,22.9-34.5,22.9s-34.5-11.8-34.5-22.9h0Z" fill="#020500" stroke-width="0"/></svg>