<?xml version="1.0" encoding="UTF-8"?><svg id="Layer_1" xmlns="http://www.w3.org/2000/svg" viewBox="0 0 465.46 428.02"><path d="m35.11,256.13C22.1,128.67,123.41,57.18,232.33,57.18s210.24,71.49,197.23,198.95" fill="#868af1" stroke-width="0"/><path d="m417.72,268.69c0,92.06-83,157.33-185.38,157.33S46.95,360.75,46.95,268.69,129.95,92.64,232.33,92.64s185.38,83.99,185.38,176.05h0Z" fill="#fff" stroke-width="0"/><path d="m417.72,268.69c0,92.06-83,157.33-185.38,157.33S46.95,360.75,46.95,268.69,129.95,92.64,232.33,92.64s185.38,83.99,185.38,176.05h0Z" fill="none" stroke="#010500" stroke-miterlimit="10" stroke-width="4"/><path d="m35.11,256.13C22.1,128.67,123.41,57.18,232.33,57.18s210.24,71.49,197.23,198.95" fill="none" stroke="#010500" stroke-miterlimit="10" stroke-width="4"/><path d="m232.33,72.59c-126.32,2.61-170.21,97.82-176.05,116.23-6.04,19.06-17.73,73.83,78.11-5.63,0,0-30.88,89.22,70.79,9.01,0,0-1.24,28.21,27.15,28.21s27.15-28.21,27.15-28.21c101.68,80.21,70.79-9.01,70.79-9.01,95.84,79.46,84.15,24.69,78.11,5.63-5.84-18.41-49.73-113.62-176.05-116.23Z" fill="#b3bff6" stroke-width="0"/><path d="m232.33,72.59c-126.32,2.61-170.21,97.82-176.05,116.23-6.04,19.06-17.73,73.83,78.11-5.63,0,0-30.88,89.22,70.79,9.01,0,0-1.24,28.21,27.15,28.21s27.15-28.21,27.15-28.21c101.68,80.21,70.79-9.01,70.79-9.01,95.84,79.46,84.15,24.69,78.11,5.63-5.84-18.41-49.73-113.62-176.05-116.23Z" fill="none" stroke="#010500" stroke-linecap="round" stroke-linejoin="round" stroke-width="4"/><circle cx="328.02" cy="327.04" r="27.03" fill="#b3bff6" stroke-width="0"/><circle cx="136.65" cy="327.04" r="27.03" fill="#b3bff6" stroke-width="0"/><path d="m18.26,356.05c14.79.48,29.54-.84,44.01-3.93,2.31-.49,3.89-2.9,3.65-5.6-3.88-43.48-7.77-86.96-11.65-130.43-.24-2.7-2.23-4.79-4.59-4.87-14.79-.48-29.54.84-44.01,3.93-2.31.49-3.89,2.9-3.65,5.6,3.88,43.48,7.77,86.96,11.65,130.43.24,2.7,2.23,4.79,4.59,4.87Z" fill="#868af1" stroke-width="0"/><path d="m18.26,356.05c14.79.48,29.54-.84,44.01-3.93,2.31-.49,3.89-2.9,3.65-5.6-3.88-43.48-7.77-86.96-11.65-130.43-.24-2.7-2.23-4.79-4.59-4.87-14.79-.48-29.54.84-44.01,3.93-2.31.49-3.89,2.9-3.65,5.6,3.88,43.48,7.77,86.96,11.65,130.43.24,2.7,2.23,4.79,4.59,4.87Z" fill="none" stroke="#010500" stroke-linecap="round" stroke-linejoin="round" stroke-width="4"/><path d="m446.4,356.05c-14.79.48-29.54-.84-44.01-3.93-2.31-.49-3.89-2.9-3.65-5.6,3.88-43.48,7.77-86.96,11.65-130.43.24-2.7,2.23-4.79,4.59-4.87,14.79-.48,29.54.84,44.01,3.93,2.31.49,3.89,2.9,3.65,5.6-3.88,43.48-7.77,86.96-11.65,130.43-.24,2.7-2.23,4.79-4.59,4.87Z" fill="#868af1" stroke-width="0"/><path d="m446.4,356.05c-14.79.48-29.54-.84-44.01-3.93-2.31-.49-3.89-2.9-3.65-5.6,3.88-43.48,7.77-86.96,11.65-130.43.24-2.7,2.23-4.79,4.59-4.87,14.79-.48,29.54.84,44.01,3.93,2.31.49,3.89,2.9,3.65,5.6-3.88,43.48-7.77,86.96-11.65,130.43-.24,2.7-2.23,4.79-4.59,4.87Z" fill="none" stroke="#010500" stroke-linecap="round" stroke-linejoin="round" stroke-width="4"/><path d="m339.33,291.81c-7.26-34.82-50.28-34.82-57.54,0" fill="none" stroke="#010500" stroke-linecap="round" stroke-linejoin="round" stroke-width="4"/><path d="m182.88,291.81c-7.26-34.82-50.28-34.82-57.54,0" fill="none" stroke="#010500" stroke-linecap="round" stroke-linejoin="round" stroke-width="4"/><path d="m283.39,320.74c-22.73,38.43-78.33,38.43-101.06,0" fill="none" stroke="#010500" stroke-linecap="round" stroke-linejoin="round" stroke-width="4"/><path d="m265.68,8.24c-8.22,8.25-8.22,21.54-8.22,48.11v8.29c0,26.57,0,39.85,8.22,48.11,4.36,4.37,10.12,6.43,18.51,7.4,1.33,2.65,3.13,5.78,5.31,9.56l.71,1.24c6.35,11.05,9.53,16.58,14.3,16.58s7.94-5.53,14.3-16.58l.71-1.24c1.94-3.38,3.59-6.24,4.87-8.7h84.94c26.46,0,39.69,0,47.91-8.25s8.22-21.54,8.22-48.11v-8.29c0-26.57,0-39.85-8.22-48.11-8.22-8.25-21.45-8.25-47.91-8.25h-95.75c-26.46,0-39.69,0-47.91,8.25h.01Z" fill="#6067ef" fill-rule="evenodd" stroke-width="0"/><path id="Vector_404" d="m308.45,55.38v8.29" fill="none" stroke="#fff" stroke-linecap="round" stroke-linejoin="round" stroke-width="18"/><path id="Vector_405" d="m364.38,55.38v8.29" fill="none" stroke="#fff" stroke-linecap="round" stroke-linejoin="round" stroke-width="18"/><path id="Vector_406" d="m420.3,55.38v8.29" fill="none" stroke="#fff" stroke-linecap="round" stroke-linejoin="round" stroke-width="18"/></svg>