<?xml version="1.0" encoding="UTF-8"?><svg id="Layer_1" xmlns="http://www.w3.org/2000/svg" viewBox="0 0 548.47 398.8"><path d="m457.48,215.4l-29.8-3c5-48.6-7.9-91.3-37.1-123.7-33.7-37.3-86.6-58.7-145.2-58.7s-111.5,21.4-145.2,58.7c-29.3,32.3-42.1,75.1-37.2,123.7l-29.8,3c-5.8-57.2,9.6-108,44.7-146.9C117.28,25,178.28,0,245.28,0s128.1,25,167.4,68.6c35.2,38.8,50.6,89.6,44.8,146.8h0Z" fill="#fff" stroke-width="0"/><path d="m245.28,398.8c-53.7,0-103.7-16.9-140.7-47.6-38.4-31.9-59.6-76.2-59.6-124.7s21.5-97.1,58.9-133.3c38.4-37.2,88.7-57.7,141.5-57.7s103.1,20.5,141.5,57.7c33.5,32.5,54.3,74.9,58.2,118.3h.7v15c0,48.5-21.2,92.8-59.7,124.7-37.1,30.7-87.1,47.6-140.8,47.6h0Z" fill="#fff" stroke-width="0"/><path d="m245.28,398.8c-53.7,0-103.7-16.9-140.7-47.6-38.4-31.9-59.6-76.2-59.6-124.7s21.5-97.1,58.9-133.3c38.4-37.2,88.7-57.7,141.5-57.7s103.1,20.5,141.5,57.7c33.5,32.5,54.3,74.9,58.2,118.3h.7v15c0,48.5-21.2,92.8-59.7,124.7-37.1,30.7-87.1,47.6-140.8,47.6h0Z" fill="#fff" stroke-width="0"/><path d="m457.48,215.4l-29.8-3c5-48.6-7.9-91.3-37.1-123.7-33.7-37.3-86.6-58.7-145.2-58.7s-111.5,21.4-145.2,58.7c-29.3,32.3-42.1,75.1-37.2,123.7l-29.8,3c-5.8-57.2,9.6-108,44.7-146.9C117.28,25,178.28,0,245.28,0s128.1,25,167.4,68.6c35.2,38.8,50.6,89.6,44.8,146.8h0Z" fill="#fff" stroke-width="0"/><path d="m333.68,198.4c-8.7,0-23.4-2.7-53-23.5-1.3,2.2-3,4.3-4.9,6.3-5.2,5.5-14.8,12-30.5,12s-25.3-6.5-30.5-12c-1.9-2-3.5-4.1-4.9-6.3-29.6,20.8-44.2,23.5-53,23.5-9.6,0-17.8-4-22.9-11.2-2.5-3.6-4.3-7.8-5.2-12.8-18.3,13-37,23.3-51.6,23.3-8.8,0-16.4-3.6-21.2-10.2-7.2-9.8-7.5-25.1-1-45.5,4.3-13.6,19-43.6,46.7-70.3,37.1-35.7,86.7-55.2,143.3-56.4h.6c56.6,1.2,106.1,20.7,143.3,56.4,27.8,26.7,42.4,56.8,46.7,70.3,6.5,20.4,6.1,35.7-1,45.5-4.8,6.6-12.3,10.2-21.2,10.2h0c-14.6,0-33.3-10.3-51.6-23.3-.9,4.6-2.5,9-5.2,12.8-5.1,7.2-13.3,11.2-22.9,11.2Z" fill="#fff" stroke-width="0"/><path d="m333.68,198.4c-8.7,0-23.4-2.7-53-23.5-1.3,2.2-3,4.3-4.9,6.3-5.2,5.5-14.8,12-30.5,12s-25.3-6.5-30.5-12c-1.9-2-3.5-4.1-4.9-6.3-29.6,20.8-44.2,23.5-53,23.5-9.6,0-17.8-4-22.9-11.2-2.5-3.6-4.3-7.8-5.2-12.8-18.3,13-37,23.3-51.6,23.3-8.8,0-16.4-3.6-21.2-10.2-7.2-9.8-7.5-25.1-1-45.5,4.3-13.6,19-43.6,46.7-70.3,37.1-35.7,86.7-55.2,143.3-56.4h.6c56.6,1.2,106.1,20.7,143.3,56.4,27.8,26.7,42.4,56.8,46.7,70.3,6.5,20.4,6.1,35.7-1,45.5-4.8,6.6-12.3,10.2-21.2,10.2h0c-14.6,0-33.3-10.3-51.6-23.3-.9,4.6-2.5,9-5.2,12.8-5.1,7.2-13.3,11.2-22.9,11.2Z" fill="#fff" stroke-width="0"/><path d="m340.98,326.9c-23.2,0-42-18.9-42-42s18.9-42,42-42,42,18.9,42,42-18.8,42-42,42Z" fill="#fff" stroke-width="0"/><circle cx="149.58" cy="284.8" r="42" fill="#fff" stroke-width="0"/><path d="m37.18,328.9c-2.1,0-4.3,0-6.4-.1-10-.3-18.1-8.3-19-18.5L.08,179.9c-.9-10.3,5.7-19.5,15.5-21.6,13.5-2.9,27.4-4.4,41.2-4.4,2.1,0,4.3,0,6.4.1,10,.3,18.1,8.3,19,18.5l11.6,130.4c.9,10.3-5.7,19.5-15.5,21.6-13.4,3-27.3,4.4-41.1,4.4h0Z" fill="#fff" stroke-width="0"/><path d="m37.18,328.9c-2.1,0-4.3,0-6.4-.1-10-.3-18.1-8.3-19-18.5L.08,179.9c-.9-10.3,5.7-19.5,15.5-21.6,13.5-2.9,27.4-4.4,41.2-4.4,2.1,0,4.3,0,6.4.1,10,.3,18.1,8.3,19,18.5l11.6,130.4c.9,10.3-5.7,19.5-15.5,21.6-13.4,3-27.3,4.4-41.1,4.4h0Z" fill="#fff" stroke-width="0"/><path d="m453.48,328.9c-13.8,0-27.7-1.5-41.2-4.4-9.7-2.1-16.4-11.3-15.5-21.6l11.7-130.4c.9-10.2,9.1-18.2,19-18.5,2.1-.1,4.3-.1,6.4-.1,13.8,0,27.7,1.5,41.2,4.4,9.7,2.1,16.4,11.3,15.5,21.6l-11.7,130.4c-.9,10.2-9.1,18.2-19,18.5-2.1.1-4.3.1-6.4.1Z" fill="#fff" stroke-width="0"/><path d="m453.48,328.9c-13.8,0-27.7-1.5-41.2-4.4-9.7-2.1-16.4-11.3-15.5-21.6l11.7-130.4c.9-10.2,9.1-18.2,19-18.5,2.1-.1,4.3-.1,6.4-.1,13.8,0,27.7,1.5,41.2,4.4,9.7,2.1,16.4,11.3,15.5,21.6l-11.7,130.4c-.9,10.2-9.1,18.2-19,18.5-2.1.1-4.3.1-6.4.1Z" fill="#fff" stroke-width="0"/><ellipse cx="245.28" cy="292.9" rx="37.7" ry="42" fill="#fff" stroke-width="0"/><path d="m324.88,264.6c-18.3,0-34.3-7.7-41.8-20.3l25.7-15.5c1.7,2.8,7.9,5.8,16.1,5.8h.3c8-.1,13.8-2.8,15.3-5.6l25.9,15.1c-7.4,12.7-22.7,20.3-41.1,20.5h-.4Z" fill="#fff" stroke-width="0"/><path d="m166.18,264.6c-18.3,0-34.3-7.7-41.8-20.3l25.7-15.5c1.7,2.8,7.9,5.8,16.1,5.8h.3c8-.1,13.8-2.8,15.3-5.6l25.9,15.1c-7.4,12.7-22.7,20.3-41.1,20.5h-.4Z" fill="#fff" stroke-width="0"/><path d="m48.08,213.9C35.08,86.5,136.38,15,245.28,15s210.2,71.5,197.2,198.9" fill="#888beb" stroke-width="0"/><path d="m430.68,226.5c0,92.1-83,157.3-185.4,157.3S59.98,318.5,59.98,226.5,142.98,50.5,245.38,50.5s185.3,83.9,185.3,176h0Z" fill="#fff" stroke-width="0"/><path d="m430.68,226.5c0,92.1-83,157.3-185.4,157.3S59.98,318.5,59.98,226.5,142.98,50.5,245.38,50.5s185.3,83.9,185.3,176h0Z" fill="none" stroke="#020500" stroke-miterlimit="10" stroke-width="4"/><path d="m48.08,213.9C35.08,86.5,136.38,15,245.28,15s210.2,71.5,197.2,198.9" fill="none" stroke="#020500" stroke-miterlimit="10" stroke-width="4"/><path d="m245.28,30.4c-126.3,2.6-170.2,97.8-176,116.2-6,19.1-17.7,73.8,78.1-5.6,0,0-30.9,89.2,70.8,9,0,0-1.2,28.2,27.1,28.2s27.1-28.2,27.1-28.2c101.7,80.2,70.8-9,70.8-9,95.8,79.5,84.1,24.7,78.1,5.6-5.8-18.4-49.7-113.6-176-116.2Z" fill="#b6c0f3" stroke-width="0"/><path d="m245.28,30.4c-126.3,2.6-170.2,97.8-176,116.2-6,19.1-17.7,73.8,78.1-5.6,0,0-30.9,89.2,70.8,9,0,0-1.2,28.2,27.1,28.2s27.1-28.2,27.1-28.2c101.7,80.2,70.8-9,70.8-9,95.8,79.5,84.1,24.7,78.1,5.6-5.8-18.4-49.7-113.6-176-116.2Z" fill="none" stroke="#020500" stroke-linecap="round" stroke-linejoin="round" stroke-width="4"/><circle cx="340.98" cy="284.8" r="27" fill="#b6c0f3" stroke-width="0"/><circle cx="149.58" cy="284.8" r="27" fill="#b6c0f3" stroke-width="0"/><path d="m31.28,313.8c14.8.5,29.5-.8,44-3.9,2.3-.5,3.9-2.9,3.7-5.6-3.9-43.5-7.8-87-11.7-130.4-.2-2.7-2.2-4.8-4.6-4.9-14.8-.5-29.5.8-44,3.9-2.3.5-3.9,2.9-3.6,5.6,3.9,43.5,7.8,87,11.6,130.4.2,2.8,2.2,4.9,4.6,4.9Z" fill="#888beb" stroke-width="0"/><path d="m31.28,313.8c14.8.5,29.5-.8,44-3.9,2.3-.5,3.9-2.9,3.7-5.6-3.9-43.5-7.8-87-11.7-130.4-.2-2.7-2.2-4.8-4.6-4.9-14.8-.5-29.5.8-44,3.9-2.3.5-3.9,2.9-3.6,5.6,3.9,43.5,7.8,87,11.6,130.4.2,2.8,2.2,4.9,4.6,4.9Z" fill="none" stroke="#020500" stroke-linecap="round" stroke-linejoin="round" stroke-width="4"/><path d="m459.38,313.8c-14.8.5-29.5-.8-44-3.9-2.3-.5-3.9-2.9-3.6-5.6,3.9-43.5,7.8-87,11.6-130.4.2-2.7,2.2-4.8,4.6-4.9,14.8-.5,29.5.8,44,3.9,2.3.5,3.9,2.9,3.6,5.6-3.9,43.5-7.8,87-11.6,130.4-.2,2.8-2.2,4.9-4.6,4.9Z" fill="#888beb" stroke-width="0"/><path d="m459.38,313.8c-14.8.5-29.5-.8-44-3.9-2.3-.5-3.9-2.9-3.6-5.6,3.9-43.5,7.8-87,11.6-130.4.2-2.7,2.2-4.8,4.6-4.9,14.8-.5,29.5.8,44,3.9,2.3.5,3.9,2.9,3.6,5.6-3.9,43.5-7.8,87-11.6,130.4-.2,2.8-2.2,4.9-4.6,4.9Z" fill="none" stroke="#020500" stroke-linecap="round" stroke-linejoin="round" stroke-width="4"/><ellipse cx="245.28" cy="292.9" rx="22.7" ry="27" fill="#020500" stroke-width="0"/><path d="m295.88,236.5c10.4,17.3,47.4,17.5,57.5,0" fill="none" stroke="#020500" stroke-linecap="round" stroke-linejoin="round" stroke-width="4"/><path d="m137.18,236.5c10.4,17.3,47.4,17.5,57.5,0" fill="none" stroke="#020500" stroke-linecap="round" stroke-linejoin="round" stroke-width="4"/><path d="m479.58,152.2c-.9,0-1.9-.3-2.7-.8-1.6-1-2.5-2.8-2.3-4.7l4.5-45.8-24.7,13.5c-2.4,1.3-5.5.4-6.8-2s-.4-5.5,2-6.8l33-18c1.6-.9,3.6-.8,5.2.2,1.5,1,2.4,2.8,2.2,4.7l-4.4,45.4,18.6-11.1c2.4-1.4,5.4-.6,6.9,1.7,1.4,2.4.6,5.4-1.7,6.9l-27.1,16.1c-.9.5-1.8.7-2.7.7Z" fill="#fff" stroke-width="0"/><path d="m506.78,106.4c-.9,0-1.9-.3-2.7-.8-1.6-1-2.5-2.8-2.3-4.7l2.8-27.9-14,7.6c-2.4,1.3-5.5.4-6.8-2s-.4-5.5,2-6.8l22.3-12.1c1.6-.9,3.6-.8,5.2.2,1.5,1,2.4,2.8,2.2,4.7l-2.7,27.5,9.9-5.9c2.4-1.4,5.4-.6,6.8,1.8s.6,5.4-1.8,6.9l-18.4,10.9c-.7.4-1.6.6-2.5.6Z" fill="#fff" stroke-width="0"/><path d="m530.88,72c-.9,0-1.9-.3-2.7-.8-1.6-1-2.5-2.8-2.3-4.7l1.6-16.2-7,3.8c-2.4,1.3-5.5.4-6.8-2s-.4-5.5,2-6.8l15.3-8.3c1.6-.9,3.6-.8,5.1.2s2.4,2.8,2.2,4.7l-1.5,15.8,4.1-2.4c2.4-1.4,5.4-.6,6.9,1.7,1.4,2.4.6,5.4-1.7,6.9l-12.6,7.5c-.8.4-1.7.6-2.6.6Z" fill="#fff" stroke-width="0"/><polyline points="451.98 110 484.98 92 479.58 147.2 506.68 131.1" fill="none" stroke="#020500" stroke-linecap="round" stroke-linejoin="round" stroke-width="4"/><polyline points="488.18 76.2 510.48 64.1 506.78 101.4 525.18 90.5" fill="none" stroke="#020500" stroke-linecap="round" stroke-linejoin="round" stroke-width="4"/><polyline points="518.08 49.7 533.38 41.4 530.88 67 543.48 59.5" fill="none" stroke="#020500" stroke-linecap="round" stroke-linejoin="round" stroke-width="4"/></svg>