<svg width='100%' height='100%' viewBox="0 0 164 200" fill="currentColor" xmlns="http://www.w3.org/2000/svg">
<g clip-path="url(#clip0_3266_27078)">
<path d="M0 32C0 16.9151 0 9.37258 4.68629 4.68629C9.37258 0 16.9151 0 32 0H131.5C146.585 0 154.127 0 158.814 4.68629C163.5 9.37258 163.5 16.9151 163.5 32V168C163.5 183.085 163.5 190.627 158.814 195.314C154.127 200 146.585 200 131.5 200H32C16.9151 200 9.37258 200 4.68629 195.314C0 190.627 0 183.085 0 168V32Z" fill="#313B6B"/>
<path opacity="0.2" fill-rule="evenodd" clip-rule="evenodd" d="M45.0183 138.386C40.5899 119.439 52.3594 100.49 71.306 96.0618L77.3096 94.6585C96.2562 90.2302 115.206 102 119.634 120.946L122.589 133.589C122.589 133.591 122.59 133.594 122.591 133.597C122.674 133.952 122.933 134.195 123.17 134.14C123.407 134.084 123.531 133.751 123.448 133.396C123.444 133.375 123.438 133.355 123.432 133.335C123.433 133.335 123.433 133.335 123.434 133.335L120.492 120.746C116.063 101.799 127.833 82.8498 146.779 78.4214L152.783 77.0182C171.73 72.5899 190.679 84.3593 195.107 103.306L196.51 109.31C200.939 128.256 189.169 147.206 170.223 151.634L157.73 154.554L157.74 154.566C157.685 154.569 157.629 154.577 157.572 154.591C157.217 154.674 156.974 154.933 157.029 155.17C157.085 155.407 157.418 155.531 157.773 155.448C157.849 155.43 157.921 155.404 157.985 155.372C157.985 155.381 157.985 155.39 157.984 155.399L170.423 152.492C189.37 148.063 208.319 159.833 212.748 178.779L214.151 184.783C218.579 203.73 206.81 222.679 187.863 227.107L181.86 228.51C162.913 232.939 143.964 221.169 139.535 202.223L136.628 189.784L136.619 189.788L136.604 189.796C136.605 189.724 136.596 189.649 136.578 189.572C136.495 189.217 136.236 188.974 135.999 189.029C135.762 189.085 135.638 189.418 135.721 189.773C135.734 189.829 135.752 189.883 135.773 189.933L135.758 189.931L138.677 202.423C143.106 221.37 131.336 240.319 112.39 244.747L106.386 246.151C87.4396 250.579 68.4902 238.81 64.0618 219.863L62.6586 213.859C58.2302 194.913 69.9997 175.963 88.9464 171.535L101.536 168.593L101.535 168.591C101.549 168.588 101.563 168.586 101.577 168.583C101.583 168.581 101.59 168.58 101.597 168.578C101.952 168.495 102.195 168.236 102.14 167.999C102.084 167.762 101.752 167.638 101.396 167.721L101.388 167.723L88.7459 170.677C69.7993 175.106 50.8499 163.336 46.4215 144.39L45.0183 138.386Z" fill="#556CD6"/>
</g>
<defs>
<clipPath id="clip0_3266_27078">
<rect width="100%" height="100%" rx="0" fill="currentColor"/>
</clipPath>
</defs>
</svg>
