<svg width="18" height="18" viewBox="0 0 18 18" fill="none" xmlns="http://www.w3.org/2000/svg">
<path d="M6.75 16.5H11.25C15 16.5 16.5 15 16.5 11.25V6.75C16.5 3 15 1.5 11.25 1.5H6.75C3 1.5 1.5 3 1.5 6.75V11.25C1.5 15 3 16.5 6.75 16.5Z" stroke="#fff" stroke-width="1.5" stroke-linecap="round" stroke-linejoin="round"/>
<path d="M11.6777 13.875V10.95" stroke="#fff" stroke-width="1.5" stroke-miterlimit="10" stroke-linecap="round" stroke-linejoin="round"/>
<path d="M11.6777 5.5875V4.125" stroke="#fff" stroke-width="1.5" stroke-miterlimit="10" stroke-linecap="round" stroke-linejoin="round"/>
<path d="M11.6766 9.4874C12.7535 9.4874 13.6266 8.61436 13.6266 7.5374C13.6266 6.46045 12.7535 5.5874 11.6766 5.5874C10.5996 5.5874 9.72656 6.46045 9.72656 7.5374C9.72656 8.61436 10.5996 9.4874 11.6766 9.4874Z" fill='#fff' stroke="#fff" stroke-width="1.5" stroke-miterlimit="10" stroke-linecap="round" stroke-linejoin="round"/>
<path d="M6.32227 13.8751V12.4126" stroke="#fff" stroke-width="1.5" stroke-miterlimit="10" stroke-linecap="round" stroke-linejoin="round"/>
<path d="M6.32227 7.05V4.125" stroke="#fff" stroke-width="1.5" stroke-miterlimit="10" stroke-linecap="round" stroke-linejoin="round"/>
<path d="M6.32305 12.4125C7.4 12.4125 8.27305 11.5394 8.27305 10.4625C8.27305 9.3855 7.4 8.51245 6.32305 8.51245C5.24609 8.51245 4.37305 9.3855 4.37305 10.4625C4.37305 11.5394 5.24609 12.4125 6.32305 12.4125Z"  fill='#fff' stroke="#fff" stroke-width="1.5" stroke-miterlimit="10" stroke-linecap="round" stroke-linejoin="round"/>
</svg>
