<svg width="335" height="20" viewBox="0 0 335 20" fill="none" xmlns="http://www.w3.org/2000/svg">
<path fill-rule="evenodd" clip-rule="evenodd" d="M0.997024 20H0V0H0.997024V20ZM4.98512 20H2.99107V0H4.98512V20ZM8.97321 20H6.97917V0H8.97321V20ZM12.9613 20H10.9673V0H12.9613V20ZM16.9494 20H14.9554V0H16.9494V20ZM20.9375 20H18.9435V0H20.9375V20ZM24.9256 20H22.9315V0H24.9256V20ZM28.9137 20H26.9196V0H28.9137V20ZM32.9018 20H30.9077V0H32.9018V20ZM36.8899 20H34.8958V0H36.8899V20ZM40.878 20H38.8839V0H40.878V20ZM44.8661 20H42.872V0H44.8661V20ZM48.8542 20H46.8601V0H48.8542V20ZM52.8423 20H50.8482V0H52.8423V20ZM56.8304 20H54.8363V0H56.8304V20ZM60.8185 20H58.8244V0H60.8185V20ZM64.8066 20H62.8125V0H64.8066V20ZM68.7947 20H66.8006V0H68.7947V20ZM72.7828 20H70.7887V0H72.7828V20ZM76.7709 20H74.7768V0H76.7709V20ZM80.759 20H78.7649V0H80.759V20ZM84.7471 20H82.753V0H84.7471V20ZM88.7352 20H86.7411V0H88.7352V20ZM92.7233 20H90.7292V0H92.7233V20ZM96.7113 20H94.7173V0H96.7113V20ZM100.699 20H98.7054V0H100.699V20ZM104.688 20H102.693V0H104.688V20ZM108.676 20H106.682V0H108.676V20ZM112.664 20H110.67V0H112.664V20ZM116.652 20H114.658V0H116.652V20ZM120.64 20H118.646V0H120.64V20ZM124.628 20H122.634V0H124.628V20ZM128.616 20H126.622V0H128.616V20ZM132.604 20H130.61V0H132.604V20ZM136.592 20H134.598V0H136.592V20ZM140.58 20H138.586V0H140.58V20ZM144.569 20H142.574V0H144.569V20ZM148.557 20H146.563V0H148.557V20ZM152.545 20H150.551V0H152.545V20ZM156.533 20H154.539V0H156.533V20ZM160.521 20H158.527V0H160.521V20ZM164.509 20H162.515V0H164.509V20ZM168.497 20H166.503V0H168.497V20ZM172.485 20H170.491V0H172.485V20ZM176.473 20H174.479V0H176.473V20ZM180.461 20H178.467V0H180.461V20ZM184.449 20H182.455V0H184.449V20ZM188.438 20H186.444V0H188.438V20ZM192.426 20H190.432V0H192.426V20ZM196.414 20H194.42V0H196.414V20ZM200.402 20H198.408V0H200.402V20ZM204.39 20H202.396V0H204.39V20ZM208.378 20H206.384V0H208.378V20ZM212.366 20H210.372V0H212.366V20ZM216.354 20H214.36V0H216.354V20ZM220.342 20H218.348V0H220.342V20ZM224.331 20H222.336V0H224.331V20ZM228.319 20H226.325V0H228.319V20ZM232.307 20H230.313V0H232.307V20ZM236.295 20H234.301V0H236.295V20ZM240.283 20H238.289V0H240.283V20ZM244.271 20H242.277V0H244.271V20ZM248.259 20H246.265V0H248.259V20ZM252.247 20H250.253V0H252.247V20ZM256.235 20H254.241V0H256.235V20ZM260.223 20H258.229V0H260.223V20ZM264.211 20H262.217V0H264.211V20ZM268.2 20H266.206V0H268.2V20ZM272.188 20H270.194V0H272.188V20ZM276.176 20H274.182V0H276.176V20ZM280.164 20H278.17V0H280.164V20ZM284.152 20H282.158V0H284.152V20ZM288.14 20H286.146V0H288.14V20ZM292.128 20H290.134V0H292.128V20ZM296.116 20H294.122V0H296.116V20ZM300.104 20H298.11V0H300.104V20ZM304.092 20H302.098V0H304.092V20ZM308.081 20H306.086V0H308.081V20ZM312.069 20H310.075V0H312.069V20ZM316.057 20H314.063V0H316.057V20ZM320.045 20H318.051V0H320.045V20ZM324.033 20H322.039V0H324.033V20ZM328.021 20H326.027V0H328.021V20ZM332.009 20H330.015V0H332.009V20ZM335 20H334.003V0H335V20Z" fill="url(#paint0_linear_1734_22341)"/>
<defs>
<linearGradient id="paint0_linear_1734_22341" x1="-6.58291e-08" y1="8.50002" x2="335" y2="9.5" gradientUnits="userSpaceOnUse">
<stop stop-color="#E4E9F8" stop-opacity="0"/>
<stop offset="0.503785" stop-color="#E4E9F8" stop-opacity="0.75"/>
<stop offset="1" stop-color="#E4E9F8" stop-opacity="0"/>
</linearGradient>
</defs>
</svg>
