<svg width="18" height="18" viewBox="0 0 18 18" fill="none" xmlns="http://www.w3.org/2000/svg">
<path d="M10.5028 3H7.49723C4.66357 3 3.24674 3 2.36644 3.87868C1.70746 4.53644 1.54178 5.49429 1.50012 7.12083C1.49478 7.32936 1.6659 7.49601 1.86807 7.54888C2.51306 7.71755 2.9889 8.30331 2.9889 9C2.9889 9.69669 2.51306 10.2824 1.86807 10.4511C1.6659 10.504 1.49478 10.6706 1.50012 10.8792C1.54178 12.5057 1.70746 13.4636 2.36644 14.1213C3.24674 15 4.66357 15 7.49723 15H10.5028C13.3364 15 14.7533 15 15.6336 14.1213C16.2925 13.4636 16.4582 12.5057 16.4999 10.8792C16.5052 10.6706 16.3341 10.504 16.1319 10.4511C15.4869 10.2824 15.0111 9.69669 15.0111 9C15.0111 8.30331 15.4869 7.71755 16.1319 7.54888C16.3341 7.49601 16.5052 7.32936 16.4999 7.12083C16.4582 5.49429 16.2925 4.53644 15.6336 3.87868C14.7533 3 13.3364 3 10.5028 3Z" stroke="#fff" stroke-width="1.5"/>
<path d="M7.70437 7.15171L7.70437 7.15171C7.7112 7.13946 7.71804 7.12717 7.72491 7.11484C7.84906 6.89193 7.97938 6.65793 8.11126 6.48572C8.2508 6.30351 8.53381 6 9 6C9.46619 6 9.7492 6.30351 9.88874 6.48572C10.0206 6.65793 10.1509 6.89193 10.2751 7.11484C10.282 7.12717 10.2888 7.13946 10.2956 7.15171L10.3694 7.28398L10.3707 7.28646L10.5066 7.3172C10.5203 7.3203 10.5341 7.32341 10.5479 7.32653C10.7878 7.38068 11.0454 7.43885 11.2469 7.51827C11.4742 7.60784 11.82 7.79691 11.9533 8.22553C12.084 8.64598 11.9154 8.99597 11.7879 9.19849C11.6719 9.38277 11.4987 9.58511 11.334 9.77754C11.325 9.78811 11.316 9.79866 11.307 9.80918L11.2094 9.92332L11.1968 9.91257L11.2094 9.92332L11.199 9.93548C11.1997 9.94247 11.2004 9.94984 11.2011 9.95761L11.2159 10.1099C11.2172 10.1236 11.2186 10.1374 11.2199 10.1512C11.245 10.4089 11.271 10.6764 11.2613 10.8942C11.251 11.1249 11.1945 11.5213 10.8361 11.7934C10.4654 12.0748 10.0602 12.0078 9.83088 11.9421C9.62319 11.8825 9.38246 11.7716 9.15811 11.6682C9.14512 11.6622 9.13218 11.6562 9.1193 11.6503L9.43297 10.969L9.1193 11.6503L9 11.5953L8.8807 11.6503C8.86783 11.6562 8.85489 11.6622 8.84189 11.6681C8.61754 11.7716 8.37682 11.8825 8.16912 11.9421C7.93976 12.0078 7.53461 12.0748 7.16392 11.7934M7.70437 7.15171L7.16392 11.7934M7.70437 7.15171L7.63064 7.28398L7.63064 7.28398L7.62925 7.28646L7.49339 7.3172L7.49338 7.3172C7.47968 7.3203 7.4659 7.32341 7.45206 7.32653C7.21223 7.38068 6.9546 7.43885 6.75308 7.51827C6.5258 7.60784 6.18004 7.79691 6.04675 8.22553C5.916 8.64598 6.0846 8.99597 6.21209 9.19849C6.3281 9.38277 6.50127 9.58511 6.66595 9.77753C6.675 9.78811 6.68403 9.79866 6.69302 9.80918L6.79063 9.92332L6.8032 9.91256L6.79063 9.92332L6.80101 9.93548C6.80033 9.94247 6.79962 9.94984 6.79887 9.95761L6.82179 9.95983L6.79887 9.95761L6.78411 10.1099C6.78278 10.1236 6.78144 10.1374 6.7801 10.1512C6.75503 10.4089 6.72903 10.6764 6.73873 10.8942C6.74901 11.1249 6.80548 11.5213 7.16392 11.7934M7.70437 7.15171L7.16392 11.7934M7.56222 7.40327C7.56203 7.40355 7.56203 7.40354 7.56223 7.40326L7.56222 7.40327ZM9.00041 11.5556L9.29892 10.9073L9.00041 11.5556Z" stroke="#fff" stroke-width="1.5"/>
</svg>
