<svg width="24" height="24" viewBox="0 0 24 24" fill="none" xmlns="http://www.w3.org/2000/svg">
<path d="M15 5.33333C15 4.97971 15.1054 4.64057 15.2929 4.39052C15.4804 4.14048 15.7348 4 16 4C16.2652 4 16.5196 4.14048 16.7071 4.39052C16.8946 4.64057 17 4.97971 17 5.33333V18.6667C17 19.0203 16.8946 19.3594 16.7071 19.6095C16.5196 19.8595 16.2652 20 16 20C15.7348 20 15.4804 19.8595 15.2929 19.6095C15.1054 19.3594 15 19.0203 15 18.6667V5.33333ZM7 5.33333C7 4.97971 7.10536 4.64057 7.29289 4.39052C7.48043 4.14048 7.73478 4 8 4C8.26522 4 8.51957 4.14048 8.70711 4.39052C8.89464 4.64057 9 4.97971 9 5.33333V18.6667C9 19.0203 8.89464 19.3594 8.70711 19.6095C8.51957 19.8595 8.26522 20 8 20C7.73478 20 7.48043 19.8595 7.29289 19.6095C7.10536 19.3594 7 19.0203 7 18.6667V5.33333Z" fill="white"/>
</svg>
