<svg width="24" height="24" viewBox="0 0 24 24" fill="none" xmlns="http://www.w3.org/2000/svg">
<path d="M18.7713 11.6865C16.5476 9.57588 13.7155 11.5983 12.0007 13.3131C10.2859 11.5983 7.45386 9.57588 5.23007 11.6865C1.55697 15.1746 8.77 22.1169 12.0007 22.6492C15.2314 22.1169 22.4444 15.1746 18.7713 11.6865Z" fill="white"/>
<path d="M18.7713 11.6865C16.5476 9.57588 13.7155 11.5983 12.0007 13.3131C10.2859 11.5983 7.45386 9.57588 5.23007 11.6865C1.55697 15.1746 8.77 22.1169 12.0007 22.6492C15.2314 22.1169 22.4444 15.1746 18.7713 11.6865Z" stroke="#9399b1" stroke-width="1.71429" stroke-linecap="round" stroke-linejoin="round"/>
<path d="M6.79688 19.145L7.58737 18.3545L11.9999 13.3125L16.4124 18.3545L17.2029 19.145" stroke="#9399b1" stroke-width="1.71429" stroke-linecap="round" stroke-linejoin="round"/>
<path d="M12.0008 8.14279C13.8944 8.14279 15.4294 6.60776 15.4294 4.71422C15.4294 2.82067 13.8944 1.28564 12.0008 1.28564C10.1073 1.28564 8.57227 2.82067 8.57227 4.71422C8.57227 6.60776 10.1073 8.14279 12.0008 8.14279Z" fill="white"/>
<path d="M12.0008 8.14279C13.8944 8.14279 15.4294 6.60776 15.4294 4.71422C15.4294 2.82067 13.8944 1.28564 12.0008 1.28564C10.1073 1.28564 8.57227 2.82067 8.57227 4.71422C8.57227 6.60776 10.1073 8.14279 12.0008 8.14279Z" stroke="#9399b1" stroke-width="1.71429" stroke-linecap="round" stroke-linejoin="round"/>
</svg>
