<svg width="32" height="33" viewBox="0 0 32 33" fill="none" xmlns="http://www.w3.org/2000/svg">
<path d="M28 23.1667V16.5C28 14.0465 27.2637 11.765 26 9.86441M4 23.1667V16.5C4 9.87258 9.37258 4.5 16 4.5C17.9158 4.5 19.7267 4.94894 21.3333 5.74736" stroke="#E5EAF9" stroke-width="2" stroke-linecap="round"/>
<path d="M29.334 21.1665V23.8332" stroke="#E5EAF9" stroke-width="2" stroke-linecap="round"/>
<path d="M2.66602 21.1665V23.8332" stroke="#E5EAF9" stroke-width="2" stroke-linecap="round"/>
<path d="M10.6667 18.9595C10.6667 17.9403 10.6667 17.4307 10.4337 17.0764C10.3164 16.898 10.1608 16.7507 9.97919 16.646C9.61828 16.438 9.13083 16.4861 8.15592 16.5822C6.51316 16.7442 5.69178 16.8252 5.10316 17.2686C4.80526 17.493 4.55517 17.7791 4.36861 18.109C4 18.7607 4 19.6194 4 21.3368V23.4244C4 25.1247 4 25.9748 4.37597 26.6314C4.51669 26.8772 4.69308 27.0988 4.89888 27.2885C5.4487 27.7951 6.25125 27.9534 7.85636 28.2699C8.98592 28.4927 9.55069 28.6041 9.96752 28.3695C10.1213 28.2829 10.2573 28.1657 10.3676 28.0246C10.6667 27.642 10.6667 27.0437 10.6667 25.8472V18.9595Z" stroke="#E5EAF9" stroke-width="2"/>
<path d="M21.334 18.9595C21.334 17.9403 21.334 17.4307 21.567 17.0764C21.6842 16.898 21.8398 16.7507 22.0215 16.646C22.3824 16.438 22.8698 16.4861 23.8447 16.5822C25.4875 16.7442 26.3089 16.8252 26.8975 17.2686C27.1954 17.493 27.4455 17.7791 27.632 18.109C28.0007 18.7607 28.0007 19.6194 28.0007 21.3368V23.4244C28.0007 25.1247 28.0007 25.9748 27.6247 26.6314C27.484 26.8772 27.3076 27.0988 27.1018 27.2885C26.552 27.7951 25.7494 27.9534 24.1443 28.2699C23.0147 28.4927 22.45 28.6041 22.0331 28.3695C21.8793 28.2829 21.7434 28.1657 21.633 28.0246C21.334 27.642 21.334 27.0437 21.334 25.8472V18.9595Z" stroke="#E5EAF9" stroke-width="2"/>
</svg>
