<svg width="37" height="12" viewBox="0 0 37 12" fill="none" xmlns="http://www.w3.org/2000/svg">
<path d="M6.72 1.564C6.314 1.116 5.362 0.836 4.382 0.836C2.254 0.836 0.938 2.194 0.938 3.706C0.938 7.052 6.216 5.722 6.216 8.522C6.216 9.404 5.53 10.37 4.102 10.37C2.968 10.37 2.254 9.6 1.82 9.04C1.288 8.354 1.232 7.934 0.868 7.934C0.686 7.934 0.518 8.06 0.518 8.34C0.518 8.592 0.546 8.816 0.56 9.124C0.574 9.432 0.644 9.754 0.812 10.048C1.204 10.748 2.45 11.154 3.696 11.154C6.286 11.154 7.49 9.362 7.49 7.934C7.49 4.476 2.212 5.68 2.212 3.132C2.212 2.362 2.828 1.564 3.962 1.564C5.124 1.564 5.712 2.488 6.062 3.006C6.3 3.356 6.398 3.692 6.706 3.692C7.056 3.692 7.098 3.258 7.098 2.894C7.098 2.446 7 1.872 6.72 1.564ZM15.5834 6.31C15.5834 5.33 15.4154 4.826 15.1074 4.406C14.7294 3.874 14.0714 3.538 13.2734 3.538C12.2234 3.538 11.4394 4.112 11.0054 4.756C10.9774 4.798 10.9634 4.826 10.9354 4.826C10.9074 4.826 10.8934 4.798 10.8934 4.756V0.92C10.8934 0.654 10.7674 0.528 10.5854 0.528C10.5014 0.528 10.4174 0.555999 10.3194 0.598C9.95542 0.766 9.53542 0.906 9.01742 1.018C8.69542 1.088 8.62542 1.186 8.62542 1.34C8.62542 1.648 9.21342 1.578 9.43742 1.914C9.56342 2.096 9.57742 2.348 9.57742 2.796V8.536C9.57742 9.222 9.53542 9.698 9.40942 9.978C9.19942 10.426 8.69542 10.44 8.69542 10.734C8.69542 10.93 8.86342 11 9.07342 11H11.3974C11.6074 11 11.7754 10.93 11.7754 10.734C11.7754 10.482 11.3274 10.44 11.0894 10.034C10.9354 9.768 10.8934 9.25 10.8934 8.536C10.8934 6.38 11.0194 5.624 11.5514 5.092C11.8874 4.756 12.3354 4.602 12.7554 4.602C13.5814 4.602 14.2254 5.12 14.2254 6.352V8.536C14.2254 9.236 14.1834 9.74 14.0434 10.006C13.8194 10.44 13.3434 10.454 13.3434 10.734C13.3434 10.93 13.5254 11 13.7354 11H16.0874C16.2974 11 16.4794 10.93 16.4794 10.734C16.4794 10.482 16.0314 10.426 15.7934 10.062C15.6254 9.796 15.5834 9.264 15.5834 8.536V6.31ZM21.6864 7.29C21.6864 8.144 21.6724 8.76 21.3924 9.348C21.0564 10.034 20.4264 10.342 19.8804 10.342C19.1384 10.342 18.7604 9.838 18.7604 9.278C18.7604 8.886 18.9564 8.452 19.4604 8.116C20.1324 7.668 21.0564 7.43 21.5464 7.052C21.6024 7.01 21.6164 6.996 21.6444 6.996C21.6724 6.996 21.6864 7.024 21.6864 7.052V7.29ZM23.4924 10.146C23.2124 10.146 23.0444 9.922 23.0444 9.432C23.0444 8.312 23.0864 7.024 23.0864 5.932C23.0864 4.546 22.1624 3.538 20.3704 3.538C19.5724 3.538 18.4384 3.734 18.0604 4.224C17.8924 4.434 17.8224 4.882 17.8224 5.246C17.8224 5.61 17.8784 5.932 18.2144 5.932C18.5224 5.932 18.5644 5.68 18.8444 5.288C19.1944 4.798 19.6284 4.252 20.4684 4.252C21.2244 4.252 21.6864 4.728 21.6864 5.4C21.6864 6.156 21.0704 6.562 20.5104 6.814C19.7404 7.178 18.8724 7.332 18.1444 7.822C17.5564 8.2 17.2764 8.788 17.2764 9.348C17.2764 10.314 18.1024 11.154 19.4604 11.154C20.3284 11.154 21.1964 10.79 21.7004 10.034C21.7284 9.992 21.7284 9.978 21.7564 9.978C21.7844 9.978 21.7844 10.02 21.7844 10.048C21.8684 10.874 22.3864 11.154 22.8484 11.154C23.4644 11.154 23.8984 10.636 23.8984 10.37C23.8984 10.23 23.7864 10.146 23.6604 10.146H23.4924ZM29.1656 3.538C28.2696 3.538 27.5136 4.42 27.2196 5.022C27.2056 5.05 27.1916 5.092 27.1636 5.092C27.1356 5.092 27.1356 5.064 27.1356 5.036V3.93C27.1356 3.678 27.0236 3.538 26.8136 3.538C26.7156 3.538 26.6036 3.566 26.4776 3.622C26.0716 3.804 25.7916 3.902 25.3296 4C25.0356 4.056 24.9516 4.154 24.9516 4.308C24.9516 4.616 25.4976 4.56 25.7496 4.924C25.8756 5.106 25.9316 5.442 25.9316 6.044V8.55C25.9316 9.236 25.8896 9.684 25.7776 9.95C25.5536 10.454 25.0496 10.44 25.0496 10.734C25.0496 10.93 25.2176 11 25.4416 11H27.7516C27.9756 11 28.1436 10.93 28.1436 10.734C28.1436 10.426 27.6816 10.482 27.4296 9.978C27.2896 9.698 27.2616 9.236 27.2616 8.55C27.2616 6.464 27.4996 5.806 27.8356 5.302C28.0736 4.938 28.3676 4.812 28.6336 4.812C29.0536 4.812 29.2356 5.12 29.5716 5.12C29.9356 5.12 30.0476 4.812 30.0476 4.476C30.0476 3.916 29.7116 3.538 29.1656 3.538ZM31.8904 6.212C32.0584 5.176 32.7724 4.224 33.8924 4.224C34.8864 4.224 35.4464 4.994 35.4464 5.638C35.4464 6.282 35.0824 6.45 34.2704 6.45C34.2704 6.45 32.0864 6.45 31.9884 6.45C31.9044 6.45 31.8764 6.436 31.8764 6.366C31.8764 6.352 31.8764 6.324 31.8904 6.212ZM36.4124 9.194C36.0764 9.194 35.5164 10.146 34.1444 10.146C32.6604 10.146 31.8204 8.83 31.8204 7.36V7.29C31.8204 7.192 31.8764 7.15 31.9744 7.15C32.0724 7.15 35.7684 7.15 35.7684 7.15C36.4544 7.136 36.8744 7.01 36.8744 6.156C36.8744 5.176 36.0344 3.538 34.0184 3.538C31.8484 3.538 30.3924 5.512 30.3924 7.556C30.3924 9.474 31.6524 11.154 33.7944 11.154C35.6564 11.154 36.7204 9.88 36.7204 9.488C36.7204 9.292 36.5804 9.194 36.4124 9.194Z" fill="white"/>
</svg>
