<svg xmlns="http://www.w3.org/2000/svg" fill="none" viewBox="0 0 14 14"><path stroke="#fff" stroke-linejoin="round" d="M9.305 1.396h-4.61L3.55 3.469l-.675.058A2.093 2.093 0 0 0 .991 5.296C.864 6.156.75 7.042.75 7.947c0 .905.114 1.791.241 2.652.14.95.928 1.686 1.884 1.769 1.372.118 2.747.236 4.125.236 1.378 0 2.753-.118 4.125-.236a2.093 2.093 0 0 0 1.884-1.77c.127-.86.241-1.746.241-2.65 0-.906-.114-1.792-.241-2.652a2.093 2.093 0 0 0-1.884-1.77l-.675-.057-1.145-2.073Z"></path><path stroke="#fff" stroke-linecap="round" stroke-linejoin="round" d="M7 9.902a2.25 2.25 0 1 0 0-4.5 2.25 2.25 0 0 0 0 4.5Z"></path></svg>