<?xml version="1.0" standalone="no"?>
<!DOCTYPE svg PUBLIC "-//W3C//DTD SVG 20010904//EN"
 "http://www.w3.org/TR/2001/REC-SVG-20010904/DTD/svg10.dtd">
<svg version="1.0" xmlns="http://www.w3.org/2000/svg"
 width="150.000000pt" height="150.000000pt" viewBox="0 0 150.000000 150.000000"
 preserveAspectRatio="xMidYMid meet">

<g transform="translate(0.000000,150.000000) scale(0.100000,-0.100000)"
fill="#000000" stroke="none">
<path d="M695 1357 c-42 -15 -69 -42 -275 -287 -25 -29 -50 -58 -55 -64 -6 -6
-83 -96 -173 -199 -168 -195 -184 -223 -144 -253 32 -25 56 -15 107 41 l50 56
0 -168 c0 -245 10 -298 67 -349 63 -58 66 -58 433 -62 400 -5 456 1 516 55 62
56 73 105 74 330 l0 192 52 -55 c34 -36 60 -54 75 -54 56 0 64 56 15 114 -42
52 -160 190 -167 196 -3 3 -99 113 -212 246 -130 152 -218 246 -237 254 -41
16 -90 19 -126 7z m103 -129 c17 -18 61 -69 98 -113 38 -44 71 -82 74 -85 39
-36 192 -227 195 -243 33 -201 35 -467 3 -549 -14 -37 -66 -60 -131 -56 l-52
3 -5 175 c-5 170 -6 176 -33 217 -96 149 -318 142 -400 -12 -19 -35 -22 -62
-27 -210 l-5 -170 -45 -3 c-64 -5 -117 13 -134 46 -29 58 -36 268 -15 457 12
106 22 135 61 175 13 14 53 59 88 100 140 164 251 289 263 293 24 10 35 6 65
-25z m40 -693 l32 -35 0 -160 0 -161 -121 3 -121 3 1 155 c2 173 7 189 72 223
49 26 96 16 137 -28z"/>
</g>
</svg>
