<?xml version="1.0" encoding="UTF-8"?><svg id="Layer_1" xmlns="http://www.w3.org/2000/svg" viewBox="0 0 532.5 372.84"><path d="m35.11,200.95C22.1,73.49,123.41,2,232.33,2s210.24,71.49,197.23,198.95" fill="#888beb" stroke-width="0"/><path d="m417.72,213.51c0,92.06-83,157.33-185.38,157.33S46.95,305.57,46.95,213.51,129.95,37.46,232.33,37.46s185.38,83.99,185.38,176.05h0Z" fill="#fff" stroke-width="0"/><path d="m417.72,213.51c0,92.06-83,157.33-185.38,157.33S46.95,305.57,46.95,213.51,129.95,37.46,232.33,37.46s185.38,83.99,185.38,176.05h0Z" fill="none" stroke="#020500" stroke-miterlimit="10" stroke-width="4"/><path d="m35.11,200.95C22.1,73.49,123.41,2,232.33,2s210.24,71.49,197.23,198.95" fill="none" stroke="#020500" stroke-miterlimit="10" stroke-width="4"/><path d="m232.33,17.41c-126.32,2.61-170.21,97.82-176.05,116.23-6.04,19.06-17.73,73.83,78.11-5.63,0,0-30.88,89.22,70.79,9.01,0,0-1.24,28.21,27.15,28.21s27.15-28.21,27.15-28.21c101.68,80.21,70.79-9.01,70.79-9.01,95.84,79.46,84.15,24.69,78.11,5.63-5.84-18.41-49.73-113.62-176.05-116.23Z" fill="#b6c0f3" stroke-width="0"/><path d="m232.33,17.41c-126.32,2.61-170.21,97.82-176.05,116.23-6.04,19.06-17.73,73.83,78.11-5.63,0,0-30.88,89.22,70.79,9.01,0,0-1.24,28.21,27.15,28.21s27.15-28.21,27.15-28.21c101.68,80.21,70.79-9.01,70.79-9.01,95.84,79.46,84.15,24.69,78.11,5.63-5.84-18.41-49.73-113.62-176.05-116.23Z" fill="none" stroke="#020500" stroke-linecap="round" stroke-linejoin="round" stroke-width="4"/><circle cx="328.02" cy="271.86" r="27.03" fill="#b6c0f3" stroke-width="0"/><circle cx="136.65" cy="271.86" r="27.03" fill="#b6c0f3" stroke-width="0"/><path d="m18.26,300.87c14.79.48,29.54-.84,44.01-3.93,2.31-.49,3.89-2.9,3.65-5.6-3.88-43.48-7.77-86.96-11.65-130.43-.24-2.7-2.23-4.79-4.59-4.87-14.79-.48-29.54.84-44.01,3.93-2.31.49-3.89,2.9-3.65,5.6,3.88,43.48,7.77,86.96,11.65,130.43.24,2.7,2.23,4.79,4.59,4.87Z" fill="#888beb" stroke-width="0"/><path d="m18.26,300.87c14.79.48,29.54-.84,44.01-3.93,2.31-.49,3.89-2.9,3.65-5.6-3.88-43.48-7.77-86.96-11.65-130.43-.24-2.7-2.23-4.79-4.59-4.87-14.79-.48-29.54.84-44.01,3.93-2.31.49-3.89,2.9-3.65,5.6,3.88,43.48,7.77,86.96,11.65,130.43.24,2.7,2.23,4.79,4.59,4.87Z" fill="none" stroke="#020500" stroke-linecap="round" stroke-linejoin="round" stroke-width="4"/><path d="m446.4,300.87c-14.79.48-29.54-.84-44.01-3.93-2.31-.49-3.89-2.9-3.65-5.6,3.88-43.48,7.77-86.96,11.65-130.43.24-2.7,2.23-4.79,4.59-4.87,14.79-.48,29.54.84,44.01,3.93,2.31.49,3.89,2.9,3.65,5.6-3.88,43.48-7.77,86.96-11.65,130.43-.24,2.7-2.23,4.79-4.59,4.87Z" fill="#888beb" stroke-width="0"/><path d="m446.4,300.87c-14.79.48-29.54-.84-44.01-3.93-2.31-.49-3.89-2.9-3.65-5.6,3.88-43.48,7.77-86.96,11.65-130.43.24-2.7,2.23-4.79,4.59-4.87,14.79-.48,29.54.84,44.01,3.93,2.31.49,3.89,2.9,3.65,5.6-3.88,43.48-7.77,86.96-11.65,130.43-.24,2.7-2.23,4.79-4.59,4.87Z" fill="none" stroke="#020500" stroke-linecap="round" stroke-linejoin="round" stroke-width="4"/><ellipse cx="232.33" cy="279.9" rx="22.72" ry="26.96" fill="#020500" stroke-width="0"/><path d="m282.91,223.57c10.39,17.26,47.38,17.48,57.54,0" fill="none" stroke="#020500" stroke-linecap="round" stroke-linejoin="round" stroke-width="4"/><path d="m124.22,223.57c10.39,17.26,47.38,17.48,57.54,0" fill="none" stroke="#020500" stroke-linecap="round" stroke-linejoin="round" stroke-width="4"/><polyline points="438.96 97.05 471.96 79.05 466.56 134.24 493.67 118.14" fill="none" stroke="#020500" stroke-linecap="round" stroke-linejoin="round" stroke-width="4"/><polyline points="475.16 63.27 497.49 51.09 493.84 88.44 512.19 77.55" fill="none" stroke="#020500" stroke-linecap="round" stroke-linejoin="round" stroke-width="4"/><polyline points="505.1 36.78 520.42 28.43 517.91 54.06 530.5 46.58" fill="none" stroke="#020500" stroke-linecap="round" stroke-linejoin="round" stroke-width="4"/></svg>