<?xml version="1.0" encoding="UTF-8"?><svg id="Layer_1" xmlns="http://www.w3.org/2000/svg" viewBox="0 0 93.5 43.62"><path d="m88.49,27.26c-1.56-1.56-3.4-2.81-5.44-3.67,5.14-3.68,6.33-10.83,2.65-15.97-3.68-5.14-10.83-6.33-15.97-2.65-5.14,3.68-6.33,10.83-2.65,15.97.73,1.02,1.63,1.92,2.66,2.65-2.99,1.26-5.56,3.35-7.4,6.02-2.03-3.33-5.07-5.92-8.68-7.38,5.55-3.81,6.96-11.4,3.15-16.95-3.81-5.55-11.4-6.96-16.95-3.15s-6.96,11.4-3.15,16.95c.85,1.24,1.93,2.31,3.17,3.16-3.61,1.48-6.65,4.06-8.7,7.38-1.84-2.67-4.41-4.77-7.4-6.03,5.14-3.68,6.33-10.83,2.65-15.97-3.68-5.14-10.83-6.33-15.97-2.65s-6.33,10.83-2.65,15.97c.73,1.02,1.63,1.92,2.65,2.65C4.12,26.28,0,32.49,0,39.37v2.5c0,.97.78,1.75,1.75,1.75h90c.97,0,1.75-.78,1.75-1.75v-2.5c.01-4.54-1.79-8.9-5.01-12.11Zm-20.05-12.96c0-4.39,3.56-7.95,7.95-7.95s7.95,3.56,7.95,7.95c0,4.38-3.54,7.93-7.91,7.95h-.07c-4.37-.03-7.91-3.57-7.91-7.95Zm-30.38-2.11c0-4.8,3.89-8.69,8.69-8.69,4.8,0,8.69,3.89,8.69,8.69,0,4.8-3.89,8.69-8.69,8.69-4.8,0-8.69-3.89-8.69-8.69Zm-28.9,2.11c0-4.39,3.56-7.95,7.95-7.95,4.39,0,7.95,3.56,7.95,7.95,0,4.37-3.53,7.93-7.91,7.95h-.07c-4.38-.02-7.91-3.57-7.92-7.95h0Zm-5.66,25.07c0-7.5,6.07-13.59,13.58-13.62h.07c3.6,0,7.05,1.44,9.58,3.99,1.09,1.09,1.99,2.37,2.64,3.77-.6,1.83-.91,3.74-.91,5.67v.95H3.5v-.75Zm28.46-.2c0-8.17,6.62-14.79,14.79-14.79s14.79,6.62,14.79,14.79v.95h-29.58v-.95Zm58.04.95h-24.96v-.95c0-1.93-.31-3.84-.92-5.67,2.24-4.72,7-7.74,12.22-7.75h.07c7.51.02,13.58,6.11,13.58,13.62v.75Z" fill="#fff" stroke-width="0"/></svg>