<?xml version="1.0" encoding="UTF-8"?><svg id="icons" xmlns="http://www.w3.org/2000/svg" viewBox="0 0 128 128"><g id="row1"><g id="_5"><g id="error_transparent_copy"><path d="m64,.3C28.7.3,0,28.8,0,64s28.7,63.7,64,63.7,64-28.5,64-63.7S99.3.3,64,.3Zm0,121c-31.8,0-57.6-25.6-57.6-57.3S32.2,6.7,64,6.7s57.6,25.7,57.6,57.3-25.8,57.3-57.6,57.3Zm23.2-76.8c-.9-.9-2.3-.9-3.2,0l-28.8,28.7-13.8-13.7c-.9-.9-2.3-.9-3.2,0l-4.8,4.8c-.9.9-.9,2.3,0,3.2l15.3,15.3h0l3.3,3.3.8.8h0l.7.7c.9.9,2.3.9,3.2,0l35.3-35.1c.9-.9.9-2.3,0-3.2l-4.8-4.8Z" fill="#fff" stroke-width="0"/></g></g></g></svg>