<?xml version="1.0" encoding="UTF-8"?><svg id="Layer_1" xmlns="http://www.w3.org/2000/svg" viewBox="0 0 93.51 93.5"><path d="m70.32,60.09l-10.02,10.02-4.43-4.43c-1.08-1.07-2.82-1.07-3.9,0-.52.52-.81,1.21-.81,1.95s.29,1.43.81,1.95l6.38,6.38c.52.52,1.21.81,1.95.81s1.43-.29,1.95-.81l11.97-11.97c1.08-1.07,1.08-2.82,0-3.9-1.08-1.07-2.82-1.07-3.9,0Zm2.89,2.89l-11.97,11.97c-.5.5-1.37.5-1.87,0l-6.38-6.38c-.25-.25-.39-.58-.39-.94s.14-.69.39-.94.6-.39.94-.39.68.13.94.39l4.94,4.94c.28.28.73.28,1.01,0l10.52-10.52c.52-.52,1.36-.52,1.87,0,.25.25.39.58.39.94s-.14.69-.39.94Z" fill="#fff" stroke-width="0"/><path d="m88.58,82.98h-1.54c.18-.46.31-.94.36-1.45l2.45-26.35c.13-1.34-.32-2.68-1.23-3.69-.91-1-2.21-1.58-3.56-1.58h-23.05c-3.74-3.43-8.19-5.85-12.99-7.14,7.39-3.73,12.47-11.37,12.47-20.18C61.49,10.14,51.31,0,38.81,0s-22.69,10.14-22.69,22.61c0,8.81,5.08,16.45,12.48,20.18-13.33,3.58-23.17,15.77-23.17,30.22v9.98h-.49c-2.72,0-4.93,2.21-4.93,4.93v.66c0,2.72,2.21,4.93,4.93,4.93h83.65c2.72,0,4.93-2.21,4.93-4.93v-.66c0-2.72-2.21-4.93-4.93-4.93Zm-2.55-29.13c.15.16.39.51.34,1,0,0,0,0,0,0l-2.45,26.35c-.09,1-.95,1.78-1.96,1.78h-42.15l2.65-28.37c.06-.68.62-1.19,1.3-1.19h41.3c.5,0,.82.27.97.43ZM19.62,22.61c0-10.54,8.61-19.11,19.19-19.11s19.19,8.57,19.19,19.11-8.58,19.08-19.14,19.1h-.1c-10.56-.03-19.14-8.59-19.14-19.1Zm-10.7,50.39c0-15.32,12.47-27.79,27.79-27.79h2s.06,0,.1,0,.06,0,.1,0h2c5.58,0,10.93,1.65,15.47,4.71h-12.61c-2.51,0-4.56,1.89-4.78,4.38l-2.68,28.68H8.92v-9.98Zm81.09,15.57c0,.79-.64,1.43-1.43,1.43H4.93c-.79,0-1.43-.64-1.43-1.43v-.66c0-.79.64-1.43,1.43-1.43h83.65c.79,0,1.43.64,1.43,1.43v.66Z" fill="#fff" stroke-width="0"/></svg>