<?xml version="1.0" encoding="UTF-8"?><svg id="Layer_1" xmlns="http://www.w3.org/2000/svg" viewBox="0 0 22 20"><path d="m1,0h16.64c1.46,0,2.72,1.02,3,2.46l1.31,7c.16.87-.07,1.76-.64,2.44-.58.7-1.45,1.1-2.36,1.1h-4.77v4c0,2.06-2.11,3-4.08,3-.55,0-1-.45-1-1,0-1.91-.34-3.91-.72-4.28l-2.79-2.72H1c-.55,0-1-.45-1-1V1C0,.45.45,0,1,0Zm6,10.58l2.77,2.7c.93.91,1.21,3.11,1.3,4.58.54-.13,1.11-.38,1.11-.87v-5c0-.55.45-1,1-1h5.77c.32,0,.62-.14.82-.38.19-.22.26-.52.21-.8l-1.3-7c-.11-.49-.55-.83-1.04-.82H7v8.58Zm-5-.58h3V2h-3v8Z" fill="#fff" stroke-width="0"/></svg>