<?xml version="1.0" encoding="UTF-8"?><svg id="Capa_1" xmlns="http://www.w3.org/2000/svg" viewBox="0 0 512 512"><path d="m509.07,398.86l-48.86-48.84c-2.86-25.55-10.46-49.83-22.64-72.23-2.64-4.85-8.71-6.65-13.56-4.01-4.85,2.64-6.65,8.71-4.01,13.56,7.64,14.05,13.28,28.93,16.86,44.45-32.1-23.45-46.46-30.21-57.72-24.83-11.59,5.54-12.06,21.12-12.43,33.64l-1.98,65.84-1.98,45.31c-.14,3.29-1.57,6.33-4.02,8.58-2.45,2.25-5.6,3.41-8.88,3.26-6.83-.3-12.15-6.1-11.85-12.93l.69-15.74c0-.1.02-.2.02-.3,0-.05,0-.1,0-.15l1.28-29.19c.24-5.52-4.04-10.19-9.55-10.43-5.5-.26-10.19,4.04-10.43,9.55l-1.29,29.48c-.38,6.76-6.1,11.99-12.92,11.7-6.83-.3-12.15-6.1-11.85-12.93l.69-15.74c0-.1.02-.2.02-.3,0-.05,0-.1,0-.15l1.28-29.19c.24-5.52-4.04-10.19-9.55-10.43-5.49-.26-10.19,4.04-10.43,9.55l-1.29,29.49c-.18,3.22-1.6,6.2-4.01,8.41-2.46,2.25-5.61,3.39-8.9,3.26-3.29-.14-6.34-1.57-8.59-4.02-2.25-2.45-3.4-5.6-3.26-8.88l.69-15.83c0-.08.01-.16.02-.24,0-.04,0-.08,0-.12l1.28-29.22c.24-5.52-4.04-10.19-9.55-10.43-5.56-.25-10.19,4.04-10.43,9.55l-1.29,29.45c-.36,6.77-6.15,12.02-12.92,11.73-3.28-.14-6.32-1.57-8.56-4.03-2.25-2.46-3.4-5.62-3.26-8.92l.68-16.08,1.3-29.3c.44-10.12-.61-20.52-3.1-31.03,5.39-2.98,9.84-7.45,12.84-13.02,4.1-7.64,5-16.39,2.51-24.67-3.87-12.79-15-21.45-27.52-22.85.98-5.06.73-10.31-.79-15.37-2.48-8.26-8.06-15.07-15.69-19.18-3.74-2.01-7.74-3.24-11.83-3.69.95-4.96.76-10.21-.79-15.37-2.48-8.26-8.06-15.07-15.7-19.18-3.73-2.01-7.74-3.24-11.82-3.69.95-4.97.76-10.23-.8-15.4-2.48-8.26-8.06-15.07-15.71-19.17-7.63-4.09-16.39-4.98-24.65-2.49l-23.51,7.08-47.17-47.19L106.03,24.14l31.82,31.8c-8.05,4.49-14.45,11.98-17.31,21.5-2.79,9.36-1.77,19.27,2.89,27.9,4.66,8.64,12.39,14.94,21.73,17.73l57.58,17.26q13.78,4.12,22.54,12.97c1.08,1.09,2.26,2.28,3.58,3.6l24.14,24.14c10.09,10.12,22.75,20.94,45.31,21.19,20.65.26,44.12,8.63,66.08,23.56,1.72,1.17,3.68,1.73,5.61,1.73,3.2,0,6.35-1.53,8.28-4.38,3.1-4.57,1.92-10.79-2.65-13.89-11.78-8.01-24.03-14.34-36.26-18.87l-64.24-86.88c-1.36-1.84-2.58-3.57-3.75-5.24-6.94-9.85-12.42-17.64-29.46-22.75l-75.7-22.67c-1.39-.42-2.78-.74-4.17-.99L113.11,2.93c-3.91-3.9-10.24-3.9-14.14,0L2.93,98.96c-3.9,3.9-3.9,10.24,0,14.14l46.69,46.71c-7.5,2.72-13.66,8.05-17.48,15.16-4.1,7.65-4.98,16.41-2.49,24.65,2.48,8.26,8.06,15.07,15.71,19.17,3.73,2,7.73,3.22,11.81,3.67-.98,5.07-.73,10.33.81,15.4,2.48,8.27,8.06,15.08,15.71,19.18,3.73,2,7.73,3.23,11.8,3.67-.95,4.97-.76,10.23.79,15.4,3.88,12.81,15.01,21.44,27.52,22.82-.98,5.07-.73,10.33.79,15.4,2.48,8.26,8.06,15.07,15.69,19.18,4.8,2.58,10.04,3.89,15.33,3.89,3.12,0,6.26-.46,9.33-1.38l30.8-9.29c1.75,8.06,2.49,15.98,2.16,23.65l-1.3,29.3-.68,16.08c-.38,8.62,2.63,16.88,8.48,23.28,5.85,6.4,13.82,10.13,22.44,10.51.48.02.96.03,1.43.03,4.87,0,9.51-1.09,13.68-3.05,1.44,3.84,3.62,7.41,6.49,10.53,5.86,6.38,13.83,10.1,22.44,10.48.48.02.96.03,1.44.03,4.78,0,9.42-1.05,13.67-3.05,4.42,11.8,15.57,20.46,28.94,21.04.48.02.96.03,1.43.03,4.87,0,9.51-1.09,13.69-3.05,4.43,11.79,15.57,20.43,28.93,21.02.48.02.96.03,1.44.03,6.34,0,12.44-1.85,17.69-5.31l30.76,30.76c1.95,1.95,4.51,2.93,7.07,2.93s5.12-.98,7.07-2.93l96.06-96.06c1.88-1.88,2.93-4.42,2.93-7.07,0-2.65-1.05-5.2-2.93-7.07h0ZM139.71,83.17c1.27-4.24,4.15-7.75,8.09-9.87,3.94-2.12,8.44-2.59,12.69-1.31l75.71,22.67c10.41,3.13,12.71,6.39,18.85,15.11,1.18,1.68,2.52,3.58,4.02,5.61l49.94,67.54c-3.52-.4-7-.64-10.42-.69h0s0,0-.01,0c-13.69-.15-21.59-5.5-31.39-15.33l-24.16-24.16c-1.3-1.29-2.45-2.46-3.51-3.53-10.96-11.06-13.39-12.78-31.01-18.05l-57.58-17.27c-4.24-1.26-7.74-4.13-9.86-8.06-2.12-3.94-2.6-8.44-1.34-12.67h0Zm-75.47,118.96c-3.15.95-6.5.6-9.44-.97-2.93-1.57-5.06-4.16-6.01-7.32-.95-3.14-.61-6.49.96-9.42,1.58-2.94,4.18-5.08,7.31-6.03l43.51-13.09c1.17-.35,2.36-.52,3.55-.52,2.02,0,4.04.5,5.89,1.49,2.93,1.57,5.06,4.16,6.01,7.32,1.98,6.54-1.74,13.47-8.29,15.45l-43.49,13.09Zm28.3,38.24c-3.14.95-6.48.61-9.41-.96-2.93-1.57-5.06-4.17-6.01-7.33-.95-3.14-.61-6.48.96-9.41,1.57-2.93,4.17-5.06,7.31-6.01.08-.02.15-.06.23-.08l27.89-8.4s.01,0,.02,0c0,0,15.37-4.64,15.37-4.64,6.54-1.97,13.47,1.75,15.44,8.29,1.95,6.5-1.69,13.37-8.12,15.39,0,0-28.27,8.53-28.28,8.53l-15.4,4.62Zm28.29,38.24c-6.52,1.97-13.44-1.75-15.42-8.27-1.97-6.55,1.75-13.47,8.31-15.44l43.5-13.12c1.16-.35,2.35-.52,3.54-.52,2.03,0,4.04.51,5.89,1.5,2.93,1.58,5.07,4.17,6.01,7.32.95,3.15.6,6.49-.98,9.43-1.57,2.93-4.18,5.07-7.32,6.01h-.01s0,0,0,0l-43.52,13.1Zm79.17,19.13c-1.57,2.93-4.18,5.07-7.33,6.01l-43.5,13.12c-3.15.95-6.49.6-9.43-.98-2.93-1.58-5.07-4.17-6.01-7.32-.95-3.15-.6-6.5.97-9.44,1.57-2.93,4.16-5.06,7.3-6,.08-.02.15-.05.22-.08l43.29-13.04c6.54-1.97,13.49,1.76,15.46,8.3.95,3.15.6,6.49-.98,9.43h0Zm205.94,190.12l-25.24-25.24c1.19-3.16,1.89-6.52,2.04-9.98l1.98-45.38s0-.09,0-.14l1.98-65.91c.28-9.3.93-13.71,1.56-15.76,1.92.46,6.22,2.05,14.76,7.36,8.8,5.47,20.82,14.04,38.68,27.57,1.55,1.17,3.02,2.46,4.4,3.83l41.74,41.72-81.92,81.92Z" fill="#fff" stroke-width="0"/><path d="m395.83,253.22c1.95,1.95,4.5,2.92,7.05,2.92s5.12-.98,7.08-2.94c3.9-3.9,3.89-10.25-.01-14.16-3.91-3.9-10.24-3.9-14.14,0-3.9,3.9-3.9,10.24,0,14.14l.03.03Z" fill="#fff" stroke-width="0"/></svg>