<?xml version="1.0" encoding="UTF-8"?><svg id="Capa_1" xmlns="http://www.w3.org/2000/svg" viewBox="0 0 450.04 175.02"><path d="m397.03,10.85l-76.86,39.48c-6.58-6.72-15.74-10.9-25.86-10.9h-52.78c-2.79,0-3.53-.2-3.58-.21-.43-.24-1.74-1.48-2.79-2.47l-.49-.47C191.89-4.01,155.71-1.46,114.54,14.76c-6.51,2.58-6.63,2.59-13.11,2.87h-11.94C86,7.4,76.27,0,64.85,0H26.04C11.68,0,0,11.68,0,26.04v101.85c0,14.36,11.68,26.04,26.04,26.04h38.81c11.43,0,21.15-7.4,24.65-17.66h21.64q1.88,0,4.03.61c.82.23,1.83.52,3.14.87l100.43,26.87c4.43,1.2,8.49,2.38,12.43,3.52,12.89,3.74,23.73,6.88,35.02,6.88,12.78,0,26.15-4.02,43.74-15.76.08-.06.17-.11.25-.17l123.83-88.17c16.06-11.47,20.76-32.19,10.91-48.21-9.76-15.77-30.34-20.87-47.88-11.85h0ZM70.89,127.89c0,3.33-2.71,6.04-6.04,6.04H26.04c-3.28,0-6.04-2.77-6.04-6.04V26.04c0-3.28,2.77-6.04,6.04-6.04h38.81c3.33,0,6.04,2.71,6.04,6.04v101.85ZM422.39,54.63l-123.69,88.07c-25.31,16.86-36.06,13.74-61.96,6.22-4.02-1.17-8.17-2.37-12.8-3.62l-100.44-26.87c-1.2-.32-2.13-.58-2.89-.8-3.66-1.03-5.03-1.36-9.46-1.36h-20.25V37.66h10.21c.15,0,.3,0,.44-.01l.76-.03c7.9-.35,10.34-.59,19.58-4.25,35.95-14.16,63.68-15.85,99.06,17.48l.48.45c5.99,5.65,9.71,8.13,20.09,8.13h52.78c6,0,11.24,3.28,14.04,8.14.01.02.02.04.03.07.08.16.17.3.26.45,1.19,2.25,1.87,4.8,1.87,7.51,0,8.93-7.26,16.19-16.19,16.19h-85.52c-5.52,0-10,4.48-10,10s4.48,10,10,10h85.52c19.96,0,36.19-16.24,36.19-36.19,0-2.63-.29-5.19-.83-7.66l76.49-39.29c7.13-3.66,16.88-3.26,21.72,4.56,4.26,6.93,1.89,16.15-5.5,21.43h0Z" fill="#fff" stroke-width="0"/></svg>