<?xml version="1.0" encoding="UTF-8"?><svg id="Layer_1" xmlns="http://www.w3.org/2000/svg" viewBox="0 0 117.21 93.5"><path d="m89.43,38.16l-6.75-.96c-1.33-.18-2.45-1.08-2.9-2.34-.37-1.02-.79-2.04-1.26-3.03-.57-1.22-.42-2.65.39-3.72l4.1-5.46c1.41-1.89,1.22-4.53-.44-6.2l-5.5-5.5c-1.67-1.66-4.31-1.85-6.2-.44l-5.46,4.1c-1.07.81-2.51.96-3.72.39-.99-.47-2.01-.89-3.04-1.26-1.26-.46-2.16-1.58-2.34-2.91l-.96-6.75C54.99,1.74,53,.01,50.64,0h-7.78c-2.35.01-4.35,1.74-4.69,4.07l-.96,6.75c-.18,1.33-1.08,2.45-2.34,2.91-1.02.37-2.04.79-3.03,1.26-1.22.57-2.65.42-3.72-.39l-5.46-4.1c-1.89-1.41-4.53-1.22-6.2.44l-5.5,5.5c-1.66,1.67-1.85,4.31-.44,6.2l4.1,5.46c.81,1.07.96,2.51.39,3.72-.47.99-.89,2.01-1.26,3.03-.46,1.26-1.58,2.16-2.91,2.34l-6.75.96c-2.33.34-4.06,2.34-4.07,4.69v7.78c.01,2.35,1.74,4.35,4.07,4.69l6.75.96c1.33.18,2.45,1.08,2.91,2.34.37,1.02.79,2.04,1.26,3.04.57,1.22.42,2.65-.39,3.72l-4.1,5.46c-1.41,1.89-1.22,4.53.44,6.2l5.5,5.5c1.67,1.66,4.31,1.85,6.2.44l5.46-4.1c1.07-.81,2.51-.96,3.73-.39.98.46,2,.89,3.03,1.26,1.26.46,2.16,1.58,2.34,2.9l.96,6.75c.34,2.33,2.34,4.06,4.69,4.07h7.78c2.35-.01,4.35-1.74,4.69-4.07l.96-6.75c.18-1.33,1.08-2.45,2.35-2.91,1.03-.37,2.05-.8,3.03-1.26,1.22-.57,2.65-.42,3.72.39l5.46,4.1c1.89,1.41,4.53,1.22,6.2-.44l5.5-5.5c1.66-1.67,1.85-4.31.44-6.2l-4.1-5.46c-.81-1.07-.96-2.51-.39-3.72.47-.99.89-2.01,1.26-3.04.46-1.26,1.58-2.16,2.9-2.34l6.75-.96c2.33-.34,4.06-2.34,4.07-4.69v-7.78c0-2.35-1.74-4.35-4.07-4.69Zm.57,12.47c0,.62-.46,1.14-1.07,1.23l-6.75.96c-2.61.36-4.8,2.14-5.7,4.62-.33.92-.71,1.84-1.13,2.73-1.13,2.39-.84,5.21.75,7.32l4.1,5.46c.37.49.32,1.18-.11,1.62l-5.5,5.5c-.44.43-1.13.48-1.62.11l-5.46-4.1c-2.11-1.59-4.93-1.88-7.32-.76-.88.42-1.8.8-2.73,1.13-2.48.9-4.26,3.09-4.62,5.7l-.96,6.75c-.09.61-.61,1.06-1.23,1.07h-7.79c-.62,0-1.14-.46-1.23-1.07l-.96-6.75c-.36-2.61-2.14-4.8-4.62-5.7-.93-.33-1.85-.72-2.73-1.13-2.39-1.13-5.21-.84-7.32.76l-5.46,4.1c-.49.37-1.18.32-1.62-.11l-5.5-5.5c-.43-.44-.48-1.13-.11-1.62l4.1-5.46c1.59-2.11,1.88-4.93.76-7.32-.42-.89-.8-1.81-1.13-2.73-.9-2.48-3.09-4.26-5.7-4.62l-6.75-.96c-.61-.09-1.06-.61-1.06-1.23v-7.79c0-.62.46-1.14,1.06-1.23l6.75-.96c2.61-.36,4.8-2.14,5.7-4.62.33-.92.71-1.84,1.13-2.73,1.13-2.39.84-5.21-.76-7.32l-4.09-5.46c-.37-.49-.32-1.18.11-1.62l5.5-5.5c.44-.43,1.13-.48,1.62-.11l5.46,4.1c2.11,1.59,4.93,1.88,7.32.76.89-.42,1.81-.8,2.73-1.13,2.48-.9,4.26-3.09,4.62-5.7l.96-6.75c.09-.61.61-1.06,1.23-1.07h7.78c.62,0,1.14.46,1.23,1.07l.96,6.75c.36,2.61,2.14,4.8,4.62,5.7.92.33,1.84.71,2.73,1.13,2.39,1.13,5.21.84,7.32-.76l5.46-4.09c.49-.37,1.18-.32,1.62.11l5.5,5.5c.43.44.48,1.13.11,1.62l-4.1,5.46c-1.59,2.11-1.88,4.93-.75,7.32.42.89.8,1.81,1.13,2.73.9,2.48,3.09,4.26,5.7,4.62l6.75.96c.61.09,1.06.61,1.07,1.23v7.78Z" fill="#fff" stroke-width="0"/><path d="m46.75,25.64c-11.66,0-21.11,9.45-21.11,21.11s9.45,21.11,21.11,21.11,21.11-9.45,21.11-21.11c-.01-11.65-9.46-21.09-21.11-21.11Zm0,38.71c-9.72,0-17.61-7.88-17.61-17.61s7.88-17.61,17.61-17.61,17.61,7.88,17.61,17.61c-.01,9.72-7.89,17.6-17.61,17.61Z" fill="#fff" stroke-width="0"/><path d="m110.27.81s.36.71.33,1.2l-.02,80.89,3.07-3.02c.79-.77,2.07-.8,2.98.01l.22.33c.55.82.47,1.94-.23,2.65l-6.52,6.53c-.79.77-2.07.8-2.98-.01l-6.53-6.52c-.77-.79-.8-2.07.01-2.98.79-.77,2.07-.8,2.98.01l3.02,3.07.02-80.89C106.55.94,107.5.06,108.65,0c.71,0,1.34.4,1.67.89l-.06-.08Z" fill="#fff" stroke-width="0"/></svg>