<?xml version="1.0" encoding="UTF-8"?><svg id="Layer_1" xmlns="http://www.w3.org/2000/svg" viewBox="0 0 111.94 116.26"><path d="m101.97,58.34c0-9.71-2.95-19.02-8.52-26.91-8.76-12.42-23.05-19.84-38.23-19.84s-29.47,7.42-38.23,19.84c-5.57,7.89-8.52,17.2-8.52,26.91s2.95,19.02,8.52,26.91c8.76,12.42,23.05,19.84,38.23,19.84s29.43-7.4,38.19-19.79c0,0,0,0,0-.01,0-.01.02-.03.03-.04,5.57-7.89,8.52-17.2,8.52-26.91Zm-25.72,20.61c1.37-5.7,2.17-12.08,2.29-18.86h19.89c-.31,7.92-2.76,15.5-7.13,22.08-4.32-1.36-9.44-2.45-15.05-3.22Zm-21.03,22.64c-6.8,0-12.93-7.92-16.52-19.66,5.22-.56,10.8-.86,16.52-.86s11.3.3,16.52.86c-3.59,11.75-9.72,19.66-16.52,19.66Zm0-24.02c-6.04,0-11.95.33-17.47.94-1.39-5.57-2.23-11.83-2.36-18.42h39.65c-.13,6.59-.97,12.85-2.36,18.42-5.52-.61-11.43-.94-17.47-.94Zm-36.09,4.6c-4.37-6.58-6.81-14.16-7.13-22.08h19.89c.12,6.79.92,13.16,2.29,18.86-5.62.78-10.73,1.86-15.05,3.22Zm0-47.67c4.32,1.36,9.44,2.45,15.05,3.22-1.37,5.7-2.17,12.08-2.29,18.86H12.01c.31-7.92,2.76-15.5,7.13-22.08ZM55.22,15.09c6.8,0,12.93,7.92,16.52,19.66-5.22.56-10.8.86-16.52.86s-11.3-.3-16.52-.86c3.59-11.75,9.72-19.66,16.52-19.66Zm0,24.02c6.04,0,11.95-.33,17.47-.94,1.39,5.57,2.23,11.83,2.36,18.42h-39.65c.13-6.59.97-12.85,2.36-18.42,5.52.61,11.43.94,17.47.94Zm36.09-4.6c4.37,6.58,6.81,14.16,7.13,22.08h-19.89c-.12-6.79-.92-13.16-2.29-18.86,5.62-.78,10.73-1.86,15.05-3.22Zm-2.17-3c-4.01,1.18-8.68,2.13-13.79,2.82-2.27-7.74-5.62-13.97-9.67-17.94,9.2,2.3,17.48,7.58,23.46,15.13Zm-44.36-15.13c-4.05,3.97-7.4,10.21-9.67,17.94-5.1-.69-9.77-1.64-13.79-2.82,5.98-7.55,14.26-12.83,23.46-15.13Zm-23.46,68.79c4.01-1.18,8.68-2.13,13.79-2.82,2.27,7.74,5.62,13.97,9.67,17.94-9.2-2.3-17.48-7.58-23.46-15.13Zm44.36,15.13c4.05-3.97,7.4-10.21,9.67-17.94,5.1.69,9.77,1.64,13.79,2.82-5.98,7.55-14.26,12.83-23.46,15.13Z" fill="#fff" stroke-width="0"/><g id="Icon"><path d="m21.98,1.87c1.46,0,2.53.36,3.28,1.09.74.72,1.1,1.75,1.1,3.16,0,1.4-.82,2.93-2.43,4.55l-7.41,7.14-7.43-7.17-.06-.06-.07-.05s-.06-.05-.19-.19c-.05-.05-.21-.23-.61-.72-.28-.35-.53-.71-.75-1.07-.19-.32-.37-.72-.53-1.21-.14-.43-.21-.83-.21-1.22,0-1.4.36-2.44,1.1-3.16.75-.73,1.82-1.09,3.28-1.09.34,0,.69.06,1.06.18.41.14.79.32,1.13.55.43.28.81.55,1.11.79.29.23.58.49.84.75l1.33,1.32,1.33-1.33c.26-.26.55-.52.84-.75.3-.24.68-.51,1.11-.79.35-.23.73-.41,1.13-.55.37-.12.73-.18,1.06-.18m0-1.87c-.54,0-1.09.09-1.65.28-.56.19-1.09.44-1.57.76-.48.32-.9.62-1.25.9-.35.28-.68.58-.99.89-.31-.31-.65-.61-.99-.89-.35-.28-.77-.58-1.25-.9-.48-.32-1.01-.57-1.57-.76-.56-.19-1.11-.28-1.65-.28-1.95,0-3.48.54-4.59,1.62-1.11,1.08-1.66,2.58-1.66,4.5,0,.58.1,1.19.31,1.8.2.62.44,1.15.7,1.58.26.44.56.86.89,1.27.33.41.57.7.73.86.15.16.27.27.36.34l8.16,7.87c.16.16.35.24.58.24s.42-.08.58-.24l8.15-7.85c2-2,2.99-3.96,2.99-5.88,0-1.92-.55-3.42-1.66-4.5-1.11-1.08-2.64-1.62-4.59-1.62h0Z" fill="#fff" stroke-width="0"/></g><g id="Icon-2"><path d="m8.59,25.22c.73,0,1.27.18,1.64.54.37.36.55.88.55,1.58,0,.7-.41,1.46-1.22,2.27l-3.7,3.57-3.72-3.59-.03-.03-.03-.03s-.03-.02-.1-.09c-.03-.03-.11-.11-.3-.36-.14-.17-.26-.35-.37-.53-.09-.16-.18-.36-.26-.6-.07-.21-.11-.42-.11-.61,0-.7.18-1.22.55-1.58.37-.37.91-.54,1.64-.54.17,0,.35.03.53.09.2.07.39.16.57.27.22.14.4.28.55.4.15.12.29.24.42.38l.66.66.66-.66c.13-.13.27-.26.42-.38.15-.12.34-.26.55-.4.17-.11.36-.21.57-.27.18-.06.36-.09.53-.09m0-.94c-.27,0-.55.05-.83.14-.28.09-.54.22-.78.38-.24.16-.45.31-.62.45-.17.14-.34.29-.5.44-.16-.16-.32-.31-.5-.44-.17-.14-.38-.29-.62-.45-.24-.16-.5-.29-.78-.38-.28-.09-.56-.14-.83-.14-.98,0-1.74.27-2.3.81-.55.54-.83,1.29-.83,2.25,0,.29.05.59.15.9.1.31.22.57.35.79.13.22.28.43.44.64.17.21.29.35.36.43.08.08.14.14.18.17l4.08,3.94c.08.08.17.12.29.12s.21-.04.29-.12l4.07-3.92c1-1,1.5-1.98,1.5-2.94,0-.96-.28-1.71-.83-2.25-.55-.54-1.32-.81-2.3-.81h0Z" fill="#fff" stroke-width="0"/></g><g id="Icon-3"><path d="m105.69,98.04c1.46,0,2.53.36,3.28,1.09.74.72,1.1,1.75,1.1,3.16,0,1.4-.82,2.93-2.43,4.55l-7.41,7.14-7.43-7.17-.06-.06-.07-.05s-.06-.05-.19-.19c-.05-.05-.21-.23-.61-.72-.28-.35-.53-.71-.75-1.07-.19-.32-.37-.72-.53-1.21-.14-.43-.21-.83-.21-1.22,0-1.4.36-2.44,1.1-3.16.75-.73,1.82-1.09,3.28-1.09.34,0,.69.06,1.06.18.41.14.79.32,1.13.55.43.28.81.55,1.11.79.29.23.58.49.84.75l1.33,1.32,1.33-1.33c.26-.26.55-.52.84-.75.3-.24.68-.51,1.11-.79.35-.23.73-.41,1.13-.55.37-.12.73-.18,1.06-.18m0-1.87c-.54,0-1.09.09-1.65.28-.56.19-1.09.44-1.57.76-.48.32-.9.62-1.25.9-.35.28-.68.58-.99.89-.31-.31-.65-.61-.99-.89-.35-.28-.77-.58-1.25-.9-.48-.32-1.01-.57-1.57-.76-.56-.19-1.11-.28-1.65-.28-1.95,0-3.48.54-4.59,1.62-1.11,1.08-1.66,2.58-1.66,4.5,0,.58.1,1.19.31,1.8.2.62.44,1.15.7,1.58.26.44.56.86.89,1.27.33.41.57.7.73.86.15.16.27.27.36.34l8.16,7.87c.16.16.35.24.58.24s.42-.08.58-.24l8.15-7.85c2-2,2.99-3.96,2.99-5.88,0-1.92-.55-3.42-1.66-4.5-1.11-1.08-2.64-1.62-4.59-1.62h0Z" fill="#fff" stroke-width="0"/></g><g id="Icon-4"><path d="m80.75,106.03c.73,0,1.27.18,1.64.54.37.36.55.88.55,1.58,0,.7-.41,1.46-1.22,2.27l-3.7,3.57-3.72-3.59-.03-.03-.03-.03s-.03-.02-.1-.09c-.03-.03-.11-.11-.3-.36-.14-.17-.26-.35-.37-.53-.09-.16-.18-.36-.26-.6-.07-.21-.11-.42-.11-.61,0-.7.18-1.22.55-1.58.37-.37.91-.54,1.64-.54.17,0,.35.03.53.09.2.07.39.16.57.27.22.14.4.28.55.4.15.12.29.24.42.38l.66.66.66-.66c.13-.13.27-.26.42-.38.15-.12.34-.26.55-.4.17-.11.36-.21.57-.27.18-.06.36-.09.53-.09m0-.94c-.27,0-.55.05-.83.14-.28.09-.54.22-.78.38-.24.16-.45.31-.62.45-.17.14-.34.29-.5.44-.16-.16-.32-.31-.5-.44-.17-.14-.38-.29-.62-.45-.24-.16-.5-.29-.78-.38-.28-.09-.56-.14-.83-.14-.98,0-1.74.27-2.3.81-.55.54-.83,1.29-.83,2.25,0,.29.05.59.15.9.1.31.22.57.35.79.13.22.28.43.44.64.17.21.29.35.36.43.08.08.14.14.18.17l4.08,3.94c.08.08.17.12.29.12s.21-.04.29-.12l4.07-3.92c1-1,1.5-1.98,1.5-2.94,0-.96-.28-1.71-.83-2.25-.55-.54-1.32-.81-2.3-.81h0Z" fill="#fff" stroke-width="0"/></g></svg>