<?xml version="1.0" encoding="UTF-8"?><svg id="Layer_1" xmlns="http://www.w3.org/2000/svg" viewBox="0 0 109.93 106.03"><path d="m100.33,52.32c0-9.71-2.95-19.02-8.52-26.91-8.76-12.42-23.05-19.84-38.23-19.84S24.11,12.99,15.35,25.41c-5.57,7.89-8.52,17.2-8.52,26.91s2.95,19.02,8.52,26.91c8.76,12.42,23.05,19.84,38.23,19.84s29.43-7.4,38.19-19.79c0,0,0,0,0-.01,0-.01.02-.03.03-.04,5.57-7.89,8.52-17.2,8.52-26.91Zm-25.72,20.61c1.37-5.7,2.17-12.08,2.29-18.86h19.89c-.31,7.92-2.76,15.5-7.13,22.08-4.32-1.36-9.44-2.45-15.05-3.22Zm-21.03,22.64c-6.8,0-12.93-7.92-16.52-19.66,5.22-.56,10.8-.86,16.52-.86s11.3.3,16.52.86c-3.59,11.75-9.72,19.66-16.52,19.66Zm0-24.02c-6.04,0-11.95.33-17.47.94-1.39-5.57-2.23-11.83-2.36-18.42h39.65c-.13,6.59-.97,12.85-2.36,18.42-5.52-.61-11.43-.94-17.47-.94Zm-36.09,4.6c-4.37-6.58-6.81-14.16-7.13-22.08h19.89c.12,6.79.92,13.16,2.29,18.86-5.62.78-10.73,1.86-15.05,3.22Zm0-47.67c4.32,1.36,9.44,2.45,15.05,3.22-1.37,5.7-2.17,12.08-2.29,18.86H10.37c.31-7.92,2.76-15.5,7.13-22.08ZM53.58,9.07c6.8,0,12.93,7.92,16.52,19.66-5.22.56-10.8.86-16.52.86s-11.3-.3-16.52-.86c3.59-11.75,9.72-19.66,16.52-19.66Zm0,24.02c6.04,0,11.95-.33,17.47-.94,1.39,5.57,2.23,11.83,2.36,18.42h-39.65c.13-6.59.97-12.85,2.36-18.42,5.52.61,11.43.94,17.47.94Zm36.09-4.6c4.37,6.58,6.81,14.16,7.13,22.08h-19.89c-.12-6.79-.92-13.16-2.29-18.86,5.62-.78,10.73-1.86,15.05-3.22Zm-2.17-3c-4.01,1.18-8.68,2.13-13.79,2.82-2.27-7.74-5.62-13.97-9.67-17.94,9.2,2.3,17.48,7.58,23.46,15.13Zm-44.36-15.13c-4.05,3.97-7.4,10.21-9.67,17.94-5.1-.69-9.77-1.64-13.79-2.82,5.98-7.55,14.26-12.83,23.46-15.13Zm-23.46,68.79c4.01-1.18,8.68-2.13,13.79-2.82,2.27,7.74,5.62,13.97,9.67,17.94-9.2-2.3-17.48-7.58-23.46-15.13Zm44.36,15.13c4.05-3.97,7.4-10.21,9.67-17.94,5.1.69,9.77,1.64,13.79,2.82-5.98,7.55-14.26,12.83-23.46,15.13Z" fill="#fff" stroke-width="0"/><path d="m89.67,10.66c.32.32.75.49,1.18.49s.85-.16,1.18-.49l2.73-2.73,2.73,2.73c.32.32.75.49,1.18.49s.85-.16,1.18-.49c.65-.65.65-1.7,0-2.35l-2.73-2.73,2.73-2.73c.65-.65.65-1.7,0-2.35-.65-.65-1.7-.65-2.35,0l-2.73,2.73-2.73-2.73c-.65-.65-1.7-.65-2.35,0-.65.65-.65,1.7,0,2.35l2.73,2.73-2.73,2.73c-.65.65-.65,1.7,0,2.35Z" fill="#fff" stroke-width="0"/><path d="m101.98,23.13c.24.24.56.36.88.36s.63-.12.88-.36l2.04-2.04,2.04,2.04c.24.24.56.36.88.36s.63-.12.88-.36c.48-.48.48-1.27,0-1.75l-2.04-2.04,2.04-2.04c.48-.48.48-1.27,0-1.75-.48-.48-1.27-.48-1.75,0l-2.04,2.04-2.04-2.04c-.48-.48-1.27-.48-1.75,0-.48.48-.48,1.27,0,1.75l2.04,2.04-2.04,2.04c-.48.48-.48,1.27,0,1.75Z" fill="#fff" stroke-width="0"/><path d="m20.25,95.37c-.32-.32-.75-.49-1.18-.49s-.85.16-1.18.49l-2.73,2.73-2.73-2.73c-.32-.32-.75-.49-1.18-.49s-.85.16-1.18.49c-.65.65-.65,1.7,0,2.35l2.73,2.73-2.73,2.73c-.65.65-.65,1.7,0,2.35.65.65,1.7.65,2.35,0l2.73-2.73,2.73,2.73c.65.65,1.7.65,2.35,0,.65-.65.65-1.7,0-2.35l-2.73-2.73,2.73-2.73c.65-.65.65-1.7,0-2.35Z" fill="#fff" stroke-width="0"/><path d="m7.95,82.9c-.24-.24-.56-.36-.88-.36s-.63.12-.88.36l-2.04,2.04-2.04-2.04c-.24-.24-.56-.36-.88-.36s-.63.12-.88.36c-.48.48-.48,1.27,0,1.75l2.04,2.04-2.04,2.04c-.48.48-.48,1.27,0,1.75.48.48,1.27.48,1.75,0l2.04-2.04,2.04,2.04c.48.48,1.27.48,1.75,0,.48-.48.48-1.27,0-1.75l-2.04-2.04,2.04-2.04c.48-.48.48-1.27,0-1.75Z" fill="#fff" stroke-width="0"/></svg>