<?xml version="1.0" encoding="UTF-8"?><svg id="Layer_1" xmlns="http://www.w3.org/2000/svg" viewBox="0 0 91.91 99.02"><path d="m69.17,27.98c-.32,0-.64-.11-.89-.34-1.16-1.05-6.15-3.92-7.68-4.66-1.02-.5-1.46-1.74-.99-2.77l3.51-7.65c.23-.51.67-.91,1.2-1.1.53-.19,1.11-.16,1.62.08,3.59,1.73,6.95,3.92,9.99,6.53.43.37.69.88.73,1.45.04.57-.15,1.12-.53,1.54,0,0-.01.01-.02.02l-5.97,6.48c-.26.28-.62.43-.98.43Zm-6.92-7.15c1.48.77,4.82,2.66,6.77,4.03l4.75-5.16c-2.6-2.17-5.44-4.03-8.46-5.53l-3.06,6.66Z" fill="#fff" stroke-width="0"/><path d="m79.81,45.78c-.53,0-1.02-.32-1.23-.83-.09-.22-.21-.54-.37-.92-.78-1.96-2.6-6.53-3.23-7.62-.56-.98-.23-2.26.74-2.85l7.21-4.34c.49-.29,1.06-.38,1.61-.24.55.14,1.01.49,1.29.98,2.01,3.46,3.55,7.17,4.59,11.02.15.55.07,1.12-.22,1.61-.29.49-.75.84-1.3.98l-8.78,2.18c-.11.03-.21.04-.32.04Zm-2.27-10.21c.69,1.39,1.87,4.3,3.07,7.32l7.1-1.76c-.92-3.25-2.23-6.39-3.89-9.34l-6.29,3.79Z" fill="#fff" stroke-width="0"/><path d="m46.01,99.02s-.05,0-.08,0c-12.29-.02-23.83-4.81-32.5-13.49C4.77,76.85,0,65.3,0,53.01,0,31.14,15.41,12.29,36.75,7.93V1.85c0-.73.41-1.37,1.07-1.68.66-.31,1.41-.21,1.97.26l13.23,11.09c.46.38.73.94.76,1.54.02.6-.2,1.18-.63,1.6l-13.25,13.09c-.53.53-1.32.68-2.01.39-.69-.29-1.14-.96-1.14-1.71v-5.52c-3.09.89-6.03,2.23-8.76,3.98,0,0,0,0-.01,0-4.96,3.1-7.35,5.63-11.08,11.75-2.79,4.97-4.27,10.63-4.27,16.36,0,18.27,14.88,33.24,33.15,33.37.08,0,.16,0,.23,0,13.97,0,26.55-8.77,31.36-21.9,1.05-2.85,1.7-5.84,1.93-8.89.09-1.13,1.08-2,2.22-1.94l8.4.47c.57.03,1.09.28,1.46.71.38.43.56.98.52,1.55-.31,4.26-1.21,8.45-2.67,12.44-3.22,8.77-8.96,16.28-16.62,21.71-7.8,5.54-17,8.46-26.6,8.46ZM39.4,3.58v5.01c0,.89-.63,1.65-1.51,1.82C17.48,14.28,2.66,32.19,2.66,53.01c0,23.87,19.42,43.32,43.28,43.36.02,0,.05,0,.07,0,18.13,0,34.49-11.42,40.73-28.44,1.32-3.59,2.15-7.34,2.48-11.17l-7.31-.41c-.29,3.1-.97,6.15-2.04,9.06-5.19,14.17-18.78,23.64-33.86,23.64-.08,0-.17,0-.25,0-9.6-.07-18.59-3.84-25.33-10.62-6.74-6.78-10.45-15.8-10.45-25.4,0-6.2,1.59-12.32,4.62-17.69,0-.01.02-.03.02-.04,3.52-5.77,6.08-8.97,11.95-12.64,3.25-2.09,6.79-3.63,10.53-4.58.56-.14,1.14-.02,1.6.33.45.35.71.89.71,1.46v4.64l11.46-11.33-11.46-9.6Zm-12.13,20.2h0,0Z" fill="#fff" stroke-width="0"/><path d="m42.66,65.87h-18.65c-.42,0-.81-.2-1.06-.53-.25-.33-.33-.77-.21-1.17,1.68-5.83,10.35-11.08,17.32-14.45,1.63-.79,2.33-2.95,1.51-4.72l-1.35-2.93c-.69-1.51-2.24-2.22-3.67-1.69-2.09.78-3.81,1.41-5.09,1.87-.82.3-1.46.52-1.9.68-.91.31-1.45.5-2.05,0-.37-.3-.54-.78-.46-1.25.1-.59.57-1.02,1.13-1.09.32-.1,1.68-.55,7.46-2.7,2.73-1.01,5.74.31,7.01,3.07l1.35,2.93c1.43,3.1.18,6.79-2.77,8.22-7.72,3.74-13.08,7.69-15.16,11.1h16.61c.73,0,1.33.59,1.33,1.33s-.59,1.33-1.33,1.33Z" fill="#fff" stroke-width="0"/><path d="m61.46,65.87c-.07,0-.14,0-.21-.02-.72-.11-1.22-.79-1.1-1.52l.92-5.82h-14.26s-.01,0-.02,0c0,0,0,0,0,0-.17,0-.34-.04-.49-.1-.16-.07-.31-.17-.44-.3-.12-.13-.22-.27-.28-.43-.06-.15-.09-.3-.1-.47h0s0-.02,0-.03h0c0-.18.04-.36.11-.51.06-.15.16-.29.28-.42,0,0,.01-.01.02-.02l18.68-18.1c.41-.4,1.03-.49,1.54-.22.51.26.79.82.7,1.39l-2.62,16.57h1.76c.73,0,1.33.59,1.33,1.33s-.59,1.33-1.33,1.33h-2.18l-.99,6.23c-.1.65-.67,1.12-1.31,1.12Zm-11.38-10.01h11.41l2.07-13.06-13.47,13.06Z" fill="#fff" stroke-width="0"/></svg>