<?xml version="1.0" encoding="UTF-8"?><svg id="Layer_1" xmlns="http://www.w3.org/2000/svg" viewBox="0 0 63.27 93.5"><path d="m57.07,81.08v-7.08c-.02-8.98-5.24-17.13-13.39-20.9-2.43-1.06-4.01-3.44-4.03-6.09v-.54c.02-2.65,1.6-5.03,4.03-6.09,8.15-3.77,13.37-11.92,13.39-20.9v-7.07c3.43,0,6.2-2.79,6.2-6.22C63.27,2.77,60.48,0,57.05,0H6.22C2.79,0,0,2.77,0,6.2c0,3.43,2.77,6.21,6.2,6.22v7.08c.02,8.98,5.24,17.13,13.39,20.9,2.43,1.06,4.01,3.44,4.03,6.09v.54c-.02,2.65-1.6,5.03-4.03,6.09-8.15,3.77-13.37,11.92-13.39,20.9v7.08C2.77,81.09,0,83.87,0,87.3c0,3.43,2.79,6.2,6.22,6.2h50.83c3.43,0,6.21-2.77,6.22-6.2s-2.77-6.21-6.2-6.22h0ZM3.51,6.21c0-1.5,1.21-2.71,2.71-2.71h50.83c1.5-.03,2.73,1.16,2.76,2.66.03,1.5-1.16,2.73-2.66,2.76-.03,0-.07,0-.1,0H6.22c-1.5,0-2.71-1.21-2.71-2.71Zm6.19,67.8c.02-7.61,4.45-14.52,11.35-17.72,3.65-1.65,6.02-5.26,6.07-9.27v-.54c-.05-4.01-2.41-7.62-6.07-9.27-6.91-3.2-11.34-10.11-11.35-17.72v-7.08h43.87v7.08c-.02,7.61-4.45,14.52-11.35,17.72-3.65,1.65-6.02,5.26-6.07,9.27v.54c.05,4.01,2.41,7.62,6.07,9.27,6.91,3.2,11.34,10.11,11.35,17.72v7.08h-4.53c-.35-5.51-3.69-10.39-8.7-12.71-3.09-1.42-5.6-3.85-7.14-6.88-.43-.86-1.48-1.21-2.35-.78-.34.17-.61.44-.78.78-1.54,3.03-4.05,5.46-7.14,6.88-5.01,2.32-8.35,7.2-8.7,12.71h-4.54v-7.07Zm35.84,7.07h-27.8c.34-4.15,2.89-7.79,6.67-9.53,2.88-1.33,5.37-3.37,7.23-5.93,1.87,2.56,4.36,4.6,7.23,5.93,3.78,1.75,6.32,5.39,6.67,9.53Zm11.52,8.92H6.22c-1.5.03-2.73-1.16-2.76-2.66-.03-1.5,1.16-2.73,2.66-2.76.03,0,.07,0,.1,0h50.83c1.5-.03,2.73,1.16,2.76,2.66s-1.16,2.73-2.66,2.76c-.03,0-.07,0-.1,0h0Z" fill="#fff" stroke-width="0"/></svg>