<svg width="24" height="24" viewBox="0 0 24 24" fill="none" xmlns="http://www.w3.org/2000/svg">
<path d="M11.9994 13.8667C13.5782 13.8667 14.8581 15.1466 14.8581 16.7255V21.9368H9.14062V16.7255C9.14062 15.1466 10.4205 13.8667 11.9994 13.8667Z" fill="white"/>
<path d="M1.28516 14.5203L10.701 3.59789C11.3849 2.80461 12.614 2.80461 13.2979 3.59789L22.7137 14.5203" stroke="#9399b1" stroke-width="1.71429" stroke-linecap="round" stroke-linejoin="round"/>
<path fill-rule="evenodd" clip-rule="evenodd" d="M10.6991 3.5787L4.58235 10.705L4.23296 13.1975C3.91814 15.4435 3.93355 17.7234 4.27874 19.965C4.45342 21.0994 5.42948 21.9366 6.57717 21.9366H17.4226C18.5703 21.9366 19.5465 21.0994 19.7211 19.965C20.0662 17.7234 20.0817 15.4435 19.7669 13.1975L19.4175 10.705L13.3007 3.5787C12.6166 2.7817 11.3832 2.78172 10.6991 3.5787ZM14.8587 16.7253C14.8587 15.1464 13.5788 13.8665 11.9999 13.8665C10.4211 13.8665 9.14119 15.1464 9.14119 16.7253V21.9365H14.8587V16.7253Z" fill="white"/>
<path d="M4.58235 10.705L10.6991 3.57871C11.3832 2.78171 12.6167 2.78171 13.3007 3.57871L19.4176 10.705L19.7669 13.1975C20.0817 15.4435 20.0662 17.7235 19.7212 19.9651C19.5465 21.0995 18.5704 21.9367 17.4226 21.9367H6.57716C5.42948 21.9367 4.45342 21.0995 4.27873 19.9651C3.93356 17.7235 3.91813 15.4435 4.23296 13.1975L4.58235 10.705Z" stroke="#9399b1" stroke-width="1.71429" stroke-linejoin="round"/>
<path d="M11.9994 13.8667C13.5782 13.8667 14.8581 15.1466 14.8581 16.7255V21.9368H9.14062V16.7255C9.14062 15.1466 10.4205 13.8667 11.9994 13.8667Z" stroke="#9399b1" stroke-width="1.71429" stroke-linecap="round" stroke-linejoin="round"/>
</svg>
