<svg width="24" height="24" viewBox="0 0 24 24" fill="none" xmlns="http://www.w3.org/2000/svg">
<g clip-path="url(#clip0_4687_5989)">
<path d="M1.71854 19.1114C1.90236 20.757 3.21783 22.0718 4.86271 22.2621C6.72137 22.4771 8.64197 22.6891 10.607 22.6891C12.5721 22.6891 14.4927 22.4771 16.3514 22.2621C17.9962 22.0718 19.3118 20.757 19.4955 19.1114C19.7021 17.2615 19.9017 15.3502 19.9017 13.3946C19.9017 11.4391 19.7021 9.52777 19.4955 7.67792C19.3118 6.0323 17.9962 4.71746 16.3514 4.52719C14.4927 4.31219 12.5721 4.1001 10.607 4.1001C8.64197 4.1001 6.72137 4.31219 4.86271 4.52719C3.21783 4.71746 1.90236 6.0323 1.71854 7.67792C1.5119 9.52777 1.3125 11.4391 1.3125 13.3946C1.3125 15.3502 1.5119 17.2615 1.71854 19.1114Z" fill="white"/>
<path d="M9.2399 4.13184C7.74967 4.19895 6.28798 4.36212 4.86273 4.52698C3.21783 4.71725 1.90236 6.03209 1.71854 7.6777C1.5119 9.52755 1.3125 11.4389 1.3125 13.3944C1.3125 15.35 1.5119 17.2613 1.71854 19.1112C1.90236 20.7567 3.21783 22.0716 4.86271 22.2618C6.72137 22.4768 8.64197 22.689 10.607 22.689C12.5721 22.689 14.4927 22.4768 16.3514 22.2618C17.9962 22.0716 19.3118 20.7569 19.4955 19.1112C19.6442 17.7805 19.789 16.418 19.8586 15.0302" stroke="#9399b1" stroke-width="1.71429" stroke-linecap="round"/>
<path d="M17.3296 2.23312L11.0126 9.40083L10.1472 13.4711C10.0079 14.126 10.6906 14.7457 11.3299 14.5447L15.3805 13.2713L21.9052 6.40578C22.9889 5.26549 22.7998 3.35828 21.4881 2.19803C20.207 1.06496 18.3453 1.08067 17.3296 2.23312Z" fill="white"/>
<path d="M17.3296 2.23312L11.0126 9.40083L10.1472 13.4711C10.0079 14.126 10.6906 14.7457 11.3299 14.5447L15.3805 13.2713L21.9052 6.40578C22.9889 5.26549 22.7998 3.35828 21.4881 2.19803C20.207 1.06496 18.3453 1.08067 17.3296 2.23312Z" stroke="#9399b1" stroke-width="1.71429" stroke-linecap="round" stroke-linejoin="round"/>
</g>
<defs>
<clipPath id="clip0_4687_5989">
<rect width="24" height="24" fill="white"/>
</clipPath>
</defs>
</svg>
