<svg width="14" height="17" viewBox="0 0 14 17" fill="none" xmlns="http://www.w3.org/2000/svg">
<path d="M13.6574 16.2644C13.6099 16.9296 12.8109 17.2404 12.3263 16.7824L7.98146 12.6749C7.43076 12.1543 6.56936 12.1543 6.01866 12.6749L1.67386 16.7824C1.18933 17.2404 0.390242 16.9296 0.342742 16.2644C0.0199417 11.7453 0.00632735 7.2133 0.27447 2.69352C0.334064 1.68915 0.922749 0.842715 1.75798 0.400795C2.15631 0.19004 2.61071 0.0712891 3.09054 0.0712891H10.9096C10.9657 0.0712891 11.0214 0.0729115 11.0767 0.0761138C12.0587 0.132932 12.9159 0.687098 13.3748 1.5C13.5753 1.8551 13.6998 2.25957 13.7256 2.69352C13.9939 7.2133 13.9801 11.7453 13.6574 16.2644Z" fill="#EDCC12"/>
</svg>
